<?xml version="1.0" encoding="UTF-8" standalone="no"?>
<!-- Created with Inkscape (http://www.inkscape.org/) -->

<svg
   xmlns:dc="http://purl.org/dc/elements/1.1/"
   xmlns:cc="http://creativecommons.org/ns#"
   xmlns:rdf="http://www.w3.org/1999/02/22-rdf-syntax-ns#"
   xmlns:svg="http://www.w3.org/2000/svg"
   xmlns="http://www.w3.org/2000/svg"
   xmlns:sodipodi="http://sodipodi.sourceforge.net/DTD/sodipodi-0.dtd"
   xmlns:inkscape="http://www.inkscape.org/namespaces/inkscape"
   version="1.1"
   id="svg2"
   width="800"
   height="800"
   viewBox="0 0 800 800"
   sodipodi:docname="cthulhu.svg"
   inkscape:version="0.92.1 r15371">
  <metadata
     id="metadata8">
    <rdf:RDF>
      <cc:Work
         rdf:about="">
        <dc:format>image/svg+xml</dc:format>
        <dc:type
           rdf:resource="http://purl.org/dc/dcmitype/StillImage" />
        <dc:title></dc:title>
      </cc:Work>
    </rdf:RDF>
  </metadata>
  <defs
     id="defs6" />
  <sodipodi:namedview
     pagecolor="#ffffff"
     bordercolor="#666666"
     borderopacity="1"
     objecttolerance="10"
     gridtolerance="10"
     guidetolerance="10"
     inkscape:pageopacity="0"
     inkscape:pageshadow="2"
     inkscape:window-width="1600"
     inkscape:window-height="837"
     id="namedview4"
     showgrid="false"
     inkscape:zoom="0.59"
     inkscape:cx="31.122725"
     inkscape:cy="315.57923"
     inkscape:window-x="-8"
     inkscape:window-y="-8"
     inkscape:window-maximized="1"
     inkscape:current-layer="layer2" />
  <g
     inkscape:groupmode="layer"
     id="layer2"
     inkscape:label="Layer 2"
     style="display:inline;opacity:1">
    <path
       id="path4495-8"
       style="display:inline;opacity:1;fill:#000000;fill-opacity:1;stroke:#000000;stroke-width:1px;stroke-linecap:butt;stroke-linejoin:miter;stroke-opacity:1"
       d="m 396.56723,43.917969 c 0,0 190.01737,-9.413416 305.04103,179.810561 101.48806,166.95671 20.6054,324.18655 -9.32032,369.49217 -46.68805,70.6827 -139.83203,122.88086 -139.83203,122.88086 0,0 72.49854,-142.79455 114.375,-285.71679 33.91742,-115.75847 -37.25586,-256.65624 -37.25586,-256.65624 0,0 77.9657,161.86515 -1.69531,294.916 -53.60445,89.53083 -66.10055,112.20623 -68.57227,117.51758 0.62175,-11.09077 3.80774,-102.62798 -57.16015,-144.59375 0,0 46.26392,-38.77533 43.9414,-102.43945 C 545.40583,320.40953 711.25881,197.47083 488.8231,82.425781 467.98304,71.647182 340.4986,22.999403 549.9149,171.91407 c 98.07411,69.7399 11.0218,111.44426 -18.53516,153.77734 l 14.70898,13.4375 c 0,0 -0.86151,25.52129 -5.95507,20.42773 -5.09357,-5.09357 -2.99561,-4.79358 -14.98047,0.59961 -11.98486,5.39319 11.75019,-5.35932 -7.19141,42.8457 -22.40472,57.0184 -32.40964,17.05175 -33.11914,14.02344 0.94162,5.03353 -6.35506,17.57655 11.54687,37.21094 18.57653,20.37426 8.08943,23.97028 8.98829,44.04492 0.89887,20.07464 -19.17548,73.40759 21.27343,50.03711 40.4489,-23.37047 1.19714,38.65075 -24.57031,20.07422 -25.76746,-18.57654 -18.57617,-63.51953 -18.57617,-63.51953 0,0 -15.58087,-82.09703 -15.28125,-10.78711 0.29963,71.30992 14.38348,87.48901 45.84375,88.6875 14.08474,0.53656 69.21179,4.79529 67.41406,34.1582 -1.79773,29.36291 -6.89093,36.55401 -8.98828,24.26953 -2.09735,-12.28449 -9.88894,-36.25445 -23.07226,-41.94726 -13.18336,-5.69281 -18.87458,-3.89503 -29.36133,-1.49805 -10.48676,2.39697 -27.86622,5.39356 -51.83594,-18.57617 -23.96972,-23.96972 -20.67383,-80.59961 -20.67383,-80.59961 0,0 -10.78597,27.86554 -10.48634,49.13867 0.29962,21.27313 5.3929,15.28041 36.25392,55.42969 30.86102,40.14929 -8.68854,81.19714 -2.39648,93.78125 6.29205,12.5841 21.57324,1.49781 35.95507,17.07812 14.38183,15.58032 -4.49475,56.03033 -8.68945,40.15039 -4.19471,-15.87994 3.89441,-27.26569 -2.69727,-35.35547 -6.59167,-8.08978 -35.95386,-4.79462 -46.74023,-31.46093 C 437.9625,660.67548 475.11497,659.77807 463.72935,622.625 452.34373,585.47193 435.5665,602.84924 424.78012,583.07422 413.99375,563.2992 406.50278,544.12305 406.50278,544.12305 L 396.35825,498.41211 Z M 559.30747,586.16211 c -0.0407,0.72593 -0.0723,1.12695 -0.0723,1.12695 0,0 -1.12925,1.45484 0.0723,-1.12695 z M 475.42271,315.50195 c -8.41416,-0.24828 -20.05284,3.40599 -36.10156,13.73438 -42.79662,27.54237 22.03383,3.81419 -16.94923,36.01758 -38.98305,32.20339 -0.42361,5.08418 8.89843,5.93164 9.32204,0.84746 40.25465,21.18733 51.69533,3.81445 11.44068,-17.37288 -17.37318,-49.57654 -1.27149,-42.79688 16.1017,6.77966 14.40625,4.23829 14.40625,4.23829 -1.58898,-9.26907 -6.65413,-20.52566 -20.67773,-20.93946 z M 396.56723,43.917969 c 0,0 -190.01736,-9.413413 -305.041017,179.810551 -101.4880642,166.95672 -20.605403,324.18656 9.320317,369.49218 46.68804,70.6827 139.83203,122.88086 139.83203,122.88086 0,0 -72.49854,-142.79455 -114.375,-285.71679 -33.917417,-115.75847 37.25586,-256.65625 37.25586,-256.65625 0,0 -77.965698,161.86516 1.69531,294.91601 53.60445,89.53083 66.10055,112.20623 68.57227,117.51758 -0.62175,-11.09077 -3.80774,-102.62798 57.16015,-144.59375 0,0 -46.26392,-38.77533 -43.9414,-102.43945 0.68289,-18.71938 -165.17009,-141.65809 57.26562,-256.703129 20.84006,-10.778599 148.32449,-59.426379 -61.0918,89.488279 -98.07412,69.73991 -11.0218,111.44427 18.53516,153.77735 l -14.70898,13.4375 c 0,0 0.86151,25.52129 5.95507,20.42773 5.09357,-5.09357 2.99561,-4.79358 14.98047,0.59961 11.98486,5.39319 -11.75019,-5.35932 7.19141,42.8457 22.40472,57.0184 32.40964,17.05175 33.11914,14.02344 -0.94162,5.03353 6.35506,17.57655 -11.54687,37.21094 -18.57653,20.37426 -8.08943,23.97028 -8.98829,44.04492 -0.89887,20.07464 19.17548,73.40759 -21.27343,50.03711 -40.4489,-23.37047 -1.19714,38.65075 24.57031,20.07422 25.76746,-18.57654 18.57617,-63.51953 18.57617,-63.51953 0,0 15.58087,-82.09703 15.28125,-10.78711 -0.29963,71.30992 -14.38348,87.48901 -45.84375,88.6875 -14.08474,0.53656 -69.21179,4.79529 -67.41406,34.1582 1.79773,29.36291 6.89093,36.55401 8.98828,24.26953 2.09735,-12.28449 9.88894,-36.25445 23.07226,-41.94726 13.18336,-5.69281 18.87458,-3.89503 29.36133,-1.49805 10.48676,2.39697 27.86622,5.39356 51.83594,-18.57617 23.96972,-23.96972 20.67383,-80.59961 20.67383,-80.59961 0,0 10.78596,27.86554 10.48633,49.13867 -0.29962,21.27313 -5.39289,15.28041 -36.25391,55.42969 -30.86102,40.14929 8.68854,81.19714 2.39648,93.78125 -6.29205,12.5841 -21.57324,1.49781 -35.95507,17.07812 -14.38183,15.58032 4.49475,56.03033 8.68945,40.15039 4.19471,-15.87994 -3.89441,-27.26569 2.69727,-35.35547 6.59167,-8.08978 35.95386,-4.79462 46.74023,-31.46093 10.78638,-26.66632 -26.36609,-27.56373 -14.98047,-64.7168 11.38562,-37.15307 28.16284,-19.77576 38.94922,-39.55078 10.78637,-19.77502 18.27734,-38.95117 18.27734,-38.95117 l 10.14453,-45.71094 z M 233.827,586.16211 c 0.0407,0.72593 0.0723,1.12695 0.0723,1.12695 0,0 1.12925,1.45484 -0.0723,-1.12695 z m 83.88476,-270.66016 c 8.41416,-0.24828 20.05284,3.40599 36.10156,13.73438 42.79661,27.54237 -22.03383,3.81419 16.94922,36.01758 38.98305,32.20339 0.42361,5.08418 -8.89843,5.93164 -9.32203,0.84746 -40.25464,21.18733 -51.69532,3.81445 -11.44068,-17.37288 17.37318,-49.57654 1.27149,-42.79688 -16.1017,6.77966 -14.40625,4.23829 -14.40625,4.23829 1.58898,-9.26907 6.65413,-20.52566 20.67773,-20.93946 z"
       inkscape:connector-curvature="0"
       sodipodi:nodetypes="csscscsccsssccssscsssscssssccscsssssssssccccccsssssscscsscscsccsssccssscsssscssssccscsssssssssccccccsssssscs" />
  </g>
</svg>
