<?xml version="1.0" encoding="UTF-8" standalone="no"?>
<svg
   xmlns:dc="http://purl.org/dc/elements/1.1/"
   xmlns:cc="http://creativecommons.org/ns#"
   xmlns:rdf="http://www.w3.org/1999/02/22-rdf-syntax-ns#"
   xmlns:svg="http://www.w3.org/2000/svg"
   xmlns="http://www.w3.org/2000/svg"
   height="800"
   width="800"
   x="0"
   y="0"
   version="1.0"
   viewBox="0 0 799.99997 799.99998"
   id="svg1">
  <defs
     id="defs8" />
  <metadata
     id="metadata3">
    <rdf:RDF>
      <cc:Work>
        <dc:format>image/svg+xml</dc:format>
        <dc:type
           rdf:resource="http://purl.org/dc/dcmitype/StillImage" />
        <cc:license
           rdf:resource="http://creativecommons.org/publicdomain/zero/1.0/" />
        <dc:publisher>
          <cc:Agent
             rdf:about="http://openclipart.org/">
            <dc:title>Openclipart</dc:title>
          </cc:Agent>
        </dc:publisher>
        <dc:title></dc:title>
        <dc:date>2010-05-20T03:13:19</dc:date>
        <dc:description>originally uploaded by Nurbldoff from OCAL 0.18</dc:description>
        <dc:source>http://openclipart.org/detail/61327/elder-sign-nubldoff-01r-by-anonymous</dc:source>
        <dc:creator>
          <cc:Agent>
            <dc:title>Anonymous</dc:title>
          </cc:Agent>
        </dc:creator>
        <dc:subject>
          <rdf:Bag>
            <rdf:li>clip art</rdf:li>
            <rdf:li>clipart</rdf:li>
            <rdf:li>lovecraft</rdf:li>
            <rdf:li>pentagram</rdf:li>
            <rdf:li>religion</rdf:li>
            <rdf:li>symbol</rdf:li>
          </rdf:Bag>
        </dc:subject>
      </cc:Work>
      <cc:License
         rdf:about="http://creativecommons.org/publicdomain/zero/1.0/">
        <cc:permits
           rdf:resource="http://creativecommons.org/ns#Reproduction" />
        <cc:permits
           rdf:resource="http://creativecommons.org/ns#Distribution" />
        <cc:permits
           rdf:resource="http://creativecommons.org/ns#DerivativeWorks" />
      </cc:License>
    </rdf:RDF>
  </metadata>
  <path
     id="path3724"
     d="M 133.55449,781.17032 C 94.501188,729.34604 174.31754,680.81257 177.59812,646.28872 143.45576,556.76416 70.55102,447.83655 56.543905,355.63071 61.255934,321.04864 91.641368,307.12966 122.13933,308.157 c 20.1123,0.88599 21.88351,1.5724 27.10605,10.50483 35.87167,44.05781 38.61816,260.52584 102.11117,269.18635 20.0213,-6.82614 33.08323,-50.81084 47.29579,-70.08402 1.7521,0 3.18563,-7.08307 3.18563,-15.74017 -18.32302,-60.23645 -42.64734,-129.96438 -69.60706,-182.51296 0.26371,-25.72046 -24.72843,-37.53933 -25.46079,-54.72769 -0.67192,-17.76436 2.47189,-23.73972 24.86775,-47.26549 14.18628,-14.902 19.35163,-18.31742 27.70268,-18.31742 5.64578,0 11.13747,-1.41158 12.20373,-3.13686 18.62321,-9.49811 54.95256,13.46445 55.77879,30.81078 -2.5901,5.95817 -4.31438,21.33708 -9.55691,24.8891 -2.9084,25.9826 -3.42031,165.95522 27.8742,178.02622 3.06618,1.08152 7.36679,2.80173 9.55692,3.82266 2.19343,1.02247 3.98204,-0.18763 3.98204,-2.69396 26.66868,-53.85332 88.97365,-102.91945 89.19797,-158.44828 18.00977,-81.434 -72.48382,-140.72831 -40.61687,-220.741817 4.77784,-7.877816 9.43134,-23.65017 33.58359,-21.366611 17.00723,0 19.77583,5.293669 19.77583,37.812112 3.40105,26.312922 8.32141,114.221396 40.37591,115.098476 24.78678,-12.59657 41.89554,-57.75596 51.95338,-77.93891 14.09151,-28.40107 29.04425,-54.854347 33.22836,-58.785105 10.04734,-9.439011 40.52155,-34.11794 70.64944,-35.300396 3.81702,-0.14981 10.98417,2.095353 15.92045,4.656318 7.48621,3.883898 9.02873,6.795315 9.29855,17.550536 25.2094,40.169505 -148.44522,155.771527 -109.29166,200.150627 56.05848,15.76785 107.43032,-22.67059 152.73404,-21.01228 24.07963,-0.71613 23.40079,0.23033 24.38363,22.88304 1.51235,34.85718 -7.60291,48.27888 -45.86097,67.52761 -30.57623,14.12144 -68.24072,17.20183 -95.259,17.25096 -27.63128,0.25921 -103.86135,8.2854 -109.89438,30.26356 -36.0446,47.73642 -71.71916,94.64275 -98.76486,146.53931 -11.24093,21.36935 -12.48725,33.44919 -3.45109,33.44919 16.24338,9.19077 90.81423,-9.42905 107.17283,-9.45965 87.2263,-6.94679 103.07454,-4.69372 184.76645,-3.2829 21.46884,2.36809 8.92758,25.08352 -0.52723,31.28576 -120.81397,46.81691 -257.57675,76.8986 -375.40075,89.76845 -62.67455,42.0435 -123.56656,186.45369 -179.59845,142.35195 z"
     style="fill:#000000;stroke-width:3.18563724" />
</svg>
