<?xml version="1.0" encoding="UTF-8" standalone="no"?>
<svg
   xmlns:dc="http://purl.org/dc/elements/1.1/"
   xmlns:cc="http://creativecommons.org/ns#"
   xmlns:rdf="http://www.w3.org/1999/02/22-rdf-syntax-ns#"
   xmlns:svg="http://www.w3.org/2000/svg"
   xmlns="http://www.w3.org/2000/svg"
   height="800"
   width="800"
   x="0"
   y="0"
   version="1.0"
   viewBox="0 0 799.99997 799.99998"
   id="svg1">
  <defs
     id="defs8" />
  <path
     style="fill-rule:evenodd;stroke-width:1.59052616pt"
     d="M 5.5209735,76.796928 C 35.07295,148.56148 103.29063,255.98562 162.23551,322.97858 l 6.45754,-24.16009 c -28.05689,-35.26197 -55.82748,-85.42716 -72.162163,-125.1585 47.493093,23.22167 125.874233,45.664 145.437703,50.56282 65.87958,17.81389 160.96124,32.54216 230.46723,36.2799 18.11609,19.3567 26.81626,39.57228 37.93404,58.00648 l 14.31474,-12.1357 C 513.85312,292.04284 492.6196,259.30981 468.01415,229.28068 442.37488,196.70671 385.19546,130.90664 321.68576,86.037891 287.3622,125.6579 268.59399,149.13407 242.55708,195.13209 l 34.29174,6.42573 c 6.48935,-11.69037 14.12388,-23.98514 21.72659,-35.3415 l 19.03859,7.30051 -4.27851,-27.97735 c 1.89273,-2.49712 3.84907,-5.20103 5.61455,-7.36414 54.33238,28.42271 102.42988,66.35676 139.33009,104.2749 C 321.30402,242.9433 141.59048,189.69248 5.5209735,76.796928 Z M 128.38911,206.52025 l 35.92999,58.19735 15.50762,-5.80542 z m 658.47782,20.08835 c -111.09825,8.60475 -151.17951,20.94722 -275.51094,20.96313 l 8.70019,13.12184 c 36.16855,5.01016 73.75268,9.9726 103.47962,11.92895 -27.43657,16.46194 -80.52833,49.71984 -103.12971,63.12798 -40.25622,23.07853 -111.5595,66.34085 -167.35517,113.77033 -50.84911,-27.48429 -89.96015,-63.1757 -135.33786,-100.64849 l -3.73774,16.90729 c 43.43727,53.74388 113.75443,107.13784 199.5156,162.37681 86.1429,53.64845 188.00019,89.76929 264.91803,98.40586 C 640.55442,518.15204 610.46167,435.71507 572.59124,360.14917 l -30.76076,11.64265 c 31.50832,65.51377 62.28499,128.99167 81.86438,193.04215 -22.665,-1.19289 -52.39194,-10.92691 -78.63562,-18.83183 24.63725,15.92117 44.61426,22.49005 61.58518,32.74894 -41.16283,-7.14146 -112.25934,-37.05926 -152.14974,-62.03052 l 71.82816,22.42642 c -31.77871,-18.83183 -56.97265,-34.02135 -87.52664,-57.65657 -5.21693,4.03993 -10.27481,9.62268 -15.61898,17.28902 -11.22911,-3.67412 -46.96824,-33.17838 -53.96654,-37.775 52.80546,-42.67381 102.39806,-76.64745 153.72434,-104.67253 50.19701,-27.86601 167.92776,-87.31988 263.93191,-129.7233 z m -564.28686,6.10761 c -12.7083,19.75435 -35.88227,81.72124 -46.72965,111.47999 -28.97939,78.58789 -46.53881,227.89058 -30.8085,343.4582 5.32826,1.41557 16.47785,10.577 21.82202,11.97666 57.86334,-80.33747 100.36219,-139.29827 159.05261,-195.63471 l -20.93132,-18.19562 c -38.25215,31.77872 -88.79907,82.30973 -130.51858,132.92027 -2.36988,-27.97735 0.81117,-62.9053 4.77158,-91.66202 -8.97056,11.08597 -17.94113,34.05316 -22.17193,47.52492 -1.04974,-33.00341 5.01016,-65.21157 11.08596,-96.62446 4.46939,8.01625 9.98851,13.86939 14.71237,19.88157 -1.14517,-38.33167 8.30255,-142.27256 13.37633,-161.24753 7.15736,-29.10663 24.66906,-66.54761 37.61594,-95.33614 z m 111.52769,20.37464 c 11.41998,17.60713 17.28902,47.1273 7.76177,64.973 -4.37395,7.82539 -4.34213,15.63487 -1.14518,22.99901 l 16.6528,-18.132 -7.25279,31.31746 c 6.82336,6.87107 16.08022,13.04231 26.64132,18.13199 -0.66803,-13.34451 -6.0281,-18.52962 4.867,-30.06094 8.95467,-8.70018 26.21187,-15.31677 0.93841,-33.95773 -7.23689,-5.55093 -12.088,-19.89748 -16.44604,-28.1364 -10.02031,-19.84977 -23.3012,-24.1442 -32.01729,-27.13439 z m 79.52631,24.65316 c -10.8633,0.19086 -21.59934,0.8907 -30.80849,1.54281 l 4.2308,12.13572 c 17.59122,-1.73368 71.39871,3.13333 69.47418,16.00069 -1.74958,12.66058 -45.80716,37.21831 -71.017,42.38752 l 1.1929,8.01625 c 31.68329,-6.15533 94.42954,-35.15063 94.07962,-54.33237 -0.38172,-22.47413 -34.51441,-26.3073 -67.15201,-25.75062 z m -82.45287,13.16956 c -31.68328,6.15534 -99.47151,28.34318 -98.96254,47.52492 0.50896,18.32286 65.95911,22.95129 97.97641,24.25552 l -6.17124,-16.00069 c -17.59122,1.73367 -67.6928,-5.99629 -67.54964,-12.13572 0.17495,-6.79154 50.67415,-30.45857 75.8999,-35.64369 z m -85.39535,162.98121 -11.62675,0.95431 -0.98613,39.81087 z m 312.39523,0.95431 c -5.16921,2.57665 -10.33842,5.15331 -15.50763,7.74586 26.19597,23.60341 42.67382,47.22273 64.01867,70.82614 -12.29476,-26.19597 -35.24605,-62.09415 -48.51104,-78.572 z m -64.01868,11.67446 c -4.8511,5.16921 -9.71811,10.33842 -14.56921,15.50763 33.30562,10.99055 68.56758,31.66738 97.02209,47.50902 -20.69274,-19.0704 -52.05792,-45.88668 -82.45288,-63.01665 z"
     id="path713" />
  <metadata
     id="metadata3">
    <rdf:RDF>
      <cc:Work>
        <dc:format>image/svg+xml</dc:format>
        <dc:type
           rdf:resource="http://purl.org/dc/dcmitype/StillImage" />
        <cc:license
           rdf:resource="http://creativecommons.org/publicdomain/zero/1.0/" />
        <dc:publisher>
          <cc:Agent
             rdf:about="http://openclipart.org/">
            <dc:title>Openclipart</dc:title>
          </cc:Agent>
        </dc:publisher>
        <dc:title></dc:title>
        <dc:date>2010-05-20T03:13:19</dc:date>
        <dc:description>originally uploaded by Nurbldoff from OCAL 0.18</dc:description>
        <dc:source>http://openclipart.org/detail/61327/elder-sign-nubldoff-01r-by-anonymous</dc:source>
        <dc:creator>
          <cc:Agent>
            <dc:title>Anonymous</dc:title>
          </cc:Agent>
        </dc:creator>
        <dc:subject>
          <rdf:Bag>
            <rdf:li>clip art</rdf:li>
            <rdf:li>clipart</rdf:li>
            <rdf:li>lovecraft</rdf:li>
            <rdf:li>pentagram</rdf:li>
            <rdf:li>religion</rdf:li>
            <rdf:li>symbol</rdf:li>
          </rdf:Bag>
        </dc:subject>
      </cc:Work>
      <cc:License
         rdf:about="http://creativecommons.org/publicdomain/zero/1.0/">
        <cc:permits
           rdf:resource="http://creativecommons.org/ns#Reproduction" />
        <cc:permits
           rdf:resource="http://creativecommons.org/ns#Distribution" />
        <cc:permits
           rdf:resource="http://creativecommons.org/ns#DerivativeWorks" />
      </cc:License>
    </rdf:RDF>
  </metadata>
</svg>
