<?xml version="1.0" encoding="UTF-8"?>
<svg enable-background="new 0 0 500 500" version="1.1" viewBox="0 0 500 500" xml:space="preserve" xmlns="http://www.w3.org/2000/svg">
		<path d="m347.38 176.24c7.736-0.526 11.35-19.593 11.623-24.876 0.563-10.892-2.305-22.689-4.359-33.314-3.65-18.891-11.619-39.576-29.58-49.794-4.736 9.651 4.027 20.397 9.338 27.814 5.852 8.174 2.662 15.092 2.258 25.212-0.432 10.753 0.633 22.996 4.469 33.11 0.997 2.628 6.278 21.845 6.251 21.848z"/>
		<path d="m290.87 353.32c-1.538-1.177-1.662-2.411-0.372-3.707-6.215 2.853-39.935 18.301-44.866 8.135-0.365-0.752 37.584-8.344 3.596-13.421-7.419-1.108-29.486-0.704-26.344-13.459 2.748-11.156 9.358-13.429 19.483-17.321 6.872-2.645 18.212-4.404 23.103-10.407 9.537-11.706 0.943-17.872-11.189-17.201-7.32-4.67-9.869-8.979-4.379-16.125h42.048c-4.657-10.341-25.224-12.457-34.856-11.861 2.186-6.566 15.135-11.264 15.445-17.045 0.252-4.694-1.8-8.9 2.131-12.833 4.461-4.462-2.687-6.821-6.081-7.375-3.581-0.583-6.073-2.775-9.556-3.585-5.646-1.314-10.703 1.861-15.905-2.04-9.506-7.128-6.861 10.122-17.411 7.24-0.397 8.921 1.509 15.82-3.303 23.788-3.016 4.994-3.346 10.213-3.543 15.943-0.284 8.275-7.41 3.306-7.191 7.768 1.77-0.488 5.307 0 6.971 0-0.081 2.334-1.044 18.235-5.531 16.557-6.236-2.339-11.825-8.633-15.678-13.812-7.983-10.732-4.667-23.367-3.338-35.729 1.469-13.663-2.836-18.713-12.793-28.178-11.478-10.912-11.104-12.259-1.66-24.207 5.295 7.317 11.827 12.816 20.595 15.568 9.591 3.011 14.611-2.648 20.954-9.114 9.74-9.932 21.96-18.317 22.722-33.285 1.554-30.525-53.165-21.209-67.181-8.54-2.685-9.501-6.849-9.616-1.085-18.739 2.396-3.792 5.008-7.454 7.802-10.963-14.545-3.896-18.458-15.279-12.358-28.757 3.567-7.883 9.53-9.042 16.774-13.579 6.073-3.804 12.619-10.136 19.528-12.162 11.106-3.257 21.907-7.667 32.729-11.749 4.879-1.841 11.273 0.691 15.913 2.805 9.101 4.145 19.722 5.861 29.423 8.035 7.074 1.586 13.303 4.459 20.365 5.936 2.256 0.473 12.204 3.525 13.207-0.218 1.154-4.311-1.23-10.381-3.824-13.753-13.859-18.015-45.501-26.819-67.277-29.442-30.731-3.7-56.305 10.58-76.063 33.271-6.3 7.235-15.461 17.291-18.828 26.159-3.827 10.084-3.546 20.442-3.665 31.06-0.221 19.915-4.833 51.482 9.381 67.756-3.159-3.472-15.049-17.199-20.513-11.74-6.833 6.825-2.874 23.923-1.51 32.068 1.866 11.148 3.643 25.856 10.748 35.095 3.23 4.198 21.248 16.113 25.317 8.426 3.397 18.8 10.74 36.047 13.682 54.946 1.98 12.727-1.048 27.258 6.621 37.862 7.265 10.045 15.944 17.757 26.952 23.474 10.542 5.476 27.37 15.577 39.911 13.232 14.463-2.703 28.931-15.946 40.258-24.776-2.824 2.039-6.428 2.347-9.359-1e-3 -1.768-1.416 4.706 3.77 0 0z"/>
		<path d="m323.74 145.86c-15.27-7.623-41.242-14.452-57.209-5.042-20.976 12.362 9.001 41.433 20.376 49.442-9.106-16.484 22.267-2.383 26.603-9.436-0.078 0.124-11.135-2.26-11.704-2.421 14.247 0.688 25.446-5.038 19.827-20.673 3.604 3.246 4.92 8.399 8.469 11.872 0.345-6.734 0.855-20.139-6.362-23.742z"/>
		<path d="m363.3 174.17c-6.875 2.5-13.365 14.774-16.469 20.787-1.852 3.591-4.229 20.131 1.041 22.077 6.055 2.236 16.682-9.213 14.465-15.128-2.041-5.448-9.826-13.287 0.242-15.809 0.959 3.583 1.92 7.167 2.881 10.75 1.914-3.213 8.201-26.444-2.16-22.677z"/>
		<path d="m182.7 342.36c-13.584 3.64-24.481 26.613-34.84 35.503-10.519 9.028-24.214 14.951-36.97 20.109 2.392 2.093 18.786 27.595 12.958 29.155 9.335 0 19.257 3.809 28.077 6.537 5.555 1.719 9.984 8.436 15.698 11.621 3.731 2.081 13.914 4.576 15.251 8.818 2.102 6.666 4.203 13.331 6.305 19.997-2.17-22.066-4.46-44.123-6.998-66.15-2.5-21.716-11.156-45.757 0.519-65.59z"/>
		<path d="m251.81 384.47c-5.307 4.415-32.944 24.296-19.033 28.803 14.964 4.848 3.09 35.741-4.967 44.087 9.088-7.853 19.564-15.326 31.94-16.198-0.599-5.79-0.984-11.726-0.443-17.532 0.734-7.879 7.617-10.537 12.764-15.942 3.467-3.642 12.221-9.354 7.116-13.922-6.867-6.145-17.964-11.819-27.377-9.296z"/>
</svg>
