<?xml version="1.0" encoding="UTF-8" standalone="no"?>
<svg
   xmlns:dc="http://purl.org/dc/elements/1.1/"
   xmlns:cc="http://creativecommons.org/ns#"
   xmlns:rdf="http://www.w3.org/1999/02/22-rdf-syntax-ns#"
   xmlns:svg="http://www.w3.org/2000/svg"
   xmlns="http://www.w3.org/2000/svg"
   xmlns:sodipodi="http://sodipodi.sourceforge.net/DTD/sodipodi-0.dtd"
   xmlns:inkscape="http://www.inkscape.org/namespaces/inkscape"
   enable-background="new 0 0 2681 771"
   version="1.1"
   viewBox="0 0 2681 771"
   xml:space="preserve"
   id="svg32"
   sodipodi:docname="ornament.svg"
   inkscape:version="0.92.1 r15371"><metadata
     id="metadata38"><rdf:RDF><cc:Work
         rdf:about=""><dc:format>image/svg+xml</dc:format><dc:type
           rdf:resource="http://purl.org/dc/dcmitype/StillImage" /></cc:Work></rdf:RDF></metadata><defs
     id="defs36" /><sodipodi:namedview
     pagecolor="#ffffff"
     bordercolor="#666666"
     borderopacity="1"
     objecttolerance="10"
     gridtolerance="10"
     guidetolerance="10"
     inkscape:pageopacity="0"
     inkscape:pageshadow="2"
     inkscape:window-width="1600"
     inkscape:window-height="837"
     id="namedview34"
     showgrid="false"
     inkscape:zoom="0.36924636"
     inkscape:cx="1456.5906"
     inkscape:cy="309.6185"
     inkscape:window-x="-8"
     inkscape:window-y="-8"
     inkscape:window-maximized="1"
     inkscape:current-layer="svg32" /><path
     d="m 1184.4,693.07688 c 66.78,-40.097 101.7,-105.74 130.56,-175.99 0.952,-2.018 1.323,-4.616 3.541,-5.692 6.38,39.752 -2.797,76.978 17.532,89.116 3.891,0.414 12.409,-11.289 14.391,-26.136 2.609,-21.097 -0.364,-55.91 4.264,-64.16 18.274,32.826 51.603,168.13 194.34,207.86 119.32,33.106 196.71,-25.806 218.35,-89.411 20.849,-59.648 -26.067,-111.01 -77.561,-88.878 -39.398,14.167 -35.284,79.235 10.175,69.109 4.235,-1.466 9.232,-3.084 11.412,-7.367 -6.605,-0.371 -13.201,2.208 -19.75,0.523 -25.659,-5.818 -17.815,-44.121 13.649,-50.55 32.199,-5.42 73.552,26.868 42.078,83.919 -52.806,93.749 -182.41,73.928 -251.42,34.036 -82.59,-47.418 -123.82,-148.09 -124.9,-161.27 23.511,14.429 64.655,80.944 185.26,64.798 5.197,-1.076 10.86,-2.008 14.781,-5.911 -7.186,1.77 -14.581,0.819 -21.872,0.999 -180.07,2.185 -193.93,-159.76 -211.8,-202.42 -44.353,213.97 -171.25,197.61 -229.2,206.28 133.46,24.102 176.77,-59 193.66,-61.923 -2.451,16.43 -60.659,174.82 -224.76,191.26 -42.167,1.313 -65.898,1.674 -92.923,-11.203 -25.536,-12.038 -54.394,-39.012 -65.35,-70.699 -22.495,-68.527 57.622,-88.521 77.285,-43.145 5.311,12.762 -5.578,24.731 -13.42,25.232 -7.843,0.485 -15.781,0.543 -23.471,-1.266 3.227,2.741 6.329,5.901 10.46,7.234 54.573,17.715 55.531,-69.11 -6.739,-71.984 -50.48,-0.394 -72.77,44.953 -58.24,89.582 8.785,28.801 28.42,53.376 52.177,71.432 64.311,48.839 165.09,34.769 227.52,-3.385 z"
     id="path2"
     inkscape:connector-curvature="0" /><path
     d="m 1067.8931,430.72741 c -15.152,1.114 -30.286,2.694 -45.448,3.56 8.761,-5.913 35.279,-17.976 41.565,-26.812 0.158,-5.877 -29.964,-4.779 -62.304,-17.465 -90.28693,-34.099 -75.97293,-124.55 -154.37993,-163.53 -121.39,-59.854 -132,129.79 -39.842,77.98 9.513,-10.867 19.945,-17.806 -0.562,-37.52 -0.657,4.511 0.01,9.185 -1.485,13.553 -3.971,13.586 -21.809,19.536 -33.465,8.005 -10.446,-12.272 -2.768,-42.951 23.033,-48.713 21.766,-3.859 44.255,17.079 56.098,38.138 21.416,37.948 21.658,74.157 38.681,105.97 9.601,17.995 23.497,30.41 26.384,37.71 -17.892,-2.586 -67.068,-37.195 -71.946,-38.614 -0.661,2.503 -0.011,74.14 54.319,106.41 63.75695,37.932 151.13993,11.894 169.34993,-58.677 z"
     id="path6"
     inkscape:connector-curvature="0" /><path
     d="m 1843.4644,407.73097 c 2.36,-9.984 2.075,-20.264 3.208,-30.4 -0.952,0.549 -59.958,38.989 -71.527,38.671 6.128,-10.951 25.402,-26.788 36.111,-61.476 11.697,-33.475 18.8,-97.533 66.159,-117.59 33.523,-13.945 49.956,20.25 46.39,37.976 -2.921,15.26 -28.99,22.88 -37.738,-0.571 -1.609,-4.216 -0.885,-8.795 -1.237,-13.201 -4.635,5.216 -10.222,10.394 -11.793,17.446 -3.371,13.137 30.376,38.658 55.185,25.346 37.993,-22.395 12.261,-113.85 -62.276,-91.771 -75.573,21.421 -85.958,92.719 -121.47,133.56 -44.484,51.954 -114.84,50.28 -120.07,54.166 11.184,9.175 23.5,16.828 36.149,23.785 2.17,1.152 4.283,2.513 5.692,4.588 -10.664,1.094 -35.38,-4.756 -41.374,-4.083 -0.247,1.875 -0.343,3.788 0.152,5.625 30.213,101.43 199.37,94.846 218.43,-22.071 z"
     id="path8"
     inkscape:connector-curvature="0" /><path
     d="m 892.4463,255.70058 c 33.783,-1.145 56.457,-23.387 64.836,-47.371 8.02,-22.511 -1.306,-41.591 -8.557,-54.576 -6.957,-12.1 -30.127,-25.47 -35.178,-24.623 -20.487,9.849 -28.936,29.338 -25.603,39.623 7.161,20.821 20.025,14.999 34.026,15.448 9.219,-0.121 2.236,20.226 -4.273,27.259 -12.489,15.272 -38.607,17.24 -56.803,10.108 -46.644,-19.039 -68.35,-85.627 -76.076,-92.904 -1.323,0.095 -3.255,-0.257 -3.674,1.428 -7.802,15.932 -4.271,13.109 -7.624,22.205 -5.61,-5.175 -47.705,-111.239999 -155.21,-63.207999 -2.494,1.056 -4.921,2.817 -4.93,5.796 21.435,4.276 84.544,-10.725 127.71,52.290999 4.816,7.015 9.775,14.039 13.049,21.939 -6.725,7.452 -30.305,8.181 -27.212,37.91 0.946,8.138 26.975,-0.628 58.611,9.718 46.741,14.413 71.455,40.708 106.9,38.957 z"
     id="path10"
     inkscape:connector-curvature="0" /><path
     d="m 1773.6644,255.96058 c 37.079,0.642 86.113,-41.027 133.19,-44.496 9.594,-0.628 19.207,-0.514 28.82,-0.533 -0.224,-13.32 2.339,-21.114 -9.289,-32.77 -3.293,-3.341 -8.233,-3.664 -12.135,-5.939 -9.42,-5.021 31.445,-70.73 91.048,-74.181999 16.761,-1.494 33.589,-2.132 50.397,-2.608 -0.99,-1.323 -2.294,-2.332 -3.836,-2.874 -12.466,-4.921 -27.22,-17.023 -66.987,-14.42 -63.927,5.355 -79.971,58.186999 -93.551,71.631999 -3.663,-9.287 -1.783,-11.869 -10.365,-21.615 -0.552,0.067 -1.656,0.219 -2.208,0.295 -19.541,37.345 -48.095,101.12 -100.23,97.282 -21.186,-1.169 -37.28,-13.065 -40.223,-34.807 -0.648,-7.54 4.52,-4.327 14.496,-4.873 6.282,-0.247 13.344,-0.809 17.998,-5.597 17.603,-18.102 -6.472,-66.026 -40.289,-41.165 -56.568,47.503 -11.82,117.18 43.164,116.67 z"
     id="path12"
     inkscape:connector-curvature="0" /><path
     d="m 709.33,400.42988 c 4.326,-1.318 14.336,-11.206 24.889,-7.681 6.091,2.046 11.031,6.786 17.541,7.776 1.017,-13.866 -20.904,-40.786 -35.226,-39.29 -1.704,9.746 -1.961,19.702 -4.169,29.363 -0.731,3.37 -2.311,6.473 -3.035,9.832 z"
     id="path14"
     inkscape:connector-curvature="0" /><path
     d="m 1930,400.19988 c 8.367,0.948 13.241,-9.539 23.566,-7.748 6.482,1.723 12.135,5.577 18.493,7.69 -1.418,-4.055 -3.893,-7.738 -4.397,-12.097 -1.932,-8.775 -0.247,-17.96 -2.874,-26.612 -12.274,-2.216 -37.788,20.412 -34.788,38.767 z"
     id="path16"
     inkscape:connector-curvature="0" /><path
     d="m 1247.3,353.71988 c -7.731,-11.073 -31.203,-36.326 -66.33,-111.63 -55.199,-117.25 -72.841,-142.92 -127.67,-175.09 -56.355,-32.987 -151.47,-39.517 -191.64,34.912 -46.707,92.736 25.986,150.11 76.333,119.18 29.985,-18.894 17.483,-83.482 -15.638,-67.996 -4.14,1.923 -9.147,3.217 -11.393,7.605 5.394,0.221 23.028,-4.745 27.392,10.679 3.597,11.633 -1.552,34.474 -21.368,37.948 -25.176,2.398 -68.635,-26.47 -45.191,-82.996 41.706,-95.416 157.12,-61.866 196.11,-22.081 -1.242,-0.18 -48.168,-16.521 -67.101,-12.278 0.01,4.978 5.834,5.635 9.489,6.805 47.208,15.533 90.427,40.804 149.09,142.01 35.926,62.364 38.914,80.757 87.928,112.93 z"
     id="path20"
     inkscape:connector-curvature="0" /><path
     d="m 1431.1,348.80988 c 66.17,-24.282 90.047,-196.32 216.32,-244.63 19.944,-7.828 21.996,-6.629 25.003,-11.402 -11.301,-6.498 -59.5,9.244 -67.491,9.803 5.922,-6.866 35.35,-21.716 43.592,-25.613 17.76,-9.013 37.948,-12.135 57.707,-12.002 78.963,-3.89 106.76,73.591 101.2,101.16 -2.509,18.475 -20.271,35.515 -32.875,40.622 -40.571,13.809 -55.341,-40.564 -26.06,-47.704 4.321,-1.218 9.385,0.143 13.011,-3.112 -11.608,-2.573 -23.653,-11.541 -35.74,2.97 -9.278,12.195 -13.324,40.214 3.169,56.708 21.726,22.49 64.082,17.813 84.957,-13.373 26.464,-37.07 10.705,-118.64 -54.937,-148.99 -68.881,-28.865 -159.6,8.544 -202.09,68.139 -58.239,81.868 -38.732,89.896 -120.85,218 -1.884,3.007 -4.054,5.929 -4.921,9.432 z"
     id="path22"
     inkscape:connector-curvature="0" /><path
     d="m 336.51,305.32988 c 23.728,-20.818 24.225,-25.247 55.042,-18.293 39.499,10.327 80.179,17.265 121.12,16.761 50.596,0.515 93.483,-12.061 117.78,-60.01 42.053,-86.15 -30.499,-152.55 -114.28,-128.35 -16.771,5.282 -32.237,13.906 -47.085,23.186 -89.799,54.202 -54.507,16.255 -91.495,1.323 -30.626,-0.76 -39.07,56.244 31.276,47.704 29.436,-5.715 36.868,-13.859 50.978,-18.788 2.639,10.725 -6.623,49.302 40.327,61.2 14.767,3.656 44.807,-7.503 52.148,-33.95 1.199,-4.702 3.293,-9.632 1.78,-14.515 -7.067,-18.835 -23.029,-19.621 -29.629,-13.277 -11.26,12.322 -2.03,18.541 -5.33,31.742 -5.273,1.199 -10.622,2.275 -16.019,2.684 -15.073,0.034 -26.6,-23.653 -7.89,-47.542 36.817,-46.64 115.76,-16.199 115.45,36.482 0.156,28.439 -0.206,44.077 -24.509,62.085 -15.123,10.17 -38.016,16.183 -50.578,16.799 -164.53,10.628 -212.69,-76.127 -319.62,-130.4 -56.673,-29.318 -101.25,-29.486 -117.3,-21.653 -54.879,26.826 -49.036,102.14 7.548,100.33 42.199,-1.784 38.105,-38.586 27.202,-46.657 -6.006,-4.483 -13.201,-9.28 -21.082,-7.586 -24.515,8.989 -13.959,19.937 -20.368,26.898 -6.66,-4.888 -13.114,-22.406 -3.036,-33.246 16.557,-20.141 49.502,-22.269 73.983,-16.504 38.772,10.674 148.85,80.08 151.77,91.724 -0.181,0.276 -0.552,0.838 -0.733,1.114 -10.99,3.515 -59.954,-1.138 -65.416,41.745 6.567,-2.218 12.497,-6.034 19.226,-7.833 22.044,-6.101 16.448,-5.123 53.595,-5.387 33.315,1.469 11.348,11.561 14.401,33.322 0.607,2.93 0.769,5.919 0.74,8.898 z"
     id="path24"
     inkscape:connector-curvature="0" /><path
     d="m 2311.6,284.02988 c 12.9,-0.024 23.227,12.616 34.226,21.215 -3.416,-37.909 -6.785,-37.041 -0.352,-39.652 6.415,-2.589 13.439,-2.989 20.273,-3.398 37.399,-0.851 51.573,8.93 66.892,11.441 -2.075,-12.687 -10.965,-23.795 -22.491,-29.315 -25.67,-11.811 -35.028,-4.546 -46.723,-9.746 3.734,-9.609 124.09,-86.709 157.28,-93.589 35.969,-9.044 74.475,8.88 75.515,27.821 0.79,7.376 0.124,16.523 -6.568,21.101 -3.388,-3.702 -2.265,-9.27 -5.13,-13.268 -6.463,-9.841 -20.645,-14.924 -31.304,-8.842 -12.84,7.462 -16.057,26.25 -7.49,38.091 11.722,18.063 66.275,24.313 74.278,-21.767 4.775,-39.598 -27.019,-68.189 -56.555,-70.223 -87.702,-6.726 -192.87,96.46 -269.4,133.57 -75.876,34.841 -216.23,42.52 -223.8,-34.103 -6.533,-53.947 29.777,-85.335 79.589,-80.455 14.267,1.485 26.288,10.908 34.93,21.844 18.632,22.583 13.667,57.451 -21.053,45.772 -6.961,-2.738 2.244,-18.287 -2.303,-27.116 -5.511,-6.653 -15.39,-11.117 -23.757,-7.281 -23.823,11.36 -7.193,63.665 38.747,64.408 13.62,-0.257 26.307,-8.043 34.141,-18.96 12.343,-17.082 9.088,-29.826 11.107,-42.754 14.754,6.162 35.806,22.489 75.62,19.264 57.859,-9.585 14.944,-75.019 -10.203,-35.083 -2.989,4.378 -4.607,9.632 -8.205,13.573 -5.581,6.258 -34.431,-8.709 -41.65,-12.821 -11.918,-6.396 -114.43,-84.82 -177.39,-14.838 -31.826,33.704 -25.404,91.458 5.073,127.11 62.84,74.892 223.39,17.794 246.71,17.996 z"
     id="path26"
     inkscape:connector-curvature="0" /><path
     d="m 700.56,291.17988 c 7.153,1.96 21.557,-7.152 25.175,-13.02 6.451,-11.804 -2.591,-36.51 -21.358,-16.599 -2.675,2.551 -6.415,5.492 -10.308,3.883 -39.088,-21.704 -32.782,-100.94 -17.542,-117.6 4.264,0.048 7.7,2.932 11.326,4.787 22.632,3.251 22.83,-44.252 -4.169,-36.32 -13.959,4.59 -17.554,9.53 -25.66,21.834 -16.033,25.001 -26.748,134.76 42.536,153.04 z"
     id="path28"
     inkscape:connector-curvature="0" /><path
     d="m 1975.5,289.93988 c 57.566,2.395 74.495,-106.23 46.228,-153.04 -27.139,-38.423 -50.828,-15.027 -45.791,0.371 1.742,5.911 5.225,12.126 11.117,14.648 6.434,0.923 12.354,-2.77 18.579,-3.845 10.802,14.654 12.909,61.974 7.157,78.151 -6.021,18.486 -21.075,49.24 -34.95,35.54 -3.407,-3.788 -8.081,-6.034 -12.221,-8.899 -10.715,-7.589 -23.377,35.71 9.881,37.072 z"
     id="path30"
     inkscape:connector-curvature="0" /><g
     style="display:inline;opacity:1"
     inkscape:label="Layer 2"
     id="layer2"
     transform="translate(938.18522,-33.90817)"><path
       sodipodi:nodetypes="csscscsccsssccssscsssscssssccscsssssssssccccccsssssscscsscscsccsssccssscsssscssssccscsssssssssccccccsssssscs"
       inkscape:connector-curvature="0"
       d="m 396.56723,43.917969 c 0,0 190.01737,-9.413416 305.04103,179.810561 101.48806,166.95671 20.6054,324.18655 -9.32032,369.49217 -46.68805,70.6827 -139.83203,122.88086 -139.83203,122.88086 0,0 72.49854,-142.79455 114.375,-285.71679 33.91742,-115.75847 -37.25586,-256.65624 -37.25586,-256.65624 0,0 77.9657,161.86515 -1.69531,294.916 -53.60445,89.53083 -66.10055,112.20623 -68.57227,117.51758 0.62175,-11.09077 3.80774,-102.62798 -57.16015,-144.59375 0,0 46.26392,-38.77533 43.9414,-102.43945 C 545.40583,320.40953 711.25881,197.47083 488.8231,82.425781 467.98304,71.647182 340.4986,22.999403 549.9149,171.91407 c 98.07411,69.7399 11.0218,111.44426 -18.53516,153.77734 l 14.70898,13.4375 c 0,0 -0.86151,25.52129 -5.95507,20.42773 -5.09357,-5.09357 -2.99561,-4.79358 -14.98047,0.59961 -11.98486,5.39319 11.75019,-5.35932 -7.19141,42.8457 -22.40472,57.0184 -32.40964,17.05175 -33.11914,14.02344 0.94162,5.03353 -6.35506,17.57655 11.54687,37.21094 18.57653,20.37426 8.08943,23.97028 8.98829,44.04492 0.89887,20.07464 -19.17548,73.40759 21.27343,50.03711 40.4489,-23.37047 1.19714,38.65075 -24.57031,20.07422 -25.76746,-18.57654 -18.57617,-63.51953 -18.57617,-63.51953 0,0 -15.58087,-82.09703 -15.28125,-10.78711 0.29963,71.30992 14.38348,87.48901 45.84375,88.6875 14.08474,0.53656 69.21179,4.79529 67.41406,34.1582 -1.79773,29.36291 -6.89093,36.55401 -8.98828,24.26953 -2.09735,-12.28449 -9.88894,-36.25445 -23.07226,-41.94726 -13.18336,-5.69281 -18.87458,-3.89503 -29.36133,-1.49805 -10.48676,2.39697 -27.86622,5.39356 -51.83594,-18.57617 -23.96972,-23.96972 -20.67383,-80.59961 -20.67383,-80.59961 0,0 -10.78597,27.86554 -10.48634,49.13867 0.29962,21.27313 5.3929,15.28041 36.25392,55.42969 30.86102,40.14929 -8.68854,81.19714 -2.39648,93.78125 6.29205,12.5841 21.57324,1.49781 35.95507,17.07812 14.38183,15.58032 -4.49475,56.03033 -8.68945,40.15039 -4.19471,-15.87994 3.89441,-27.26569 -2.69727,-35.35547 -6.59167,-8.08978 -35.95386,-4.79462 -46.74023,-31.46093 C 437.9625,660.67548 475.11497,659.77807 463.72935,622.625 452.34373,585.47193 435.5665,602.84924 424.78012,583.07422 413.99375,563.2992 406.50278,544.12305 406.50278,544.12305 L 396.35825,498.41211 Z M 559.30747,586.16211 c -0.0407,0.72593 -0.0723,1.12695 -0.0723,1.12695 0,0 -1.12925,1.45484 0.0723,-1.12695 z M 475.42271,315.50195 c -8.41416,-0.24828 -20.05284,3.40599 -36.10156,13.73438 -42.79662,27.54237 22.03383,3.81419 -16.94923,36.01758 -38.98305,32.20339 -0.42361,5.08418 8.89843,5.93164 9.32204,0.84746 40.25465,21.18733 51.69533,3.81445 11.44068,-17.37288 -17.37318,-49.57654 -1.27149,-42.79688 16.1017,6.77966 14.40625,4.23829 14.40625,4.23829 -1.58898,-9.26907 -6.65413,-20.52566 -20.67773,-20.93946 z M 396.56723,43.917969 c 0,0 -190.01736,-9.413413 -305.041017,179.810551 -101.4880642,166.95672 -20.605403,324.18656 9.320317,369.49218 46.68804,70.6827 139.83203,122.88086 139.83203,122.88086 0,0 -72.49854,-142.79455 -114.375,-285.71679 -33.917417,-115.75847 37.25586,-256.65625 37.25586,-256.65625 0,0 -77.965698,161.86516 1.69531,294.91601 53.60445,89.53083 66.10055,112.20623 68.57227,117.51758 -0.62175,-11.09077 -3.80774,-102.62798 57.16015,-144.59375 0,0 -46.26392,-38.77533 -43.9414,-102.43945 0.68289,-18.71938 -165.17009,-141.65809 57.26562,-256.703129 20.84006,-10.778599 148.32449,-59.426379 -61.0918,89.488279 -98.07412,69.73991 -11.0218,111.44427 18.53516,153.77735 l -14.70898,13.4375 c 0,0 0.86151,25.52129 5.95507,20.42773 5.09357,-5.09357 2.99561,-4.79358 14.98047,0.59961 11.98486,5.39319 -11.75019,-5.35932 7.19141,42.8457 22.40472,57.0184 32.40964,17.05175 33.11914,14.02344 -0.94162,5.03353 6.35506,17.57655 -11.54687,37.21094 -18.57653,20.37426 -8.08943,23.97028 -8.98829,44.04492 -0.89887,20.07464 19.17548,73.40759 -21.27343,50.03711 -40.4489,-23.37047 -1.19714,38.65075 24.57031,20.07422 25.76746,-18.57654 18.57617,-63.51953 18.57617,-63.51953 0,0 15.58087,-82.09703 15.28125,-10.78711 -0.29963,71.30992 -14.38348,87.48901 -45.84375,88.6875 -14.08474,0.53656 -69.21179,4.79529 -67.41406,34.1582 1.79773,29.36291 6.89093,36.55401 8.98828,24.26953 2.09735,-12.28449 9.88894,-36.25445 23.07226,-41.94726 13.18336,-5.69281 18.87458,-3.89503 29.36133,-1.49805 10.48676,2.39697 27.86622,5.39356 51.83594,-18.57617 23.96972,-23.96972 20.67383,-80.59961 20.67383,-80.59961 0,0 10.78596,27.86554 10.48633,49.13867 -0.29962,21.27313 -5.39289,15.28041 -36.25391,55.42969 -30.86102,40.14929 8.68854,81.19714 2.39648,93.78125 -6.29205,12.5841 -21.57324,1.49781 -35.95507,17.07812 -14.38183,15.58032 4.49475,56.03033 8.68945,40.15039 4.19471,-15.87994 -3.89441,-27.26569 2.69727,-35.35547 6.59167,-8.08978 35.95386,-4.79462 46.74023,-31.46093 10.78638,-26.66632 -26.36609,-27.56373 -14.98047,-64.7168 11.38562,-37.15307 28.16284,-19.77576 38.94922,-39.55078 10.78637,-19.77502 18.27734,-38.95117 18.27734,-38.95117 l 10.14453,-45.71094 z M 233.827,586.16211 c 0.0407,0.72593 0.0723,1.12695 0.0723,1.12695 0,0 1.12925,1.45484 -0.0723,-1.12695 z m 83.88476,-270.66016 c 8.41416,-0.24828 20.05284,3.40599 36.10156,13.73438 42.79661,27.54237 -22.03383,3.81419 16.94922,36.01758 38.98305,32.20339 0.42361,5.08418 -8.89843,5.93164 -9.32203,0.84746 -40.25464,21.18733 -51.69532,3.81445 -11.44068,-17.37288 17.37318,-49.57654 1.27149,-42.79688 -16.1017,6.77966 -14.40625,4.23829 -14.40625,4.23829 1.58898,-9.26907 6.65413,-20.52566 20.67773,-20.93946 z"
       style="display:inline;opacity:1;fill:#000000;fill-opacity:1;stroke:#000000;stroke-width:1px;stroke-linecap:butt;stroke-linejoin:miter;stroke-opacity:1"
       id="path4495-8" /></g></svg>