<?xml version="1.0" encoding="UTF-8" standalone="no"?>
<svg
   xmlns:dc="http://purl.org/dc/elements/1.1/"
   xmlns:cc="http://creativecommons.org/ns#"
   xmlns:rdf="http://www.w3.org/1999/02/22-rdf-syntax-ns#"
   xmlns:svg="http://www.w3.org/2000/svg"
   xmlns="http://www.w3.org/2000/svg"
   xmlns:sodipodi="http://sodipodi.sourceforge.net/DTD/sodipodi-0.dtd"
   xmlns:inkscape="http://www.inkscape.org/namespaces/inkscape"
   viewBox="0 0 105.71429 246.57143"
   version="1.1"
   id="svg41"
   sodipodi:docname="paperclip.svg"
   inkscape:version="0.92.1 r15371">
  <metadata
     id="metadata45">
    <rdf:RDF>
      <cc:Work
         rdf:about="">
        <dc:format>image/svg+xml</dc:format>
        <dc:type
           rdf:resource="http://purl.org/dc/dcmitype/StillImage" />
      </cc:Work>
    </rdf:RDF>
  </metadata>
  <sodipodi:namedview
     pagecolor="#ffffff"
     bordercolor="#666666"
     borderopacity="1"
     objecttolerance="10"
     gridtolerance="10"
     guidetolerance="10"
     inkscape:pageopacity="0"
     inkscape:pageshadow="2"
     inkscape:window-width="1600"
     inkscape:window-height="837"
     id="namedview43"
     showgrid="false"
     inkscape:zoom="1.9142526"
     inkscape:cx="166.99643"
     inkscape:cy="132.29295"
     inkscape:window-x="-8"
     inkscape:window-y="-8"
     inkscape:window-maximized="1"
     inkscape:current-layer="svg41" />
  <defs
     id="defs19">
    <filter
       id="e">
      <feGaussianBlur
         stdDeviation=".9661"
         id="feGaussianBlur2" />
    </filter>
    <filter
       id="d">
      <feGaussianBlur
         stdDeviation=".49166"
         id="feGaussianBlur5" />
    </filter>
    <filter
       id="c">
      <feGaussianBlur
         stdDeviation="1.44914"
         id="feGaussianBlur8" />
    </filter>
    <filter
       id="b">
      <feGaussianBlur
         stdDeviation="1.51153"
         id="feGaussianBlur11" />
    </filter>
    <linearGradient
       id="a"
       x1="-20.357"
       x2="88.143"
       y1="553.58"
       y2="823.08"
       gradientUnits="userSpaceOnUse"
       gradientTransform="translate(-45.375002,-574.15921)">
      <stop
         stop-color="#207a87"
         offset="0"
         id="stop14" />
      <stop
         stop-color="#72cccf"
         offset="1"
         id="stop16" />
    </linearGradient>
  </defs>
  <path
     style="fill:#babdb6"
     inkscape:connector-curvature="0"
     id="path25"
     d="m 53.73214,19.52 c -5.7268,-0.2975 -11.627,1.1813 -16.344,4.7812 -4.717,3.5999 -8.1254,9.3553 -8.9062,16.969 l -0.03125,0.15625 v 159.59 l 0.03125,0.15625 c 2.0915,18.443 15.14,28.406 28.312,28.406 13.172,0 26.281,-9.9671 28.562,-28.406 l 0.03125,-0.15625 v -0.1875 l -1.0625,-103.59 -5.5,0.0625 1.0625,103.38 c -2.0568,16.087 -12.642,23.406 -23.094,23.406 -10.488,0 -21.007,-7.3316 -22.844,-23.531 v -158.72 c 0.6477,-6.3151 3.2504,-10.462 6.7812,-13.156 3.5308,-2.694 8.1331,-3.8945 12.719,-3.6562 4.5859,0.2383 9.0864,1.95 12.375,4.7812 3.2747,2.8192 5.4054,6.6589 5.5,11.75 4e-4,0.0217 -3.3e-4,0.0407 0,0.0625 l -0.375,114.53 c -3.2012,11.056 -9.5063,15.119 -15.25,14.906 -5.7696,-0.21369 -11.726,-4.9096 -13.875,-14.219 l -0.71875,-63.156 -5.5,0.0625 0.71875,63.562 v 0.3125 l 0.0625,0.28125 c 2.5295,11.285 10.436,18.336 19.094,18.656 8.658,0.32 17.256,-6.2974 20.875,-19.25 l 0.09375,-0.34375 v -0.375 l 0.375,-115 v -0.0624 c -0.10094,-6.6623 -3.0721,-12.175 -7.4062,-15.906 -4.3341,-3.731 -9.9607,-5.7962 -15.688,-6.0938 z" />
  <path
     style="fill:none;stroke:#000000;filter:url(#e)"
     inkscape:connector-curvature="0"
     id="path27"
     d="m 39.42714,93.28 0.71429,63.571 c 4.6428,20.714 27.857,23.571 34.643,-0.71428 l 0.35714,-115 c -0.35714,-23.571 -40,-27.857 -42.857,0 v 159.29 c 3.9286,34.643 47.143,34.643 51.429,0 l -1.0714,-103.57" />
  <path
     style="fill:#555753;filter:url(#d)"
     inkscape:connector-curvature="0"
     id="path29"
     d="m 52.31514,23.14 c -4.0012,0.10689 -7.9105,1.2984 -11,3.6562 -3.5308,2.6947 -6.1336,6.8412 -6.7812,13.156 v 2 c 0.6477,-6.3151 3.2504,-10.462 6.7812,-13.156 3.5308,-2.694 8.1331,-3.8945 12.719,-3.6562 4.5859,0.2383 9.0864,1.95 12.375,4.7812 1.2168,1.0476 2.2698,2.2525 3.125,3.5938 -0.94131,-2.5569 -2.5188,-4.6738 -4.5312,-6.4062 -0.65606,-0.56481 -1.3814,-1.0584 -2.125,-1.5312 -2.6813,-1.4081 -5.732,-2.2758 -8.8438,-2.4375 -0.57321,-0.0298 -1.1472,-0.0153 -1.7188,0 z m 22.125,7.9062 c 0.94266,2.3298 1.5086,4.9095 1.5625,7.6875 v -1.9062 c -0.0177,-1.1661 -0.15598,-2.2825 -0.34375,-3.375 -0.004,-0.009 0.004,-0.0225 0,-0.0312 -0.35808,-0.82298 -0.76811,-1.6166 -1.2188,-2.375 z m -34.125,62.75 0.6875,60.344 c 0.63164,2.7358 1.5934,5.0577 2.7812,7 -0.53831,-1.2772 -1.0232,-2.6637 -1.375,-4.1875 v -0.53125 c -0.5553,-1.2968 -1.0462,-2.7218 -1.4062,-4.2812 l -0.65625,-58.344 h -0.0312 z m 43.219,3.5938 1,99.031 0.0312,-0.0937 v -0.1875 l -1,-98.75 h -0.0312 z m -6.5,57.688 -0.0937,0.34375 c -3.6191,12.953 -12.217,19.571 -20.875,19.25 -3.1641,-0.11719 -6.2357,-1.1131 -8.9688,-2.9062 l -0.0625,-0.0312 c -3.3123,-1.8078 -6.2109,-4.7121 -8.375,-8.5 3.4874,8.2058 10.174,13.17 17.406,13.438 8.6576,0.32065 17.256,-6.2974 20.875,-19.25 l 0.0937,-0.34375 v -2 z m -43.906,40.781 v 2 c 0.56193,4.9552 1.9378,9.0665 3.875,12.406 -0.76082,-1.7653 -1.3817,-3.7221 -1.8438,-5.8438 -0.96985,-2.5108 -1.6693,-5.3707 -2.0312,-8.5625 z m 52.812,3.4375 c -2.2811,18.439 -15.39,28.406 -28.562,28.406 -4.9698,0 -9.93,-1.4008 -14.281,-4.1562 -4.4223,-2.4478 -8.3161,-6.2193 -11.125,-11.219 4.9987,11.354 15.162,17.375 25.406,17.375 13.172,0 26.281,-9.9671 28.562,-28.406 l 0.0312,-0.15625 v -0.1875 l -0.0312,-1.6562 z" />
  <path
     style="fill:#ffffff"
     inkscape:connector-curvature="0"
     id="path31"
     d="m 52.20114,20.27 c -5.0303,0.13297 -10.06,1.6313 -14.188,4.7812 -4.7169,3.5999 -8.1254,9.3553 -8.9062,16.969 l -0.0312,0.15625 v 159.59 l 0.0312,0.15625 c 1.0269,9.0554 4.6912,16.084 9.7188,20.875 -4.5089,-4.7462 -7.7615,-11.434 -8.7188,-19.875 l -0.0312,-0.15625 v -159.59 l 0.0312,-0.15625 c 0.78087,-7.6135 4.1893,-13.369 8.9062,-16.969 4.7169,-3.6 10.617,-5.0788 16.344,-4.7812 5.727,0.2976 11.353,2.3625 15.688,6.0938 0.18434,0.1587 0.38321,0.3349 0.5625,0.5 -0.49623,-0.52085 -1.0207,-1.0336 -1.5625,-1.5 -4.3341,-3.7313 -9.9607,-5.7962 -15.688,-6.0938 -0.71585,-0.0372 -1.4376,-0.019 -2.1562,0 z m 15.75,11.75 c 2.4168,2.6454 3.9207,6.012 4,10.281 4.1e-4,0.0217 -3.3e-4,0.0407 0,0.0625 l -0.375,114.53 c -3.2012,11.056 -9.5063,15.119 -15.25,14.906 -2.7898,-0.10333 -5.6057,-1.2546 -8.0312,-3.4688 2.6266,2.8706 5.847,4.3508 9.0312,4.4688 5.7437,0.21273 12.049,-3.8505 15.25,-14.906 l 0.375,-114.53 c -3.3e-4,-0.0218 4.1e-4,-0.0408 0,-0.0625 -0.0896,-4.8245 -2.0127,-8.5078 -5,-11.281 z m -31.719,62.469 0.71875,63.562 v 0.3125 l 0.0625,0.28125 c 1.2951,5.7782 4.0065,10.465 7.5,13.688 -3.0052,-3.1594 -5.3321,-7.4768 -6.5,-12.688 l -0.0625,-0.28125 V 159.051 L 37.23214,95.489 Z m 43.219,3.5625 1.0625,103.38 c -2.0568,16.087 -12.642,23.406 -23.094,23.406 -5.2441,0 -10.486,-1.8296 -14.656,-5.6875 4.3125,4.5354 9.9818,6.6875 15.656,6.6875 10.452,0 21.037,-7.3192 23.094,-23.406 l -1.0625,-103.38 z" />
  <path
     style="fill:none;stroke:#000000;filter:url(#c)"
     inkscape:connector-curvature="0"
     id="path33"
     d="m 39.36614,93.28 0.71429,63.571 c 4.6428,20.714 27.857,23.571 34.643,-0.71428 l 0.35715,-115 c -0.35715,-23.571 -40,-27.857 -42.857,0 v 159.29 c 3.9286,34.643 47.143,34.643 51.429,0 l -1.0714,-103.57" />
  <path
     style="fill:#eaeaea;fill-rule:evenodd;stroke-width:1.25035238"
     inkscape:connector-curvature="0"
     id="path35"
     d="m 41.07784,94.32928 c 0,1.046646 -1.213325,1.89515 -2.71005,1.89515 -1.496725,0 -2.71005,-0.848483 -2.71005,-1.89515 0,-1.046667 1.213325,-1.89515 2.71005,-1.89515 1.496725,0 2.71005,0.848494 2.71005,1.89515 z" />
  <path
     style="fill:#efefef;fill-rule:evenodd;stroke-width:1.25035238"
     inkscape:connector-curvature="0"
     id="path37"
     d="m 84.37084,97.62228 c 0,1.046646 -1.213325,1.89515 -2.71005,1.89515 -1.496725,0 -2.71005,-0.848483 -2.71005,-1.89515 0,-1.046667 1.213325,-1.89515 2.71005,-1.89515 1.496725,0 2.71005,0.848494 2.71005,1.89515 z" />
</svg>
