<?xml version="1.0" encoding="UTF-8" standalone="no"?>
<svg
   xmlns:dc="http://purl.org/dc/elements/1.1/"
   xmlns:cc="http://creativecommons.org/ns#"
   xmlns:rdf="http://www.w3.org/1999/02/22-rdf-syntax-ns#"
   xmlns:svg="http://www.w3.org/2000/svg"
   xmlns="http://www.w3.org/2000/svg"
   height="512"
   width="512"
   id="svg4"
   version="1.1"
   viewBox="0 0 512 512">
  <metadata
     id="metadata10">
    <rdf:RDF>
      <cc:Work
         rdf:about="">
        <dc:format>image/svg+xml</dc:format>
        <dc:type
           rdf:resource="http://purl.org/dc/dcmitype/StillImage" />
        <dc:title></dc:title>
      </cc:Work>
    </rdf:RDF>
  </metadata>
  <defs
     id="defs8" />
  <path
     style="stroke-width:2.48829699"
     id="path2"
     d="M 255.04772,482.71416 250.38217,468.09542 201.08401,314.05492 37.555638,311.33322 22.39246,311.02218 34.756311,302.2355 167.10384,207.99126 117.64895,53.562593 l -4.74319,-14.77426 12.44148,9.25349 130.32454,96.889287 131.02375,-93.311127 12.28596,-8.70903 -4.66556,14.38533 -50.1541,153.341297 133.12389,98.98693 12.44147,9.25347 -15.47422,-0.23315 -164.53863,-2.7217 -49.84308,152.2539 -4.82106,14.54111 z m 0.14357,-32.26997 44.01301,-134.7562 -87.63533,-1.47744 43.62232,136.23426 z m 203.82685,-141.98731 -118.11697,-87.78961 -27.99333,85.3013 z m -156.52879,-2.64383 29.93669,-91.44489 -76.82615,-57.15369 -76.74904,54.66537 29.54853,92.37802 94.08748,1.55519 z M 197.90374,304.02459 170.29859,217.94446 52.803689,301.61343 197.90126,304.02397 Z M 335.69317,204.41558 380.17149,68.569513 264.0775,151.15111 Z M 175.58622,201.92729 247.20187,150.99435 131.88425,65.302373 175.58373,201.92479 Z" />
  <circle
     style="fill:none;stroke:#000000;stroke-width:9.82586575;stroke-miterlimit:4;stroke-dasharray:none;stroke-opacity:1"
     r="159.36163"
     cy="237.42375"
     cx="255.08475"
     id="path44" />
</svg>
