<?xml version="1.0" encoding="UTF-8" standalone="no"?>
<svg
   xmlns:dc="http://purl.org/dc/elements/1.1/"
   xmlns:cc="http://creativecommons.org/ns#"
   xmlns:rdf="http://www.w3.org/1999/02/22-rdf-syntax-ns#"
   xmlns:svg="http://www.w3.org/2000/svg"
   xmlns="http://www.w3.org/2000/svg"
   width="512mm"
   height="512mm"
   viewBox="0 0 512 512"
   version="1.1"
   id="svg4579">
  <defs
     id="defs4573" />
  <metadata
     id="metadata4576">
    <rdf:RDF>
      <cc:Work
         rdf:about="">
        <dc:format>image/svg+xml</dc:format>
        <dc:type
           rdf:resource="http://purl.org/dc/dcmitype/StillImage" />
        <dc:title></dc:title>
      </cc:Work>
    </rdf:RDF>
  </metadata>
  <path
     id="path826"
     transform="scale(0.26458333)"
     d="m 965.1357,245.0374 c -219.09691,6.90877 -429.19746,58.17521 -432.15914,175.19502 0,100.44575 30.48438,59.44227 30.48438,113.76758 0,54.32534 -24.09766,20.99637 -24.09766,89.93359 0,68.93723 -20.15554,97.57402 0,132.48438 20.1555,34.91036 0,6.15018 0,28.69922 0,22.54904 -118.28003,518.54651 -100.68164,584.22461 17.59835,65.678 147.59375,110.6953 147.59375,110.6953 0,0 -63.59436,113.5719 -37.08203,141.7441 7.32272,7.7814 329.88917,59.4043 400.26367,59.4043 17.59363,0 55.93147,2.5835 88.79497,-25.7597 15.5889,-13.4447 55.8991,-16.3165 113.9707,-4.8613 74.4428,14.6845 132.3494,-17.1346 165.7324,-27.5372 34.3595,-10.7068 57.0246,-20.507 57.5371,-30.2441 2.0499,-38.9484 -51.2481,-111.7207 -51.2481,-111.7207 0,0 141.4434,-68.6189 141.4434,-107.6211 0,-156.8184 -93.2715,-503.2539 -93.2715,-503.2539 0,0 15.3761,-25.62282 13.3262,-48.17188 -2.05,-22.54903 -19.4757,-33.824 -17.4258,-56.37304 2.0499,-22.54904 21.5248,-23.57489 15.375,-48.17383 -6.1497,-24.59898 -4.0994,-137.34377 -26.6484,-155.79297 -22.5491,-18.44923 -16.4006,-8.1994 -12.3008,-22.54883 4.0999,-14.34935 38.4601,-70.18705 32.7988,-98.39648 -10.9957,-54.78993 -46.835,-178.32031 -412.4053,-195.69307 z m -1.93843,46.33955 c 0,0 2.5379,8.10813 12.83156,21.1537 274.10407,23.91688 346.63527,59.29406 346.63527,130.88537 0,71.59128 -28.9786,64.66128 -28.9786,108.14648 0,43.48524 36.9629,72.47656 36.9629,72.47656 l -4.3496,97.11719 c 0,0 -72.505,-15.57805 -131.1797,-23.91797 -0.2522,-77.01201 -63.7793,-65.22656 -63.7793,-65.22656 l -1.4492,-33.33984 c 0,0 55.6426,-2.12327 121.0213,-2.12327 -62.2505,-34.80188 -134.0396,-42.89727 -202.9724,-50.43146 0.4248,16.72243 -33.8604,30.85589 -20.3144,0.92636 -178.24061,-24.10464 -278.66853,14.06401 -359.40128,57.42741 l 93.49319,7e-5 c 0,0 1.44828,7.24765 0.72352,28.99024 -74.64964,0.72476 -61.60459,57.25557 -61.60459,57.25557 0,0 -92.04348,34.0625 -118.85938,34.0625 -26.8159,0 -9.42187,-65.2283 -9.42187,-95.66797 0,-30.43964 39.86163,-28.9901 38.41211,-88.41992 C 609.51727,481.26162 565.30837,513.15143 576.17969,419.6582 587.05097,326.16495 908.8418,314.56836 908.8418,314.56836 Z M 694.76172,809.38672 c 1.4294,0.0291 2.8485,0.13595 4.25781,0.32812 l -23.57226,69.69727 81.99609,5.125 -2.79557,38.64858 c 0,0 -113.02411,58.7223 -88.42513,210.41591 30.39696,7.8299 45.16015,23.7832 45.16015,23.7832 l 20.43555,20.291 -68.67188,-12.3008 c 0,0 16.39887,111.7208 91.22071,167.0684 -49.19789,50.2229 -85.07031,57.3984 -85.07031,57.3984 0,0 -104.54515,-30.7495 -109.66993,-57.3984 -5.12481,-26.6489 67.64649,-448.93168 67.64649,-448.93168 h -33.82422 c 3.97168,0 57.00121,-75.02675 101.3125,-74.125 z m 515.71288,1.35351 c 66.2921,9.01612 82.021,113.89769 90.1953,198.84177 20.4991,234.715 60.4716,290.0624 44.0723,312.6114 -16.3993,22.5491 -80.9703,72.7734 -107.6192,72.7734 -26.6488,0 -91.2207,-53.2988 -91.2207,-53.2988 0,0 96.702,-103.5354 91.2207,-223.4395 -8.1996,-179.3674 -81.0741,-195.21801 -81.0741,-195.21801 l 0.1015,-38.47338 77.8965,-1.02539 z"
     style="opacity:1;fill:#000000;fill-opacity:1;stroke:none;stroke-width:1px;stroke-linecap:butt;stroke-linejoin:miter;stroke-opacity:1" />
</svg>
