<?xml version="1.0" encoding="UTF-8" standalone="no"?>
<svg
   xmlns:dc="http://purl.org/dc/elements/1.1/"
   xmlns:cc="http://creativecommons.org/ns#"
   xmlns:rdf="http://www.w3.org/1999/02/22-rdf-syntax-ns#"
   xmlns:svg="http://www.w3.org/2000/svg"
   xmlns="http://www.w3.org/2000/svg"
   width="512mm"
   height="512mm"
   viewBox="0 0 512 512"
   version="1.1"
   id="svg4579">
  <defs
     id="defs4573" />
  <metadata
     id="metadata4576">
    <rdf:RDF>
      <cc:Work
         rdf:about="">
        <dc:format>image/svg+xml</dc:format>
        <dc:type
           rdf:resource="http://purl.org/dc/dcmitype/StillImage" />
        <dc:title></dc:title>
      </cc:Work>
    </rdf:RDF>
  </metadata>
  <path
     id="path837"
     d="m 170.66442,274.22035 c 0,0 -29.91421,-24.54498 -28.38015,-62.32126 -23.01093,-12.08074 -42.18672,-22.81918 -42.18672,-22.81918 l 40.26914,-18.40874 c 0,0 24.54499,-88.975611 113.90411,-88.975611 89.35913,0 115.43818,89.359121 115.43818,89.359121 l 36.43397,19.55929 -34.5164,16.87469 -13.42303,44.10428 -12.27251,-1.53406 8.43735,12.65601 c 0,0 -18.79227,20.70984 -49.85702,40.26914 2.10933,20.13456 8.05383,47.93943 8.05383,47.93943 l -19.94281,4.41044 -15.9159,-18.40875 -2.10934,23.5862 c 0,0 -40.46088,3.45165 -75.74431,-9.01261 2.68267,-23.31171 6.90328,-45.06306 6.90328,-45.06306 l 15.34062,-17.44996 12.08074,1.7258 -2.49285,-13.03952 23.39444,-23.01093 c 0,0 35.09167,5.85143 58.48613,-40.36219 -29.21574,-15.02718 -45.29172,-24.10531 -45.29172,-24.10531 l 38.5802,-19.5224 c 0,0 -24.49847,-30.70051 -49.23522,-30.50876 -24.73676,0.19176 -39.35688,10.75771 -55.08102,24.56427 15.53238,13.03952 41.41968,25.31202 41.41968,25.31202 l -41.22792,18.98402 c 0,0 -0.95879,10.54667 10.54668,26.07906 -6.71152,5.75273 -41.61143,39.11857 -41.61143,39.11857 z"
     style="opacity:1;fill:#000000;fill-opacity:1;stroke:none;stroke-width:0.26458332px;stroke-linecap:butt;stroke-linejoin:miter;stroke-opacity:1" />
  <path
     id="path839"
     d="m 195.20941,371.82507 58.29436,14.76533 61.93777,-13.61479 8.05381,38.54331 -68.84103,15.72413 -34.70816,-8.62909 -1.15054,-8.24559 -4.60219,7.47856 -27.61312,-5.9445 z"
     style="fill:#1d0000;stroke:none;stroke-width:0.26458332px;stroke-linecap:butt;stroke-linejoin:miter;stroke-opacity:1;fill-opacity:1" />
</svg>
