<?xml version="1.0" encoding="UTF-8" standalone="no"?>
<svg
   xmlns:dc="http://purl.org/dc/elements/1.1/"
   xmlns:cc="http://creativecommons.org/ns#"
   xmlns:rdf="http://www.w3.org/1999/02/22-rdf-syntax-ns#"
   xmlns:svg="http://www.w3.org/2000/svg"
   xmlns="http://www.w3.org/2000/svg"
   id="svg4579"
   version="1.1"
   viewBox="0 0 512 512"
   height="512mm"
   width="512mm">
  <defs
     id="defs4573" />
  <metadata
     id="metadata4576">
    <rdf:RDF>
      <cc:Work
         rdf:about="">
        <dc:format>image/svg+xml</dc:format>
        <dc:type
           rdf:resource="http://purl.org/dc/dcmitype/StillImage" />
        <dc:title></dc:title>
      </cc:Work>
    </rdf:RDF>
  </metadata>
  <g
     id="g852">
    <path
       style="fill:#1d0000;stroke:none;stroke-width:0.26458332px;stroke-linecap:butt;stroke-linejoin:miter;stroke-opacity:1;fill-opacity:1"
       d="m 132.33898,118.77966 49.35593,-18.983051 23.32204,53.152541 -30.91526,16.27119 z"
       id="path825" />
    <path
       style="fill:#1d0000;stroke:none;stroke-width:0.26458332px;stroke-linecap:butt;stroke-linejoin:miter;stroke-opacity:1;fill-opacity:1"
       d="m 205.01695,92.74576 56.94915,-24.949152 25.49152,21.694915 10.30509,-4.338982 10.30508,6.508475 -18.44067,57.491524 h -58.57627 z"
       id="path827" />
    <path
       style="fill:#1d0000;stroke:none;stroke-width:0.26458332px;stroke-linecap:butt;stroke-linejoin:miter;stroke-opacity:1;fill-opacity:1"
       d="m 312.40677,151.8644 23.32204,-49.35593 46.64406,16.27119 -36.88136,37.42373 1.08477,12.47457 z"
       id="path829" />
    <path
       style="fill:#1d0000;fill-opacity:1;stroke:none;stroke-width:1px;stroke-linecap:butt;stroke-linejoin:miter;stroke-opacity:1"
       d="m 971.6582,600.625 -102.49414,6.14844 -71.74804,20.5 -71.7461,30.74804 -51.24804,30.75 -14.34961,49.19727 -30.74805,-6.15039 -38.94922,57.39844 -40.99805,75.8457 -26.64843,57.39844 -28.69922,24.59961 -8.19922,30.74804 c 12.29949,6.14975 24.5981,12.29907 34.84765,8.19922 10.24955,-4.0998 49.19837,-53.29773 65.59766,-73.79687 16.39933,-20.49914 49.19836,-81.99696 65.59766,-102.4961 16.39933,-20.4991 55.34612,-61.49607 102.49414,-79.94531 36.42496,-14.25323 106.92407,-17.48539 137.1914,-18.22265 -109.90137,47.09802 -161.78906,167.47963 -161.78906,223.21289 0,57.39757 43.04836,143.49523 51.24805,159.89453 8.19965,16.3993 43.0482,0 55.34765,6.1484 12.29949,6.1498 4.09919,24.5996 12.29883,43.0489 8.19965,18.4492 69.69704,49.1972 147.59375,49.1972 77.89659,0 166.04229,-73.7963 178.34179,-86.0957 12.2995,-12.2995 -12.2986,-36.8977 -16.3984,-49.1972 -4.0998,-12.2994 40.998,-34.8497 40.998,-34.8497 0,0 24.5996,67.6474 24.5996,-77.89643 0,-145.54387 -143.4954,-221.3904 -155.7949,-225.49024 -12.2995,-4.09984 63.5488,6.15039 63.5488,6.15039 l 75.8457,38.94727 84.0469,36.89843 104.5449,67.64844 c 0,0 51.3186,59.51206 58.5167,66.61334 7.198,7.10129 17.8319,-0.35236 17.9303,-13.83432 0.098,-13.48196 -29.2985,-52.77902 -29.2985,-52.77902 l -43.0469,-51.24804 -63.5488,-71.74805 -45.0977,-38.94727 -86.0957,-10.25 4.0996,-20.5 L 1191,660.07227 1098.7539,614.97461 Z m -3.38672,247.36328 11.59571,10.14649 c 0,0 81.17191,5.79747 81.17191,81.17187 0,75.37436 -39.1362,95.66796 -81.17191,95.66796 -42.03572,0 -91.31836,-52.1839 -91.31836,-89.87108 0,-37.68719 4.34765,-39.13672 4.34765,-39.13672 l -11.5957,-13.04492 39.13672,-10.14649 c 0,0 24.64193,-18.84318 37.6875,-21.74219 13.04557,-2.89901 10.14648,-13.04492 10.14648,-13.04492 z"
       transform="scale(0.26458333)"
       id="path831" />
    <path
       style="fill:#1d0000;stroke:none;stroke-width:0.26458332px;stroke-linecap:butt;stroke-linejoin:miter;stroke-opacity:1;fill-opacity:1"
       d="m 133.84692,276.13795 c 0,0 4.21867,-1.15057 11.12195,4.21865 6.90328,5.36921 37.58453,34.5164 63.28007,41.03618 25.69554,6.51976 56.37678,4.21865 71.33388,3.06811 14.95711,-1.15054 36.43397,-10.73843 43.33727,-12.27248 6.90327,-1.53408 15.72414,-6.9033 20.32632,-6.51979 4.60219,0.38352 4.60219,-9.9714 9.20438,-11.12194 4.60216,-1.15054 24.92849,-17.6417 28.76365,-21.47687 3.83516,-3.83516 11.889,-4.21867 7.28681,0.76703 -4.60219,4.9857 -18.40876,24.545 -22.24392,27.61313 -3.83516,3.06811 -5.75273,-3.45164 -10.35492,1.53406 -4.60218,4.9857 1.9176,7.6703 -6.90327,12.27248 -8.82086,4.60219 -38.35156,26.4626 -88.20857,26.4626 -49.85702,0 -60.21194,-6.9033 -60.21194,-6.9033 0,0 -39.11859,-26.07905 -46.02187,-31.06475 -6.90328,-4.98571 -23.77796,-24.16149 -20.70984,-27.61311 z"
       id="path835" />
    <path
       style="fill:#1d0000;stroke:none;stroke-width:0.26458332px;stroke-linecap:butt;stroke-linejoin:miter;stroke-opacity:1;fill-opacity:1"
       d="m 133.84692,383.13878 40.26913,-48.32297 35.66695,15.72414 -21.47687,54.45921 -9.9714,-1.53406 -9.97141,-13.42305 H 148.037 Z"
       id="path837" />
    <path
       style="fill:#1d0000;stroke:none;stroke-width:0.26458332px;stroke-linecap:butt;stroke-linejoin:miter;stroke-opacity:1;fill-opacity:1"
       d="m 232.0269,354.75862 -22.2439,57.52732 50.62405,20.70987 48.32296,-18.40876 -22.24392,-59.82843 z"
       id="path839" />
    <path
       style="fill:#1d0000;stroke:none;stroke-width:0.26458332px;stroke-linecap:butt;stroke-linejoin:miter;stroke-opacity:1;fill-opacity:1"
       d="m 305.66188,352.84105 36.81751,-18.40875 39.88559,49.08999 -49.08997,21.86038 -4.9857,-8.05384 3.45162,-4.21864 z"
       id="path841" />
  </g>
</svg>
