<?xml version="1.0" encoding="UTF-8" standalone="no"?>
<svg
   xmlns:dc="http://purl.org/dc/elements/1.1/"
   xmlns:cc="http://creativecommons.org/ns#"
   xmlns:rdf="http://www.w3.org/1999/02/22-rdf-syntax-ns#"
   xmlns:svg="http://www.w3.org/2000/svg"
   xmlns="http://www.w3.org/2000/svg"
   viewBox="0 0 136 156"
   height="156"
   width="136"
   id="svg2"
   version="1.1">
  <metadata
     id="metadata8">
    <rdf:RDF>
      <cc:Work
         rdf:about="">
        <dc:format>image/svg+xml</dc:format>
        <dc:type
           rdf:resource="http://purl.org/dc/dcmitype/StillImage" />
        <dc:title></dc:title>
      </cc:Work>
    </rdf:RDF>
  </metadata>
  <defs
     id="defs6" />
  <g
     style="opacity:1"
     id="layer1">
    <path
       id="path4499"
       d="m 21.5625,130.4375 c 1.59375,-0.0312 0.65625,1.15625 1.875,2.375 1.21875,1.21875 2.84375,2.0625 3.78125,2.65625 0.9375,0.59375 -3.46875,2 -6.40625,1.8125 -2.9375,-0.1875 -5.09375,-0.34375 -5.34375,-3.0625 -0.25,-2.71875 2.09375,-3.875 6.09375,-3.78125 z"
       style="fill:#000000;stroke:#000000;stroke-width:0;stroke-linecap:butt;stroke-linejoin:miter;stroke-opacity:1;fill-opacity:1;stroke-miterlimit:4;stroke-dasharray:none;opacity:1" />
  </g>
  <g
     style="opacity:1"
     id="layer2">
    <path
       id="path4492"
       d="M 18.095339,96.508475 C 17.213934,94.747746 14.095861,84.910766 19.582627,79.735169 22.47396,77.007812 30.088364,76.639917 35.612288,77.091101 36.568314,77.169188 18.934855,98.185525 18.095339,96.508475 Z"
       style="opacity:1;fill:#000000;stroke:#000000;stroke-width:1px;stroke-linecap:butt;stroke-linejoin:miter;stroke-opacity:1;fill-opacity:1" />
    <path
       id="path4490"
       d="m 21.606992,98.408898 c 2.478813,-1.569915 2.809321,1.032839 2.809321,1.032839 2.223601,20.185453 2.45352,17.991763 -0.289194,26.647243 -0.281558,0.88854 -0.330509,2.97458 -3.635594,2.31356 -3.305084,-0.66101 -5.138293,-0.11406 -6.279661,1.73517 -0.544887,0.88282 -1.088499,1.7393 -1.115465,2.76802 -0.02804,1.06967 0.371821,1.52859 -0.247882,1.90041 C 11.452893,135.64352 4.7809386,131.54896 6.1557203,120.0572 7.7669492,106.58898 21.606992,98.408898 21.606992,98.408898 Z"
       style="opacity:1;fill:#000000;fill-opacity:1;stroke:#000000;stroke-width:0.1;stroke-linecap:butt;stroke-linejoin:miter;stroke-miterlimit:4;stroke-dasharray:none;stroke-opacity:1" />
    <path
       id="path4496"
       d="m 27.432203,92.955508 c -1.98305,2.396187 0.57839,17.599572 0.57839,17.599572 0,0 1.966954,14.09778 -3.13983,19.33475 -1.82839,1.875 5.402825,3.18323 8.756356,3.56462 4.234568,0.48159 8.07405,-0.75616 13.329078,-3.0496 0,0 -11.775053,0.22757 -12.728443,-10.5468 0.621906,1.55071 1.366526,4.45339 5.82839,7.09746 4.461865,2.64407 10.263771,0.53813 15.551907,3.01695 5.288136,2.47881 13.137712,6.52754 20.326271,6.77542 7.188559,0.24788 3.800848,-2.89195 8.923729,-2.06568 5.122881,0.82627 8.637414,4.12174 10.080508,5.20551 0,0 -1.735169,-4.29661 -6.527542,-6.19703 -4.792373,-1.90043 -9.006356,-0.0826 -11.072034,0.0826 -2.065678,0.16525 -5.697034,1.39724 -9.167373,-2.23835 -3.470339,-3.6356 1.929662,-8.33759 -0.119703,-10.61971 -1.622881,-1.8072 -7.486229,-7.30296 -8.643009,-7.79872 -1.156779,-0.49577 -7.105932,1.2394 -9.17161,0.24788 -2.065678,-0.99153 -8.427966,-4.29661 -9.915254,-5.37077 -1.487288,-1.07415 5.288136,5.86653 9.17161,7.43644 3.883475,1.56992 -3.552966,3.30509 -0.165254,3.13984 3.387712,-0.16526 3.387712,-2.23094 6.03178,0 2.644067,2.23093 5.866525,5.61864 6.279661,7.0233 0.413135,1.40466 -4.875,-4.37924 -7.601695,-5.20551 -2.726695,-0.82627 -4.957627,-0.16525 -6.61017,2.39619 -1.652542,2.56144 -0.330508,-5.12288 -0.991525,-6.27966 -0.661017,-1.15678 -6.61017,-5.70127 -7.023305,-6.19704 -0.413136,-0.49576 0.08263,-2.72669 -1.15678,-3.38771 -1.239407,-0.66102 -4.048729,-0.0826 -4.048729,-1.23941 0,-1.15677 5.370763,-1.65254 8.345339,0.33051 2.974576,1.98305 4.957627,4.13136 8.014831,4.875 3.057203,0.74365 2.726695,-2.31356 4.379237,-2.06567 1.652542,0.24788 2.891949,-0.82628 5.618644,1.15677 2.726695,1.98306 11.856951,8.02937 12.5625,8.14407 0,0 -9.885593,-8.78919 -11.125,-11.92902 -1.239407,-3.13983 -3.016949,-4.91843 -1.942797,-16.651486 0.181992,5.523094 0.05251,10.941446 3.800848,15.282836 3.795651,4.39619 6.90572,7.45657 9.715042,8.61335 2.809322,1.15678 9.884534,5.30403 9.884534,5.30403 0,0 5.965293,4.53424 12.492399,0.62115 2.073292,-1.24297 8.029846,-3.06713 8.029846,-3.06713 0,0 5.20127,-0.10275 7.34958,-1.17691 2.1483,-1.07415 5.02012,-10.58156 4.68962,-12.97775 -1.08051,-2.64619 -0.56953,-2.559168 -6.49471,-6.042372 0,0 0.0288,3.372922 -0.93962,6.965042 -1.08308,4.01732 -9.404657,3.04131 -9.322028,3.45444 l -3.335807,0.40258 c 0,0 -1.404661,1.56992 -2.644068,0.57839 -1.239407,-0.99152 -5.400469,-3.08147 -5.505241,-11.735019 -0.109463,-9.040924 15.351114,-18.401541 32.345564,-3.796908 0,0 -3.59562,-11.668813 -8.96638,-13.569237 -5.37076,-1.900424 -3.69493,-0.424007 -5.76061,-0.176126 -2.06568,0.247881 -10.133298,0.157879 -10.633776,-0.590119 0,0 -0.868514,-5.237567 -0.151436,-5.770861 0.949292,-0.705994 0.56635,-2.205471 11.848132,-3.788628 1.67892,-0.2356 -0.69956,-2.960815 1.69663,-3.291323 2.39618,-0.330509 9.97014,-1.776998 17.56303,7.482531 0,0 -0.63614,-6.481279 -14.60195,-18.616117 -2.16164,-1.878236 -8.34562,-1.322982 -8.84138,-1.240355 -0.49576,0.08263 -2.457179,2.696053 -5.977752,4.258475 -2.365466,1.049788 -3.444329,1.438496 -4.700742,1.511652 -0.745763,0.04342 -2.120624,9.944414 -2.120624,9.944414 0,0 0.927911,-14.045532 -0.159567,-14.577888 -1.095727,-0.536394 -1.569915,-1.15678 -1.074152,-3.718221 0.495763,-2.56144 0.991525,1.239407 1.322034,-1.074152 0.330508,-2.313559 2.065678,-0.908898 1.817796,-2.726695 -0.247881,-1.817797 -1.404661,-4.213983 -0.578389,-4.792373 0.826271,-0.57839 3.276483,0.676907 3.689618,-0.893008 0.413136,-1.569916 1.330509,-1.056145 2.074153,-1.138772 0.743644,-0.08263 -0.375,-1.878178 0.864407,-2.621822 1.239406,-0.743644 1.181673,-0.951271 1.429555,-1.612288 0.247883,-0.661017 2.787073,0.151483 2.787073,-0.509534 0,-0.661017 1.0535,-1.631885 2.04503,-2.045021 0.99152,-0.413135 5.12288,-0.413135 6.03178,0.247881 0.9089,0.661017 0.76549,0.776555 1.65254,1.466632 1.71075,1.330874 1.66854,1.814878 1.90042,2.086335 0,0 -0.73094,-5.784958 -4.67797,-7.508475 -1.35457,-0.591487 -7.0357,-2.041773 -8.21186,-2.881885 -2.602755,-1.859111 -2.747522,-0.461136 -3.842162,-0.206569 -1.776483,0.413136 -15.804908,8.994908 -16.240381,9.110753 -4.859302,1.292671 -2.837675,1.014006 -3.498692,3.410192 -0.661017,2.396187 -7.88085,7.472193 -8.478088,22.760835 -0.07676,1.964844 -4.704586,0.06845 -9.827467,1.638366 -5.122882,1.569916 -7.854736,6.211211 -7.854736,6.211211 0,0 0.991525,2.478813 -0.57839,2.313559 -1.569915,-0.165254 -2.561441,-1.652542 -4.544492,0.661017 -1.98305,2.313559 -18.095339,21.235169 -18.095339,21.235169 z"
       style="opacity:1;fill:#000000;fill-opacity:1;stroke:#000000;stroke-width:0.1;stroke-linecap:butt;stroke-linejoin:miter;stroke-miterlimit:4;stroke-dasharray:none;stroke-opacity:1" />
    <path
       id="path4501"
       d="m 90.850951,90.818782 c 1.40625,-1.0625 3.34375,-1.78125 4.40625,-0.34375 1.0625,1.4375 -0.28125,0.53125 0.28125,1 0.5625,0.46875 0.375,-1.1875 1.5625,-0.3125 1.1875,0.875 -0.40625,2.125 0.5625,2.46875 0.96875,0.34375 1.28125,-1.0625 1.46875,0 0.1875,1.0625 4.499999,5.3125 2.687499,6.999998 -1.8125,1.6875 -0.625,0.21875 -1.8125,-0.40625 -1.187499,-0.624998 -2.531249,-2.218748 -3.343749,-1.687498 -0.8125,0.53125 0.1875,1.1875 -0.6875,1.40625 -0.875,0.218748 -2.125,-0.59375 -3.0625,-1.28125 -0.9375,-0.6875 -0.0625,-0.78125 -1.6875,-0.96875 -1.625,-0.1875 -1.59375,1.34375 -1.875,-0.40625 -0.28125,-1.75 0.21875,-5.78125 1.5,-6.46875 z"
       style="opacity:1;fill:#000000;fill-opacity:1;stroke:#000000;stroke-width:0;stroke-linecap:butt;stroke-linejoin:miter;stroke-miterlimit:4;stroke-dasharray:none;stroke-opacity:1" />
  </g>
</svg>
