<?xml version="1.0" encoding="UTF-8" standalone="no"?>
<svg
   xmlns:dc="http://purl.org/dc/elements/1.1/"
   xmlns:cc="http://creativecommons.org/ns#"
   xmlns:rdf="http://www.w3.org/1999/02/22-rdf-syntax-ns#"
   xmlns:svg="http://www.w3.org/2000/svg"
   xmlns="http://www.w3.org/2000/svg"
   version="1.1"
   id="svg2"
   width="128"
   height="129.33333"
   viewBox="0 0 128 129.33333">
  <metadata
     id="metadata8">
    <rdf:RDF>
      <cc:Work
         rdf:about="">
        <dc:format>image/svg+xml</dc:format>
        <dc:type
           rdf:resource="http://purl.org/dc/dcmitype/StillImage" />
        <dc:title></dc:title>
      </cc:Work>
    </rdf:RDF>
  </metadata>
  <defs
     id="defs6" />
  <g
     id="layer1"
     style="opacity:1" />
  <g
     id="layer3">
    <g
       id="layer2-1"
       style="opacity:1;fill:#ffffff;stroke:#ffffff;stroke-opacity:1;stroke-width:8;stroke-miterlimit:4;stroke-dasharray:none">
      <path
         style="opacity:1;fill:#ffffff;fill-opacity:1;stroke:#ffffff;stroke-width:8;stroke-linecap:round;stroke-miterlimit:4;stroke-dasharray:none;stroke-opacity:1"
         d="m 59.871094,12.605469 c -18.389121,0.02647 -36.757587,13.339974 -40.333854,20.302603 0,0 13.571912,-7.68321 24.714713,-7.699088 22.775941,-8.47e-4 41.240004,18.462341 41.240235,41.238282 -2.3e-4,22.775942 -18.464293,41.239134 -41.240235,41.238284 -10.797955,-0.89748 -22.440879,-6.09051 -22.440879,-6.09051 3.494807,5.90751 20.991239,17.57253 38.06002,17.59832 29.43345,5.8e-4 53.294426,-23.859519 53.294926,-53.292969 5.8e-4,-29.434213 -23.860713,-53.2955 -53.294926,-53.294922 z"
         id="path4490-0" />
    </g>
  </g>
  <g
     style="display:inline"
     id="layer4">
    <g
       id="layer2"
       style="opacity:1">
      <path
         style="opacity:1;fill:#000000;fill-opacity:1;stroke:#000000;stroke-width:0.10263598;stroke-miterlimit:4;stroke-dasharray:none;stroke-opacity:1"
         d="M 59.871094,12.605469 C 41.481973,12.631938 24.405645,22.136833 14.693359,37.751953 22.447015,29.74926 33.109152,25.224862 44.251953,25.208984 67.027894,25.208137 85.491957,43.671325 85.492188,66.447266 85.491958,89.223208 67.027895,107.6864 44.251953,107.68555 34.106955,107.66956 24.32383,103.91457 16.773438,97.138672 26.778611,110.96764 42.802313,119.16757 59.871094,119.19336 89.304544,119.19394 113.16552,95.333841 113.16602,65.900391 113.1666,36.466178 89.305307,12.604891 59.871094,12.605469 Z"
         id="path4490" />
    </g>
  </g>
</svg>
