<?xml version="1.0" encoding="UTF-8" standalone="no"?>
<svg
   xmlns:dc="http://purl.org/dc/elements/1.1/"
   xmlns:cc="http://creativecommons.org/ns#"
   xmlns:rdf="http://www.w3.org/1999/02/22-rdf-syntax-ns#"
   xmlns:svg="http://www.w3.org/2000/svg"
   xmlns="http://www.w3.org/2000/svg"
   viewBox="0 0 136 132"
   height="132"
   width="136"
   id="svg2"
   version="1.1">
  <metadata
     id="metadata8">
    <rdf:RDF>
      <cc:Work
         rdf:about="">
        <dc:format>image/svg+xml</dc:format>
        <dc:type
           rdf:resource="http://purl.org/dc/dcmitype/StillImage" />
        <dc:title></dc:title>
      </cc:Work>
    </rdf:RDF>
  </metadata>
  <defs
     id="defs6" />
  <g
     style="opacity:1"
     id="layer2">
    <path
       id="path4490"
       d="M 99.875,6.6347656 C 95.343406,6.5690104 89.979976,7.7341935 83.898438,10.830078 68.4691,18.684577 76.287109,36.041016 76.287109,36.041016 c -2.33342,0.104872 -2.351562,2.552734 -2.351562,2.552734 -1.433263,0.594279 -1.433594,2.726562 -1.433594,2.726562 L 48.451172,55.443359 c 0,0 -1.886773,-1.801065 -4.054688,-0.490234 -1.503179,0.908898 -0.560546,3.287109 -0.560546,3.287109 L 10.347656,78.166016 c -7.987511,-3.711751 -4.514626,7.363076 -3.3281248,9.439453 1.1865012,2.076377 6.8237778,6.031469 9.3945308,4.746093 2.570753,-1.285377 1.382813,-4.449218 1.382813,-4.449218 0,0 1.779605,-3.955224 5.240234,1.285156 3.460628,5.240381 -5.832031,11.27148 -5.832031,11.27148 l 15.523438,23.73047 19.18164,-12.85351 -5.339844,-8.4043 -4.449218,3.11328 c -0.01807,4.409 -9.222376,8.15326 -11.914063,3.26367 -3.494737,-7.42061 5.162028,-9.908452 8.552735,-8.75 l 14.335937,-9.492184 c -0.148312,-3.757259 7.065798,-8.88898 10.974609,-3.857422 5.659171,7.284682 -3.788781,10.024466 -7.019531,8.701172 l -3.658203,2.71875 5.585938,7.960934 L 76.90625,94.105469 61.246094,73.691406 C 49.919823,78.585474 46.423828,71.033203 46.423828,71.033203 l 3.916016,-2.515625 c 0,0 1.327562,1.817466 3.634765,0.628906 2.307204,-1.188559 0.978516,-3.636718 0.978516,-3.636718 L 78.375,51.597656 c 4.474577,1.538136 5.314453,-0.558594 5.314453,-0.558594 0,0 4.350122,1.233657 5.033203,-1.818359 9.470237,10.758196 21.184584,8.809886 27.546874,5.943359 6.36229,-2.866524 17.33842,-12.516683 14.68164,-23.703124 -2.65678,-11.18644 -16.35937,-9.296876 -16.35937,-9.296876 0,0 2.17115,-5.62928 0.49609,-8.193359 C 112.6713,10.271514 107.42766,6.7443577 99.875,6.6347656 Z m 2.82104,10.3976434 c 9.14502,0.192343 6.06568,9.07306 6.06568,9.07306 0,0 5.58661,-0.940282 8.75061,0.147343 4.24444,1.459026 5.61726,12.357484 -2.17505,16.216532 -10.38188,5.141505 -22.422682,4.657243 -18.22049,-10.000263 -9.177817,1.090287 -21.146878,-6.553499 -4.491393,-14.264301 3.985146,-1.844958 7.744393,-1.221298 10.070643,-1.172371 z"
       style="fill:#000000;fill-opacity:1;stroke:#000000;stroke-width:1px;stroke-linecap:butt;stroke-linejoin:miter;stroke-opacity:1" />
  </g>
</svg>
