<?xml version="1.0" encoding="UTF-8" standalone="no"?>
<svg
   xmlns:dc="http://purl.org/dc/elements/1.1/"
   xmlns:cc="http://creativecommons.org/ns#"
   xmlns:rdf="http://www.w3.org/1999/02/22-rdf-syntax-ns#"
   xmlns:svg="http://www.w3.org/2000/svg"
   xmlns="http://www.w3.org/2000/svg"
   version="1.1"
   id="svg2"
   width="128"
   height="129.33333"
   viewBox="0 0 128 129.33333">
  <metadata
     id="metadata8">
    <rdf:RDF>
      <cc:Work
         rdf:about="">
        <dc:format>image/svg+xml</dc:format>
        <dc:type
           rdf:resource="http://purl.org/dc/dcmitype/StillImage" />
        <dc:title></dc:title>
      </cc:Work>
    </rdf:RDF>
  </metadata>
  <defs
     id="defs6" />
  <g
     id="layer1"
     style="opacity:1" />
  <g
     style="opacity:0.476"
     id="layer2" />
  <g
     transform="translate(98.040152,1.9375524)"
     id="layer5-8"
     style="display:inline;opacity:1;fill:#ffffff;stroke:#ffffff;stroke-width:8.1;stroke-miterlimit:4;stroke-dasharray:none;stroke-opacity:1">
    <path
       style="fill:#ffffff;fill-opacity:1;stroke:#ffffff;stroke-width:8.1;stroke-linecap:butt;stroke-linejoin:miter;stroke-miterlimit:4;stroke-dasharray:none;stroke-opacity:1"
       d="M -70.364371,9.2968226 -56.116324,28.88862 h -9.589844 V 39.300729 L -85.725699,26.148386 V 95.07026 l 19.470703,-11.242187 v 8.5625 h 8.585938 L -69.131949,112.24604 H -1.241324 L -12.823355,92.185495 h 9.179687 V 82.456979 L 16.223518,95.884714 V 26.148386 L -3.506949,39.712839 v -9.398438 h -8.296875 L 0.328989,9.2968226 Z"
       id="path4536-1" />
  </g>
  <g
     id="layer5"
     style="display:inline;opacity:1;stroke:#ffffff;stroke-opacity:1;stroke-width:0;stroke-miterlimit:4;stroke-dasharray:none">
    <path
       style="fill:#000000;stroke:#ffffff;stroke-width:0;stroke-linecap:butt;stroke-linejoin:miter;stroke-opacity:1;stroke-miterlimit:4;stroke-dasharray:none;fill-opacity:1"
       d="M 27.675781 11.234375 L 41.923828 30.826172 L 32.333984 30.826172 L 32.333984 41.238281 L 12.314453 28.085938 L 12.314453 97.007812 L 31.785156 85.765625 L 31.785156 94.328125 L 40.371094 94.328125 L 28.908203 114.18359 L 96.798828 114.18359 L 85.216797 94.123047 L 94.396484 94.123047 L 94.396484 84.394531 L 114.26367 97.822266 L 114.26367 28.085938 L 94.533203 41.650391 L 94.533203 32.251953 L 86.236328 32.251953 L 98.369141 11.234375 L 27.675781 11.234375 z M 62.748047 33.839844 L 70.421875 48.5 L 66.310547 48.5 L 66.310547 70.421875 L 77.818359 49.322266 L 74.804688 47.404297 L 87.957031 39.457031 L 87.410156 55.212891 L 84.257812 52.748047 L 67.542969 82.615234 L 74.941406 91.65625 L 52.0625 91.65625 L 59.185547 82.615234 L 41.375 53.021484 L 38.910156 56.035156 L 37.951172 39.732422 L 50.828125 48.089844 L 47.541016 49.595703 L 59.460938 69.324219 L 59.460938 48.5 L 56.035156 48.5 L 62.748047 33.839844 z "
       id="path4536" />
  </g>
</svg>
