<?xml version="1.0" encoding="UTF-8" standalone="no"?>
<svg
   xmlns:dc="http://purl.org/dc/elements/1.1/"
   xmlns:cc="http://creativecommons.org/ns#"
   xmlns:rdf="http://www.w3.org/1999/02/22-rdf-syntax-ns#"
   xmlns:svg="http://www.w3.org/2000/svg"
   xmlns="http://www.w3.org/2000/svg"
   xmlns:xlink="http://www.w3.org/1999/xlink"
   version="1.1"
   id="svg2"
   width="128"
   height="129.33333"
   viewBox="0 0 128 129.33333">
  <metadata
     id="metadata8">
    <rdf:RDF>
      <cc:Work
         rdf:about="">
        <dc:format>image/svg+xml</dc:format>
        <dc:type
           rdf:resource="http://purl.org/dc/dcmitype/StillImage" />
        <dc:title></dc:title>
      </cc:Work>
    </rdf:RDF>
  </metadata>
  <defs
     id="defs6">
    <linearGradient
       id="linearGradient4571">
      <stop
         id="stop4567"
         offset="0"
         style="stop-color:#000000;stop-opacity:1;" />
      <stop
         id="stop4569"
         offset="1"
         style="stop-color:#000000;stop-opacity:0;" />
    </linearGradient>
    <radialGradient
       gradientUnits="userSpaceOnUse"
       gradientTransform="matrix(1,0,0,1.2894325,0,-19.623827)"
       r="39.971389"
       fy="67.801048"
       fx="65.355537"
       cy="67.801048"
       cx="65.355537"
       id="radialGradient4573"
       xlink:href="#linearGradient4571" />
  </defs>
  <g
     id="layer1"
     style="opacity:1" />
  <g
     style="display:inline;opacity:1"
     id="layer2">
    <path
       id="path3715-6"
       d="M 66.263672,16.761719 C 41.462268,16.555591 8.438405,46.098831 37.111328,82.798828 L 31.921875,88.4375 28.154297,84.464844 25.962891,106.17969 44.333984,99.191406 41.673828,96.515625 c 0,0 2.066948,-3.092194 4.085938,-6.296875 4.087505,2.416695 12.605468,3.423828 12.605468,3.423828 l 0.06836,8.837892 h -3.425782 l 10.617188,15.96094 10.755859,-16.0293 -3.767578,0.0684 0.06836,-7.398439 12.535156,-4.93164 3.974609,6.986328 -2.195312,1.777343 17.630856,7.749998 -1.16211,-22.281248 -4.261715,4.06836 -3.294922,-5.03711 -0.773437,-0.77539 c 0,0 -1.503296,0.905895 -0.582032,-0.388672 C 121.3482,44.59682 90.030873,16.959251 66.263672,16.761719 Z m -1.453125,8.816406 C 97.93631,25.508308 102.73581,63.503601 87.578125,76.050781 83.24188,72.0872 65.490234,54.542969 65.490234,54.542969 L 44.369141,75.857422 C 22.254458,53.670714 42.231407,25.625714 64.810547,25.578125 Z"
       style="display:inline;opacity:1;fill:#ffffff;fill-opacity:1;stroke:#ffffff;stroke-width:6.9;stroke-linecap:butt;stroke-linejoin:miter;stroke-miterlimit:4.80000019;stroke-dasharray:none;stroke-opacity:1" />
  </g>
  <g
     style="display:inline"
     id="layer3">
    <path
       id="path3715"
       d="M 66.263672,16.761719 C 41.462268,16.555591 8.438405,46.098831 37.111328,82.798828 L 31.921875,88.4375 28.154297,84.464844 25.962891,106.17969 44.333984,99.191406 41.673828,96.515625 c 0,0 2.066948,-3.092194 4.085938,-6.296875 4.087505,2.416695 12.605468,3.423828 12.605468,3.423828 l 0.06836,8.837892 h -3.425782 l 10.617188,15.96094 10.755859,-16.0293 -3.767578,0.0684 0.06836,-7.398439 12.535156,-4.93164 3.974609,6.986328 -2.195312,1.777343 17.630856,7.749998 -1.16211,-22.281248 -4.261715,4.06836 -3.294922,-5.03711 -0.773437,-0.77539 c 0,0 -1.503296,0.905895 -0.582032,-0.388672 C 121.3482,44.59682 90.030873,16.959251 66.263672,16.761719 Z m -1.453125,8.816406 C 97.93631,25.508308 102.73581,63.503601 87.578125,76.050781 83.24188,72.0872 65.490234,54.542969 65.490234,54.542969 L 44.369141,75.857422 C 22.254458,53.670714 42.231407,25.625714 64.810547,25.578125 Z"
       style="opacity:1;fill:#000000;fill-opacity:1;stroke:#000000;stroke-width:1;stroke-linecap:butt;stroke-linejoin:miter;stroke-miterlimit:2.5999999;stroke-dasharray:none;stroke-opacity:1" />
  </g>
</svg>
