<?xml version="1.0" encoding="UTF-8" standalone="no"?>
<svg
   xmlns:dc="http://purl.org/dc/elements/1.1/"
   xmlns:cc="http://creativecommons.org/ns#"
   xmlns:rdf="http://www.w3.org/1999/02/22-rdf-syntax-ns#"
   xmlns:svg="http://www.w3.org/2000/svg"
   xmlns="http://www.w3.org/2000/svg"
   viewBox="0 0 226.66667 122.66667"
   height="122.66667"
   width="226.66667"
   id="svg6219"
   version="1.1">
  <metadata
     id="metadata6225">
    <rdf:RDF>
      <cc:Work
         rdf:about="">
        <dc:format>image/svg+xml</dc:format>
        <dc:type
           rdf:resource="http://purl.org/dc/dcmitype/StillImage" />
        <dc:title></dc:title>
      </cc:Work>
    </rdf:RDF>
  </metadata>
  <defs
     id="defs6223" />
  <g
     style="opacity:1"
     id="layer10">
    <path
       id="path6775"
       d="m 48.322266,11.583984 c -0.141682,2.28e-4 -0.272892,0.0095 -0.394532,0.02734 0,0 -28.618039,10.667369 -39.9140621,39.044922 -6.7618989,16.987053 5.5533101,35.318182 9.2167971,38.867188 3.663486,3.549002 14.995929,7.040867 17.05664,6.125 2.060711,-0.915875 8.873038,-23.354862 10.361329,-24.15625 1.488289,-0.80139 11.058629,2.530154 10.991139,3.204923 1.1501,8.760252 8.167873,5.220065 8.385516,7.184344 0.960121,8.665326 6.579866,8.783643 7.984673,9.358779 1.398554,0.572576 -1.831168,8.070883 3.664062,10.2461 4.779705,1.48829 7.278309,-1.44649 8.902344,-0.9375 0.793251,0.24861 3.439731,6.53829 8.072266,6.80078 5.040903,0.28564 5.838952,-0.34785 7.296874,-0.71094 2.105548,-0.0393 2.994248,0.80819 8.249998,0.83789 2.85501,0.0161 0.44689,-2.00359 6.39453,-0.96679 12.48848,2.17702 12.36772,-1.43222 13.97266,-2.3086 1.37068,-0.74846 13.96219,1.90646 14.19922,-12.560549 0.0212,-1.296062 3.95834,2.894222 17.97461,-7.210937 0.94705,-0.682784 9.73602,8.605921 10.88086,8.376953 1.14484,-0.228968 4.54535,-4.310095 5.80469,-4.539063 1.25932,-0.228968 10.8828,6.794172 12.37109,6.679688 1.48829,-0.114484 10.20432,-6.676059 14.15234,-9.996094 2.97658,-3.320035 6.36184,-15.098913 5.94922,-27.179688 -0.81099,-23.74453 -31.33621,-42.819494 -32.78711,-42.833984 -0.99007,-0.0099 -31.0709,20.98452 -31.75781,21.900391 -0.525,0.673014 1.01685,1.687942 -2.07422,2.947265 -3.09107,1.259324 -13.9205,-9.901582 -17.58398,-11.27539 -1.96349,-0.564283 -2.1087,0.851729 -6.07227,-0.794922 -0.99548,-0.413567 -5.00607,-4.922334 -9.25586,-5.980469 -3.9277,-0.97794 -5.82964,4.495775 -9.76562,3.736328 -3.602198,-0.69504 -9.899307,-3.333416 -14.093754,-2.484375 -1.428408,0.289139 -7.256206,3.60181 -8.367187,5.164063 -0.936097,1.316334 -2.166786,0.490134 -5.199219,-1.28711 -3.867556,-2.26669 -2.414955,-4.395213 -3.533203,-5.115234 C 66.413274,19.822187 52.714385,11.576939 48.322266,11.583984 Z M 59.59375,23.701172 c 1.036593,0.0291 2.161395,0.241306 2.759766,0.382812 2.620833,0.619792 2.9765,1.824876 3.541015,2.41211 0.749222,0.779375 -3.319178,17.321837 -3.966797,20.074218 -0.647619,2.752381 -9.195313,21.049034 -10.603515,21.210938 -0.965071,0.110957 -4.7758,-0.162463 -5.09961,-1.214844 -0.858373,-2.789708 12.384766,-42.824218 12.384766,-42.824218 0.303572,-0.04048 0.638844,-0.05072 0.984375,-0.04102 z m 49.81641,1.15039 c 0.26467,0.0073 0.54408,0.06607 0.84765,0.1875 2.42857,0.971431 5.50453,0.970183 5.99024,2.103516 0.48572,1.133333 -2.24812,2.562593 -6.94336,4.181641 -4.69524,1.619046 -8.3979,-0.512147 -12.607424,2.240234 -4.209524,2.752381 -5.278292,5.899552 -7.847657,6.626953 -6.763709,1.914841 -8.385676,4.437648 -6.417968,6.382813 7.525928,7.439707 15.845357,3.234691 20.216799,1.939453 4.37143,-1.295238 9.38947,-0.485617 13.11328,1.61914 3.72381,2.104763 8.46838,20.691047 14.28516,31 5.14812,9.123909 8.01472,14.315199 1.46874,16.666016 -8.13661,2.922072 -10.02627,-14.538048 -10.21874,-13.933594 -3.16833,9.948143 5.31283,15.972044 0.9414,18.562496 -5.85972,4.25049 -11.73198,-11.076484 -14.48437,-9.781246 -2.75238,1.295239 6.89388,8.951626 -0.44336,11.466796 -7.365726,2.52493 -11.623257,-7.945699 -12.736331,-6.734374 -0.744908,0.810661 1.360409,5.325274 -0.75586,6.476564 -4.863882,3.55546 -6.874888,-2.07431 -8.332031,-3.69336 -1.457143,-1.619055 -0.06802,-2.968595 -1.564453,-6.416016 -1.454438,-3.350688 -3.854948,-4.871188 -4.988281,-6.490235 -1.133334,-1.619048 0.703961,-5.348455 -1.72461,-9.072265 -2.428572,-3.723809 -7.306995,-2.631679 -8.359375,-3.279297 -1.113821,-0.685428 -0.363057,-5.665495 -3.277343,-6.798828 -2.914286,-1.133334 -8.522137,-0.204166 -8.257813,-2.914063 0.184881,-1.895426 16.189751,-32.867281 17.970703,-34.486328 1.780952,-1.619048 5.132662,0.161787 8.294922,-0.90625 0.614785,-0.20764 1.076451,-0.903776 5.933594,-2.037109 4.857143,-1.133335 5.942086,1.229446 11.123048,0.419922 4.53333,-0.708333 6.9207,-3.38099 8.77344,-3.330079 z m 8.14062,6.613282 c 0.47281,-0.0059 1.00419,0.0084 1.61133,0.04883 4.85714,0.323809 18.12138,11.540607 22.97851,11.216797 4.85714,-0.323809 1.79255,-0.04513 4.54493,-0.207031 2.75238,-0.161905 17.64721,21.532868 16.67578,25.904296 -0.97143,4.371429 -16.51457,19.429189 -21.85742,17.486328 -5.34286,-1.942857 -9.02041,-12.64481 -0.43946,-17.501953 8.58096,-4.857143 -19.02773,-0.251925 -22.27539,-27.677734 0,0 -13.96839,3.050709 -17.77929,0.837891 -0.68642,-0.398572 -7.250379,10.104544 -17.250004,4.095703 -2.117106,-1.272183 0.724048,-3.791732 4.478515,-4.25 5.247482,-0.640504 5.579021,-3.438286 6.708985,-4.587891 2.893523,-2.94382 4.300781,-2.886719 4.300781,-2.886719 4.371433,-1.133333 5.086423,-0.467411 10.105473,-0.953125 4.39166,-0.425 4.88757,-1.484323 8.19726,-1.52539 z m 38.72852,2.808594 c 2.71808,0.518582 13.16658,20.263984 13.83203,21.373046 0.6869,1.14484 11.24649,20.69821 10.67969,22.708985 -0.18155,0.644045 -6.15328,4.839716 -8.16211,4.621093 -1.08819,-0.118425 -3.41586,-11.551809 -5.47657,-14.986328 -2.06071,-3.434519 -9.05016,-16.876932 -11.33984,-19.853515 -2.28968,-2.976583 -6.75391,-9.271485 -6.75391,-9.271485 0.58631,-1.460514 4.17351,-3.608649 6.98243,-4.580078 0.071,-0.02456 0.1506,-0.02845 0.23828,-0.01172 z M 61.707031,69.654297 c 2.532654,1.19e-4 4.585768,2.309434 4.585938,5.158203 0.114314,4.222576 -2.053284,5.158084 -4.585938,5.158203 -2.532654,-1.19e-4 -5.158187,-2.194951 -4.585937,-6.303043 0.801558,-2.963252 2.053283,-4.013244 4.585937,-4.013363 z m 9.158203,7.087891 c 2.664646,1.02e-4 5.168066,2.011846 5.167671,5.340439 0.342984,5.846477 -2.503635,6.712193 -5.167671,6.712295 -2.664035,-1.03e-4 -5.10996,-2.525835 -4.766976,-6.540569 -3.95e-4,-3.328592 2.10233,-5.512062 4.766976,-5.512165 z M 78.078125,90.1875 c 2.573151,4.3e-4 4.658747,2.343118 4.658203,5.232422 -4.17e-4,2.888541 -2.085731,5.230038 -4.658203,5.230468 -2.572472,-4.3e-4 -4.543302,-0.739152 -4.658203,-5.230468 -5.44e-4,-2.889304 2.085052,-5.231992 4.658203,-5.232422 z"
       style="fill:#000000;fill-opacity:1;stroke:#000000;stroke-width:1px;stroke-linecap:butt;stroke-linejoin:miter;stroke-opacity:1" />
  </g>
</svg>
