<?xml version="1.0" encoding="UTF-8" standalone="no"?>
<svg
   xmlns:dc="http://purl.org/dc/elements/1.1/"
   xmlns:cc="http://creativecommons.org/ns#"
   xmlns:rdf="http://www.w3.org/1999/02/22-rdf-syntax-ns#"
   xmlns:svg="http://www.w3.org/2000/svg"
   xmlns="http://www.w3.org/2000/svg"
   viewBox="0 0 158.66667 126.66667"
   height="126.66667"
   width="158.66667"
   id="svg5658"
   version="1.1">
  <metadata
     id="metadata5664">
    <rdf:RDF>
      <cc:Work
         rdf:about="">
        <dc:format>image/svg+xml</dc:format>
        <dc:type
           rdf:resource="http://purl.org/dc/dcmitype/StillImage" />
        <dc:title></dc:title>
      </cc:Work>
    </rdf:RDF>
  </metadata>
  <defs
     id="defs5662" />
  <g
     style="display:inline;opacity:1"
     id="layer8">
    <path
       id="path5668"
       d="m 7.0211312,50.57279 c -1.0438016,-0.356524 27.1357228,50.38136 29.0333258,50.95064 1.897603,0.56928 31.21557,6.92625 33.397814,7.87505 5.977449,3.79521 7.210891,5.40817 10.816337,8.06482 2.482443,0.70382 7.819235,0.0754 8.539213,-0.28464 1.518083,-0.75904 3.036166,-3.41569 7.210892,-5.88257 4.174727,-2.46689 47.250317,-22.391718 48.958157,-24.289322 1.13857,-0.948801 7.68529,-52.184083 7.68529,-52.184083 -1.67528,0.504165 -67.881019,26.449314 -70.163868,29.270527 -0.943669,1.166214 -1.978969,2.464906 -3.368246,3.368246 -2.07288,1.347835 -5.028648,0.948801 -8.728974,-10e-7 C 67.840841,66.804987 7.9977358,50.906363 7.0211312,50.57279 Z"
       style="fill:#000000;fill-opacity:1;stroke:#000000;stroke-width:1px;stroke-linecap:butt;stroke-linejoin:miter;stroke-opacity:1" />
    <path
       id="path6217"
       d="m 8.923023,44.145482 c 0.5367232,-1.341808 8.261267,-1.670514 10.264831,-11.74082 0.308972,-1.552952 6.100584,5.599931 8.721752,5.971046 8.83804,1.251322 10.399011,-3.086158 25.561442,-2.616525 6.994659,0.216648 17.242231,7.782485 20.730932,7.782485 3.488701,0 20.014738,-13.643194 27.10452,-15.16243 5.6356,-1.207627 9.3655,1.138817 13.75353,1.140537 8.40283,0.0033 15.90043,-11.74082 18.44987,-12.478814 0.64444,-0.186551 -0.76802,7.405985 2.61652,8.252119 1.07344,0.268362 1.94658,-3.689012 4.29379,-1.341807 2.0798,2.079801 5.02921,5.006703 4.1596,5.367231 C 141.3446,30.659763 76.189398,59.262115 70.512008,56.825568 54.410313,49.915256 8.923023,44.145482 8.923023,44.145482 Z"
       style="fill:#000000;fill-opacity:1;stroke:#000000;stroke-width:0.40000001;stroke-linecap:butt;stroke-linejoin:miter;stroke-miterlimit:4;stroke-dasharray:none;stroke-opacity:1" />
  </g>
</svg>
