<?xml version="1.0" encoding="UTF-8" standalone="no"?>
<svg
   xmlns:dc="http://purl.org/dc/elements/1.1/"
   xmlns:cc="http://creativecommons.org/ns#"
   xmlns:rdf="http://www.w3.org/1999/02/22-rdf-syntax-ns#"
   xmlns:svg="http://www.w3.org/2000/svg"
   xmlns="http://www.w3.org/2000/svg"
   viewBox="0 0 174.66667 126.66667"
   height="126.66667"
   width="174.66667"
   id="svg5093"
   version="1.1">
  <metadata
     id="metadata5099">
    <rdf:RDF>
      <cc:Work
         rdf:about="">
        <dc:format>image/svg+xml</dc:format>
        <dc:type
           rdf:resource="http://purl.org/dc/dcmitype/StillImage" />
        <dc:title></dc:title>
      </cc:Work>
    </rdf:RDF>
  </metadata>
  <defs
     id="defs5097" />
  <g
     style="display:inline;opacity:1"
     id="layer6">
    <path
       id="path5103"
       d="M 67.728516 25.962891 C 33.875236 25.926891 1.8345505 35.292571 4.8300781 35.820312 C 9.6229223 36.664699 32.358236 33.990038 32.896484 34.650391 C 33.401247 35.269662 15.296511 56.623786 12.076172 61.722656 C 8.8558324 66.821527 8.8586042 81.478223 10.667969 83.998047 C 11.55385 85.231776 19.22406 62.856016 22.207031 62.595703 C 24.159424 62.425325 21.169235 104.90124 79.435547 108.08203 C 133.5104 111.03401 149.68624 97.831387 153.50195 96.878906 C 155.48489 96.383923 164.77458 109.89434 167.72656 108.95508 C 172.2887 104.66129 138.96 51.644962 123.44727 40.119141 C 109.00611 29.389492 88.040484 25.984488 67.728516 25.962891 z M 50.986328 45 C 51.657685 44.979798 52.485997 45.000232 53.404297 45.025391 C 58.914096 45.176344 69.908203 46.023437 69.908203 46.023438 C 56.892666 56.355359 53.874396 82.564041 78.09375 92.451172 C 105.65734 103.70353 120.76292 76.34951 118.34766 64.675781 C 118.0203 63.09354 142.23166 73.799126 139.81641 85.070312 C 137.40116 96.3415 115.66358 108.68695 79.703125 104.52734 C 43.742672 100.36774 30.593121 76.080983 35.826172 61.052734 C 41.073899 45.982339 46.159152 46.82892 49.513672 45.21875 C 49.80057 45.081039 50.314971 45.020202 50.986328 45 z M 81.582031 50.818359 A 8.3549261 7.9523835 0 0 1 89.9375 58.771484 A 8.3549261 7.9523835 0 0 1 81.582031 66.722656 A 8.3549261 7.9523835 0 0 1 73.226562 58.771484 A 8.3549261 7.9523835 0 0 1 81.582031 50.818359 z "
       style="fill:#000000;fill-opacity:1;stroke:#000000;stroke-width:0.2;stroke-linecap:butt;stroke-linejoin:miter;stroke-miterlimit:4;stroke-dasharray:none;stroke-opacity:1" />
  </g>
</svg>
