<?xml version="1.0" encoding="UTF-8" standalone="no"?>
<svg
   xmlns:dc="http://purl.org/dc/elements/1.1/"
   xmlns:cc="http://creativecommons.org/ns#"
   xmlns:rdf="http://www.w3.org/1999/02/22-rdf-syntax-ns#"
   xmlns:svg="http://www.w3.org/2000/svg"
   xmlns="http://www.w3.org/2000/svg"
   viewBox="0 0 161.33333 116"
   height="116"
   width="161.33333"
   id="svg3680"
   version="1.1">
  <metadata
     id="metadata3686">
    <rdf:RDF>
      <cc:Work
         rdf:about="">
        <dc:format>image/svg+xml</dc:format>
        <dc:type
           rdf:resource="http://purl.org/dc/dcmitype/StillImage" />
        <dc:title></dc:title>
      </cc:Work>
    </rdf:RDF>
  </metadata>
  <defs
     id="defs3684" />
  <g
     style="display:inline;opacity:1"
     id="layer1">
    <path
       id="path3709"
       d="m 54.431544,103.33839 c 9.176119,3.63582 16.57009,3.3569 25.469948,3.65863 8.350665,0.28311 15.973689,0.1613 25.191048,-0.69254 2.35713,-0.21835 0.65756,-4.38687 1.2985,-6.665674 1.91119,-6.795123 3.94788,-5.845092 8.91642,-26.922389 0.3964,-1.681593 3.69401,0.932808 10.73434,0.259702 6.62695,-0.633584 9.25657,-3.116419 15.0194,-6.449254 2.3745,-1.373257 6.6626,-3.444053 9.04626,-5.150746 3.96111,-2.836142 3.1765,-2.037769 4.30672,-2.964925 0.65042,-0.533568 0.99912,-1.115415 1.49328,-1.796269 0.83467,-1.150007 0.38538,-2.527907 0.21642,-3.938806 -0.0844,-0.704722 0.042,-1.57002 -0.34627,-2.164179 -2.44334,-3.73927 -5.20611,-7.177289 -8.4403,-10.258209 -4.44606,-4.235367 -5.55016,-4.261541 -10.12835,-8.353731 -1.6284,-1.455537 -7.2742,-6.273663 -9.08956,-7.48806 -2.41418,-1.614984 -2.47095,-2.231159 -5.23731,-3.116418 -0.76657,-0.245308 -4.31629,-0.761128 -5.10746,-0.908955 -2.45581,-0.45886 -6.42965,-1.169374 -8.82985,-0.476119 -1.28155,0.370153 -1.16585,1.285518 -1.8612,2.42388 -1.33636,2.187757 -2.7128,5.242446 -1.55821,7.531344 0.37215,0.737756 0.44467,2.516241 2.25075,1.038806 0.21997,-0.179945 -0.22498,0.522091 -0.34627,0.779104 -0.38553,0.816926 -1.65504,1.636693 -1.21194,2.423881 0.8663,1.539039 2.98625,0.980308 5.2806,0.432835 0.42102,-0.100462 1.09148,-0.299882 1.51493,-0.389552 1.408,-0.29816 1.30351,-0.450093 3.11641,-0.952239 1.43019,-0.396139 3.61469,-2.049704 5.06418,-1.731343 3.97023,0.87201 4.47944,6.282144 6.75224,9.652238 1.94321,2.881386 3.01199,6.703209 5.49702,9.132837 2.15066,2.102716 8.35832,2.915525 8.35373,3.419403 -0.005,0.553797 -4.23988,-0.441646 -6.14627,-1.038806 -2.98322,-0.93447 -5.18442,-3.923115 -8.31045,-3.895523 -4.64729,0.04102 -10.5385,5.835599 -12.63881,5.886568 -1.7992,0.04366 3.10191,-1.364541 2.03433,-2.813433 -4.46574,-6.060798 -24.553632,6.343582 -25.017909,6.232835 -1.094661,-0.261115 5.210192,-3.522005 2.120895,-4.025373 -1.915806,-0.31216 -3.193142,-2.518824 -3.895522,-4.328358 -1.357435,-3.497146 -0.509875,-5.143896 -0.63748,-9.203121 -0.03857,-1.227035 -0.314297,-3.809157 0.04276,-3.662077 1.631806,0.672185 2.269908,-1.651274 2.640827,-2.345705 0.870837,-1.630374 3.591086,-5.157389 1.968494,-7.124601 -0.84065,-1.019194 -0.648046,-1.018174 -2.158613,-0.675204 C 90.97735,26.865459 93.653593,21.168047 90.8261,14.238788 88.289189,8.0216494 81.732817,8.1416015 79.884838,8.179696 c -5.514626,0.1136793 -9.632272,2.256023 -11.596593,7.197126 -1.964321,4.941102 0.563053,11.725649 -0.08421,11.653398 -1.258365,-0.140465 -1.04717,-0.864435 -2.309616,-0.157846 -1.764636,0.987664 -0.666722,4.274538 1.025608,6.048813 1.210155,1.268753 0.102805,5.085946 2.424936,4.249435 0.861313,-0.310275 0.473667,1.193004 0.754496,2.614416 1.04134,5.270741 1.01843,7.935888 -0.164433,11.277284 -1.035781,2.92591 -2.410774,5.089626 -7.083655,4.972735 -5.011905,-0.125373 -1.273621,-7.515922 -17.084493,-3.90062 -1.432218,0.32749 6.092737,3.255982 5.13462,5.432727 0,0 -6.920588,-5.4825 -11.080597,-6.492537 -4.184133,-1.015894 -10.122394,-0.930417 -11.919112,-0.409283 -1.186008,0.343998 2.045651,-8.156581 4.734037,-12.142956 1.90525,-2.825131 3.932519,-6.25566 7.185075,-7.271642 3.279038,-1.024254 2.796689,1.401001 6.210775,1.782053 2.466073,0.275243 7.110912,1.870026 8.201383,1.155079 1.013815,-0.664689 -0.246594,-1.6996 -0.08657,-2.901275 0.254298,-1.909572 1.22292,-3.761839 0.910229,-5.662722 -0.29239,-1.777458 -1.534097,-4.812352 -3.238843,-5.394322 C 47.33651,18.699703 38.914791,21.099927 36.19632,23.060175 26.925295,29.745371 24.453772,33.15324 12.736619,41.672115 9.2496909,44.207262 9.4722315,46.711459 7.358206,50.468657 6.5331321,51.935038 5.8103872,55.023541 6.8388029,56.355224 14.302164,66.01944 19.654041,67.493348 30.73134,72.110448 c 4.831687,2.013883 15.130701,-1.573387 15.408955,-0.173134 4.089959,20.581763 14.555247,28.978066 14.629851,29.605966 0.394062,3.31659 -7.570415,-8.343407 -7.704477,-6.405967 -0.05736,0.828939 -0.457735,1.182963 0.35587,4.314099 z"
       style="fill:#000000;fill-opacity:1;stroke:#000000;stroke-width:0.2;stroke-linecap:butt;stroke-linejoin:miter;stroke-miterlimit:4;stroke-dasharray:none;stroke-opacity:1" />
  </g>
</svg>
