<?xml version="1.0" encoding="UTF-8" standalone="no"?>
<svg
   xmlns:dc="http://purl.org/dc/elements/1.1/"
   xmlns:cc="http://creativecommons.org/ns#"
   xmlns:rdf="http://www.w3.org/1999/02/22-rdf-syntax-ns#"
   xmlns:svg="http://www.w3.org/2000/svg"
   xmlns="http://www.w3.org/2000/svg"
   viewBox="0 0 101.33333 142.66667"
   height="142.66667"
   width="101.33333"
   id="svg6800"
   version="1.1">
  <metadata
     id="metadata6806">
    <rdf:RDF>
      <cc:Work
         rdf:about="">
        <dc:format>image/svg+xml</dc:format>
        <dc:type
           rdf:resource="http://purl.org/dc/dcmitype/StillImage" />
        <dc:title></dc:title>
      </cc:Work>
    </rdf:RDF>
  </metadata>
  <defs
     id="defs6804" />
  <g
     style="opacity:1"
     id="layer12">
    <path
       id="path7356"
       d="m 45.728516,16.679688 c -9.334102,0.08845 -19.711644,3.677435 -30.416016,13.40625 -27.434916,24.934599 0.442591,52.989346 1.1875,56.109374 2.009992,8.41879 -7.4316406,30.173828 -7.4316406,30.173828 1.2090396,2.11582 38.7416876,7.04566 44.7343746,6.04688 1.36017,-0.2267 6.590631,-10.34003 5.81836,-11.25977 -1.186274,-1.41278 -10.655301,-6.57369 -10.050782,-7.48047 0.604521,-0.90677 30.302569,4.08072 33.929688,0.75586 3.627119,-3.32485 2.416964,-5.215682 3.021484,-8.238281 0.60452,-3.022599 1.763343,-4.98814 2.400109,-6.839278 0.315013,-0.915773 1.326381,-1.013061 1.094314,-3.07702 0.302262,-1.20904 -1.494973,-0.730268 -0.544381,-2.779164 0.636598,-1.372115 -1.597645,-3.355055 -1.135588,-4.456881 1.17881,-2.811018 6.574086,-3.853197 6.800781,-5.515625 C 95.626791,69.931532 85.790541,59.066042 85.488281,56.345703 85.186022,53.625364 85.971464,44.774612 84.935547,39.898438 84.085441,35.896898 67.835598,16.470205 45.728516,16.679688 Z m 2.789062,5.335937 c 19.983758,0.21373 27.250291,13.571377 26.181641,18.273437 -1.06865,4.702062 -13.14479,11.542961 -15.06836,12.291016 -1.923571,0.748055 -9.350706,-0.268135 -11.060547,-0.375 -1.709839,-0.106865 0.389748,-3.580072 -0.160156,-4.007812 -0.548264,-0.426464 -6.358651,-0.426347 -8.65625,0.214843 -2.963654,0.827066 -6.182546,2.879379 -6.037109,2.083985 0.118389,-0.647475 4.679638,-5.852411 1.761719,-4.328125 -3.579978,1.870138 -12.234633,4.914704 -14.158204,10.097656 -1.91664,5.16428 -0.138002,13.616432 -1.070312,14 -0.950496,0.39105 -5.874396,0.645102 -7.212891,-0.587891 C 10.352689,67.204902 8.5499097,53.862258 11.755859,45.419922 14.96181,36.977586 28.533821,21.801895 48.517578,22.015625 Z m 31.78711,29.712891 c 0.120376,-0.01384 0.205541,-0.0046 0.248046,0.0332 0.680085,0.60452 1.05791,10.881201 0,11.410156 -1.05791,0.528954 -11.940065,-4.156062 -12.015625,-5.591797 0,0 9.961933,-5.644016 11.767579,-5.851562 z"
       style="opacity:1;fill:#000000;fill-opacity:1;stroke:#000000;stroke-width:0.30000001;stroke-linecap:butt;stroke-linejoin:miter;stroke-miterlimit:4;stroke-dasharray:none;stroke-opacity:1" />
  </g>
</svg>
