<?xml version="1.0" encoding="UTF-8" standalone="no"?>
<svg
   xmlns:dc="http://purl.org/dc/elements/1.1/"
   xmlns:cc="http://creativecommons.org/ns#"
   xmlns:rdf="http://www.w3.org/1999/02/22-rdf-syntax-ns#"
   xmlns:svg="http://www.w3.org/2000/svg"
   xmlns="http://www.w3.org/2000/svg"
   width="512mm"
   height="512mm"
   viewBox="0 0 512 512"
   version="1.1"
   id="svg885">
  <defs
     id="defs879" />
  <metadata
     id="metadata882">
    <rdf:RDF>
      <cc:Work
         rdf:about="">
        <dc:format>image/svg+xml</dc:format>
        <dc:type
           rdf:resource="http://purl.org/dc/dcmitype/StillImage" />
        <dc:title></dc:title>
      </cc:Work>
    </rdf:RDF>
  </metadata>
  <g
     id="layer1">
    <g
       id="g849">
      <path
         style="fill:#000000;fill-opacity:1;stroke:none;stroke-width:1px;stroke-linecap:butt;stroke-linejoin:miter;stroke-opacity:1"
         d="M 830.98242 517.46875 C 748.55171 517.58334 676.89758 565.65092 675.4707 585.62695 C 675.4707 609.90622 699.75 663.9008 699.75 676.58398 C 699.75 689.26721 692.50136 751.95696 690.68945 762.10352 C 688.87759 772.25007 659.52658 812.11179 673.29688 829.50586 C 687.06721 846.89996 699.38789 878.06495 698.30078 885.3125 C 697.21364 892.56005 692.50191 889.66054 683.08008 897.63281 C 673.65828 905.60512 648.29201 966.84676 643.21875 986.05273 C 638.14545 1005.2587 691.41535 1005.984 699.75 1008.1582 C 708.08469 1010.3325 702.28636 1077.735 701.19922 1084.2578 C 700.11208 1090.7806 699.38715 1096.2156 716.78125 1102.0137 C 716.78125 1102.0137 720.8012 1164.3507 721.82617 1172.8066 C 722.8511 1181.2625 737.79925 1196.2325 755.19336 1195.5078 C 772.58743 1194.783 805.61642 1178.7007 833.80273 1177.6758 C 861.98902 1176.6508 885.41153 1209.7533 892.73633 1222.7988 C 896.49987 1229.5017 983.44621 1173.0622 1003.9453 1165.375 C 1024.4445 1157.6878 1142.3138 1131.0394 1145.3887 1122.8398 C 1148.4635 1114.6401 1057.2437 981.90844 1065.4434 977.80859 C 1073.643 973.70875 1097.2774 1013.231 1136.4141 1010.332 C 1175.5508 1007.4331 1232.0823 763.91679 1191.4961 652.30469 C 1150.9099 540.69259 918.98745 518.94949 834.91602 517.5 C 833.6024 517.47735 832.29085 517.46693 830.98242 517.46875 z M 910.76367 581.13281 C 916.76874 581.73253 916.07182 606.214 924.51172 604.72461 C 933.22383 603.18717 967.55827 613.9499 969.0957 620.09961 C 970.63314 626.24935 981.3968 613.94856 989.08398 617.02344 C 996.77117 620.09827 1004.458 637.01106 990.62109 640.08594 C 976.78421 643.16081 970.12055 630.34919 957.30859 629.32422 C 944.49664 628.29929 942.96062 640.59766 935.27344 640.59766 C 927.58629 640.59766 927.58595 625.22266 918.36133 625.22266 C 909.13671 625.22266 904.78116 656.48473 892.99414 656.22852 C 881.20715 655.97226 853.27582 628.29766 845.07617 627.78516 C 836.87652 627.27269 828.42041 658.79153 830.72656 662.37891 C 833.03272 665.96624 842.02443 687.49023 829.18945 687.49023 C 817.39967 687.49023 815.86557 669.04102 805.10352 669.04102 C 794.34146 669.04102 774.36177 742.45998 765.38672 742.83789 C 753.21535 743.35039 764.35211 703.69499 750.86328 669.83008 C 739.39574 641.03975 705.29482 602.82044 715.33203 598.67188 C 721.85482 595.41048 729.10197 615.34168 741.78516 616.06641 C 754.46834 616.79117 771.86361 617.15391 775.125 609.18164 C 778.38639 601.20933 777.29897 586.35051 791.43164 586.71289 C 805.56435 587.07535 824.0447 607.73152 834.91602 607.36914 C 845.78734 607.00668 856.29617 589.97536 864.63086 591.0625 C 872.96551 592.14964 874.05251 606.28215 884.92383 606.64453 C 895.79511 607.00699 903.4999 582.17536 910.16211 581.15039 C 910.3703 581.11836 910.56996 581.11347 910.76367 581.13281 z "
         transform="scale(0.26458333)"
         id="path829" />
      <path
         style="fill:#000000;stroke:none;stroke-width:0.26458332px;stroke-linecap:butt;stroke-linejoin:miter;stroke-opacity:1;fill-opacity:1"
         d="m 307.19596,306.81919 c 3.45162,1.7258 12.46425,13.03951 10.93017,14.76534 -1.53405,1.72582 -15.34062,0.95879 -16.10765,2.30108 -0.76702,1.34231 18.6005,1.34231 20.5181,3.64342 1.91757,2.30108 39.88559,32.21529 35.47517,35.09166 -4.41042,2.87636 -23.63888,-29.06139 -50.8931,-29.06139 -27.25426,0 -68.18847,53.41462 -71.25659,55.33221 -3.06813,1.91757 17.25819,-34.5164 12.27249,-34.5164 -4.9857,0 -5.94449,12.46425 -8.82085,12.46425 -2.87637,0 -13.03953,-28.5719 -11.50547,-30.87301 1.53406,-2.30108 63.28005,-30.87298 79.38773,-29.14716 z"
         id="path835" />
      <path
         style="fill:#000000;stroke:none;stroke-width:0.26458332px;stroke-linecap:butt;stroke-linejoin:miter;stroke-opacity:1;fill-opacity:1"
         d="m 225.78596,353.09295 c 2.17316,-0.58229 8.15852,14.12993 8.15852,20.26617 0,6.13624 -9.77965,31.83181 -13.23129,31.83181 -3.45164,0 9.17147,-22.81354 8.78796,-33.55197 -0.38352,-10.73846 -6.33535,-17.84394 -3.71519,-18.54601 z"
         id="path837" />
      <path
         style="fill:#000000;stroke:none;stroke-width:0.26458332px;stroke-linecap:butt;stroke-linejoin:miter;stroke-opacity:1;fill-opacity:1"
         d="m 230.58872,407.01261 c 2.39697,1.05468 54.97059,-64.36855 76.66552,-64.36855 21.69491,0 43.47888,25.79702 45.01695,24.40678 1.71004,-1.54569 -25.35594,-29.01696 -44.2034,-29.01696 -18.84747,0 -82.08307,66.32062 -77.47907,68.97873 z"
         id="path839" />
      <path
         style="fill:#000000;stroke:none;stroke-width:0.26458332px;stroke-linecap:butt;stroke-linejoin:miter;stroke-opacity:1;fill-opacity:1"
         d="m 271.91253,408.54667 c -1.72583,-1.34229 13.61479,-57.14381 39.59796,-57.14381 25.9832,0 37.48865,23.01094 37.48865,25.02439 0,2.01346 -77.08661,40.36502 -77.08661,32.11942 z"
         id="path841" />
    </g>
  </g>
</svg>
