<?xml version="1.0" encoding="UTF-8" standalone="no"?>
<svg
   xmlns:dc="http://purl.org/dc/elements/1.1/"
   xmlns:cc="http://creativecommons.org/ns#"
   xmlns:rdf="http://www.w3.org/1999/02/22-rdf-syntax-ns#"
   xmlns:svg="http://www.w3.org/2000/svg"
   xmlns="http://www.w3.org/2000/svg"
   id="svg885"
   version="1.1"
   viewBox="0 0 512 512"
   height="512mm"
   width="512mm">
  <defs
     id="defs879" />
  <metadata
     id="metadata882">
    <rdf:RDF>
      <cc:Work
         rdf:about="">
        <dc:format>image/svg+xml</dc:format>
        <dc:type
           rdf:resource="http://purl.org/dc/dcmitype/StillImage" />
        <dc:title></dc:title>
      </cc:Work>
    </rdf:RDF>
  </metadata>
  <g
     style="opacity:1"
     id="layer1">
    <g
       id="g847">
      <path
         style="fill:#000000;fill-opacity:1;stroke:none;stroke-width:0.26458332px;stroke-linecap:butt;stroke-linejoin:miter;stroke-opacity:1"
         d="m 208.05718,141.14047 c 5.42373,-12.44732 88.96102,-28.91454 105.48041,17.47721 -20.09077,1.10362 -41.62506,8.98536 -41.62506,8.98536 0,0 -30.66199,-30.16378 -63.85535,-26.46257 z"
         id="path830" />
      <path
         style="fill:#000000;stroke:none;stroke-width:0.26458332px;stroke-linecap:butt;stroke-linejoin:miter;stroke-opacity:1;fill-opacity:1"
         d="m 145.35239,175.27335 c 0,0 21.28511,-25.12027 47.55592,-23.58621 26.27082,1.53407 59.63667,15.53238 59.82843,17.44996 0.19176,1.91758 -63.28006,-36.24222 -107.38435,6.13625 z"
         id="path832" />
      <path
         style="fill:#000000;fill-opacity:1;stroke:none;stroke-width:0.26458332px;stroke-linecap:butt;stroke-linejoin:miter;stroke-opacity:1"
         d="m 161.35593,209.22034 c 0,-2.71187 3.11865,-20.20339 4.74576,-18.44068 1.62712,1.76271 -0.54237,13.9661 2.0339,15.32203 2.57627,1.35593 3.25424,-2.84746 5.69492,-1.62712 2.44068,1.22034 5.15254,4.33899 6.37288,1.76271 1.22034,-2.57627 -0.29199,-4.17655 -0.54237,-7.38983 -0.40679,-5.22033 -0.94916,-10.64406 0.27118,-8.33898 3.12997,5.91216 3.38983,14.23729 4.33898,13.83051 0.94916,-0.40678 1.89831,-3.79661 3.79661,-3.79661 1.89831,0 3.25424,-1.22034 3.79661,-2.44068 0.54238,-1.22034 -0.94915,-9.76271 2.84746,-8.81356 3.79661,0.94915 0.67797,6.77966 2.71187,7.72882 2.03389,0.94915 8.94915,-0.54238 10.03389,-2.98306 1.08475,-2.44067 2.98305,-2.03389 3.79661,-0.94915 0.81356,1.08475 -1.22033,3.11865 1.22034,3.38983 2.44068,0.27119 1.62712,-7.05084 4.88136,-7.18644 3.25424,-0.13559 0,2.1695 4.88136,0.54238 4.88135,-1.62712 -1.22034,-3.38983 3.25423,-4.88136 4.47458,-1.49153 0.81356,-0.94915 6.64407,-2.44068 5.83051,-1.49152 13.48792,0.51857 10.44068,2.44068 -8.81356,5.55932 -46.64407,27.52542 -74.0339,62.1017 -4.0678,0.13559 -7.18644,-37.83051 -7.18644,-37.83051 z"
         id="path834" />
      <path
         style="fill:#000000;fill-opacity:1;stroke:none;stroke-width:0.26458332px;stroke-linecap:butt;stroke-linejoin:miter;stroke-opacity:1"
         d="m 289.746,179.87554 c 0,0 0.57526,14.19007 -1.72583,16.49116 -2.3011,2.3011 0,37.96804 0,37.96804 0,0 -0.57528,4.21868 -4.60218,4.41043 -4.02691,0.19176 -4.02691,-4.79394 -4.02691,-4.79394 0,0 0.95877,-32.21531 -0.38351,-32.21531 -1.34231,0 0,54.45921 0,54.45921 0,0 0.19174,4.60219 -4.21868,4.79394 -4.41044,0.19176 -4.60219,-5.36921 -4.60219,-5.36921 0,0 1.72583,-50.4323 0,-50.04878 -1.72582,0.38351 -2.87636,33.17409 -2.87636,33.17409 0,0 0.38351,4.60219 -3.25989,4.60219 -3.6434,0 -4.60219,-0.76703 -4.60219,-6.13625 0,-5.36922 -0.19176,-36.24222 -0.19176,-36.24222 0,0 0.38352,-3.06812 -4.60218,-2.49285 -4.98571,0.57527 -68.07401,43.52901 -76.31959,60.78722 -8.24559,17.2582 0,9.20436 -6.51977,9.20436 -6.51976,0 -7.67031,-7.09503 -10.93019,-4.98569 -3.25988,2.10933 3.64339,8.82086 1.3423,13.42305 -2.30109,4.60218 -6.13625,2.30108 -6.13625,6.90327 0,4.60218 7.2868,6.13624 7.2868,9.9714 0,3.83516 -0.76703,9.20438 2.68461,11.50546 3.45164,2.30111 20.70984,8.05384 22.2439,11.889 1.53406,3.83513 3.06812,10.35492 6.90328,8.43732 3.83516,-1.91756 22.2439,-10.73843 22.2439,-10.73843 0,0 -1.15055,21.47686 -10.35492,28.76368 -9.20437,7.28678 -36.43397,39.5021 -37.20101,45.63834 32.5889,25.1193 112.05702,31.64568 114.00517,20.88797 -5.64509,-4.7916 -17.35924,-16.66929 -14.29113,-27.79124 3.06813,-11.12197 18.40875,-34.5164 19.55929,-39.88562 1.15055,-5.36921 4.90062,-26.93914 11.42041,-32.69187 6.51975,-5.75276 14.27513,-8.7278 25.39708,-8.7278 11.12195,0 15.34062,-9.9714 15.34062,-13.42305 0,-3.45165 -4.9857,-7.28681 -6.13624,-8.82087 -1.15054,-1.53405 -0.76703,-6.13624 1.91757,-9.20437 2.68462,-3.06811 4.9857,-4.21868 4.21867,-6.51976 -0.76703,-2.30109 -4.21867,-4.60219 -4.21867,-5.75273 0,-1.15055 6.13626,-3.83516 5.75275,-5.75274 -0.38351,-1.91757 -4.48986,-9.82053 -4.87338,-13.27217 -0.38351,-3.45164 10.93585,-8.9252 10.96309,-15.51874 -1.59987,-4.69525 -25.2655,-13.58755 -24.49847,-16.65568 0.76702,-3.06812 -1.53405,-11.31371 1.15055,-13.23128 2.68462,-1.91758 4.21867,-4.21868 1.53408,-8.43735 -2.68462,-4.21867 1.91756,-9.9714 -8.82087,-9.9714 -10.73843,0 -27.22962,3.45164 -28.5719,5.36922 z"
         id="path836" />
    </g>
  </g>
</svg>
