<?xml version="1.0" encoding="UTF-8" standalone="no"?>
<svg
   xmlns:dc="http://purl.org/dc/elements/1.1/"
   xmlns:cc="http://creativecommons.org/ns#"
   xmlns:rdf="http://www.w3.org/1999/02/22-rdf-syntax-ns#"
   xmlns:svg="http://www.w3.org/2000/svg"
   xmlns="http://www.w3.org/2000/svg"
   id="svg26"
   preserveAspectRatio="xMidYMid meet"
   viewBox="0 0 1066.000000 1280.000000"
   height="1280.000000pt"
   width="1066.000000pt"
   version="1.0">
  <metadata
     id="metadata32">
    <rdf:RDF>
      <cc:Work
         rdf:about="">
        <dc:format>image/svg+xml</dc:format>
        <dc:type
           rdf:resource="http://purl.org/dc/dcmitype/StillImage" />
        <dc:title></dc:title>
      </cc:Work>
    </rdf:RDF>
  </metadata>
  <defs
     id="defs30" />
  <g
     id="g24"
     stroke="none"
     fill="#000000"
     transform="translate(0.000000,1280.000000) scale(0.100000,-0.100000)">
    <path
       id="path2"
       d="M4467 11593 c-8 -65 64 -252 106 -274 20 -11 20 -12 -6 -26 -36 -19 -34 -23 10 -16 31 5 35 4 30 -10 -5 -13 -1 -17 14 -17 14 0 19 -5 16 -14 -3 -8 2 -16 14 -19 11 -3 19 -14 19 -25 0 -11 7 -22 15 -26 8 -3 15 -12 15 -20 0 -8 6 -21 13 -28 26 -29 37 -56 24 -61 -8 -3 -6 -9 7 -19 16 -13 17 -19 7 -51 -12 -35 -12 -36 36 -82 38 -36 45 -47 34 -54 -12 -8 -12 -12 -2 -25 12 -14 10 -16 -8 -16 -14 0 -21 -6 -21 -19 0 -11 -4 -21 -9 -23 -4 -1 -11 -12 -15 -24 -5 -15 -1 -24 16 -32 23 -11 23 -11 -4 -11 -17 -1 -29 -8 -33 -21 -3 -11 -15 -20 -25 -20 -13 0 -17 -5 -14 -15 4 -9 0 -15 -10 -15 -18 0 -20 -8 -6 -30 6 -10 4 -20 -6 -31 -12 -14 -12 -18 -1 -28 18 -15 10 -62 -9 -54 -12 4 -12 0 -4 -22 13 -35 13 -40 -5 -25 -13 10 -15 9 -15 -9 0 -11 -5 -21 -11 -21 -7 0 -9 -10 -4 -27 12 -51 -12 -12 -100 165 -48 96 -89 172 -91 169 -3 -3 18 -49 46 -103 73 -140 122 -254 125 -291 3 -38 -1 -40 -28 -15 -19 16 -20 16 -14 0 3 -10 3 -28 -2 -40 -8 -21 -16 -16 -117 82 -100 97 -178 165 -229 199 -23 16 4 -9 133 -122 153 -134 269 -281 133 -169 -25 21 -64 51 -86 66 -34 24 -32 22 10 -15 105 -92 128 -116 121 -127 -5 -8 -15 -8 -32 -1 -22 8 -25 7 -20 -7 3 -8 3 -14 -1 -12 -50 25 -107 48 -111 44 -2 -3 20 -17 50 -32 54 -26 55 -27 54 -70 l-1 -44 -55 -1 -55 -2 63 -7 c66 -7 85 -16 63 -29 -19 -12 -4 -31 25 -31 14 0 37 -11 51 -24 26 -24 27 -28 28 -155 2 -105 -1 -131 -12 -136 -16 -6 -10 -51 12 -95 15 -29 7 -69 -42 -218 -21 -64 -25 -85 -15 -91 7 -4 10 -15 6 -25 -6 -17 35 -86 65 -109 35 -26 82 -90 77 -104 -3 -8 -1 -11 4 -8 5 3 28 -6 50 -21 33 -22 52 -27 94 -26 42 1 57 -3 72 -19 26 -28 102 -79 119 -79 8 0 17 -5 21 -11 3 -6 16 -8 28 -5 11 2 40 1 63 -3 23 -5 45 -6 48 -3 2 3 -5 21 -16 41 l-21 36 33 -37 c34 -38 34 -38 79 -26 25 6 58 19 73 29 l29 17 -34 25 c-18 13 -63 42 -100 63 -37 21 -65 40 -63 42 6 6 110 -53 166 -94 26 -19 51 -34 55 -34 19 1 55 40 48 52 -6 10 -4 11 7 1 7 -7 20 -13 29 -14 8 0 31 -19 50 -42 24 -30 27 -35 8 -19 -28 25 -108 43 -108 24 0 -16 -41 -52 -52 -46 -4 3 -8 0 -8 -6 0 -6 -4 -9 -8 -6 -5 3 -21 -2 -36 -10 -16 -7 -37 -14 -47 -14 -31 0 -33 -27 -5 -75 36 -61 23 -57 -15 5 -17 28 -34 50 -37 51 -4 0 -41 0 -82 0 -41 0 -86 5 -100 11 -67 29 -95 45 -121 71 -22 22 -36 28 -61 25 -27 -2 -32 -7 -30 -23 2 -11 7 -51 12 -90 4 -38 18 -127 29 -198 22 -135 26 -180 11 -137 -10 27 -54 287 -66 383 -3 31 -10 57 -15 57 -5 0 -9 -1 -9 -2 0 -2 -7 -21 -16 -43 l-15 -40 4 48 c4 44 2 50 -24 70 -16 11 -28 26 -25 32 2 6 -7 10 -20 10 -31 -2 -44 -15 -15 -15 15 0 21 -4 17 -12 -3 -7 -9 -21 -12 -30 -4 -11 -17 -18 -33 -18 -25 -1 -25 -1 -7 -15 19 -14 19 -15 -7 -15 -20 0 -30 -7 -37 -24 -5 -13 -22 -28 -39 -34 -17 -6 -31 -17 -31 -24 0 -18 -92 -95 -137 -116 -21 -9 -48 -27 -60 -39 -19 -19 -20 -22 -5 -25 11 -2 2 -11 -28 -27 -25 -13 -49 -29 -53 -37 -4 -8 -29 -25 -55 -39 -26 -13 -39 -24 -29 -25 26 0 20 -19 -13 -38 -17 -9 -28 -22 -26 -29 3 -6 -2 -17 -9 -23 -8 -7 -13 -16 -10 -20 3 -4 -13 -23 -34 -43 -39 -35 -75 -93 -66 -107 3 -4 -7 -15 -21 -25 -20 -13 -24 -22 -20 -41 5 -20 3 -24 -17 -24 -13 0 -32 -9 -42 -20 -16 -18 -16 -20 -2 -20 10 0 17 -4 17 -10 0 -5 -9 -10 -19 -10 -11 0 -23 -4 -26 -10 -3 -5 -1 -10 4 -10 19 0 12 -17 -23 -51 -19 -18 -32 -37 -29 -42 3 -4 -3 -17 -12 -27 -9 -10 -14 -23 -11 -29 4 -5 -3 -12 -14 -16 -13 -4 -20 -15 -20 -31 0 -16 -8 -28 -24 -35 -18 -9 -24 -18 -21 -38 2 -18 -8 -37 -31 -64 -19 -20 -34 -43 -34 -51 0 -7 -7 -19 -15 -26 -8 -7 -17 -28 -21 -49 -3 -20 -14 -50 -24 -67 -17 -30 -30 -81 -35 -137 -2 -15 -10 -36 -20 -47 -9 -10 -14 -23 -11 -28 3 -5 1 -24 -6 -42 -8 -25 -8 -38 1 -51 6 -11 7 -19 2 -19 -10 0 -29 -47 -29 -70 0 -40 -11 -82 -26 -99 -9 -9 -16 -23 -16 -30 0 -7 -9 -25 -21 -39 -18 -23 -19 -28 -5 -38 14 -10 11 -16 -19 -47 -19 -20 -35 -43 -35 -52 0 -9 -6 -31 -14 -49 -10 -23 -12 -46 -7 -69 5 -19 4 -56 -1 -83 -5 -27 -9 -70 -8 -96 0 -27 -6 -61 -16 -80 -9 -18 -18 -44 -19 -58 -2 -33 -22 -94 -47 -147 -11 -23 -17 -51 -14 -61 6 -18 -20 -89 -66 -177 -11 -22 -21 -56 -23 -75 -1 -19 -9 -51 -17 -71 -12 -27 -13 -40 -5 -48 8 -8 8 -19 0 -41 -8 -21 -8 -30 1 -33 8 -3 8 -8 -1 -19 -7 -8 -14 -24 -16 -35 -2 -12 -9 -28 -15 -36 -9 -11 -10 -17 -2 -22 8 -5 6 -13 -6 -26 -16 -18 -16 -19 15 -25 40 -8 47 -20 30 -51 -10 -18 -10 -29 -2 -42 7 -11 8 -23 1 -34 -6 -11 -5 -17 2 -17 7 0 9 -27 7 -85 -3 -53 -1 -85 5 -85 6 0 8 -6 5 -14 -3 -8 -1 -17 6 -19 9 -3 9 -8 -2 -20 -9 -11 -11 -28 -7 -49 6 -29 9 -126 7 -198 -1 -14 -1 -36 -1 -49 0 -14 -10 -35 -22 -48 -19 -21 -20 -23 -3 -23 15 0 13 -3 -8 -20 -28 -22 -43 -66 -28 -84 7 -8 4 -22 -9 -44 -18 -29 -18 -32 -3 -32 14 0 14 -3 -4 -22 -11 -13 -24 -33 -28 -46 -3 -12 -15 -27 -26 -32 -10 -6 -19 -17 -19 -26 0 -8 -7 -17 -15 -20 -8 -3 -28 -30 -45 -59 -30 -53 -49 -65 -102 -65 -21 0 -29 -6 -34 -25 -3 -14 -11 -25 -18 -25 -20 0 -39 -40 -26 -55 12 -15 15 -11 -65 -79 -57 -49 -113 -165 -110 -229 2 -26 -2 -50 -8 -54 -6 -4 -3 -9 8 -13 12 -4 19 -19 22 -46 2 -21 8 -41 14 -42 5 -2 14 -13 20 -24 9 -16 7 -24 -11 -43 l-21 -23 24 -6 c17 -4 27 -17 37 -48 8 -24 17 -48 22 -54 5 -7 6 -30 2 -52 -4 -25 -2 -42 5 -46 6 -4 11 -21 11 -38 0 -25 11 -43 53 -84 39 -37 57 -65 67 -98 7 -26 19 -46 26 -46 8 0 14 -10 14 -25 0 -14 4 -25 9 -25 5 0 13 -9 16 -20 3 -11 12 -20 20 -20 7 0 16 -7 19 -16 4 -9 13 -14 21 -10 11 4 15 -1 15 -17 1 -60 31 -93 55 -60 8 10 15 16 17 13 2 -3 14 -18 26 -34 18 -23 23 -25 28 -12 5 13 15 8 53 -24 26 -22 54 -40 62 -40 17 0 47 -31 75 -78 10 -18 25 -32 34 -32 9 0 22 -6 29 -13 11 -10 13 -8 8 11 -7 30 4 28 38 -8 16 -16 32 -30 37 -30 4 0 38 -21 74 -46 36 -25 89 -56 117 -68 53 -24 157 -40 157 -25 0 5 14 6 30 3 24 -5 30 -3 30 10 0 13 5 16 20 11 20 -6 80 22 80 38 0 5 9 5 20 2 11 -4 20 -2 20 4 0 6 7 8 14 5 11 -4 14 1 12 23 -2 15 -5 28 -6 28 -9 0 -7 81 3 87 8 5 6 12 -6 26 -22 24 -22 33 0 25 10 -4 3 12 -20 41 -20 27 -34 53 -31 58 3 5 -2 18 -11 28 -9 10 -14 23 -10 29 3 6 -15 31 -40 56 -47 45 -50 54 -14 35 10 -6 19 -8 19 -5 0 20 -24 44 -59 59 -26 12 -41 26 -43 40 -2 13 -14 25 -34 31 -17 6 -46 22 -65 37 -20 14 -51 33 -70 41 -19 7 -41 22 -49 32 -9 11 -10 16 -2 11 18 -11 14 8 -8 37 -25 31 -25 37 -2 37 13 1 10 6 -13 25 -23 19 -26 25 -12 25 9 0 17 5 17 10 0 6 12 10 28 11 21 0 23 2 9 8 -10 4 -18 11 -18 16 0 6 -8 18 -17 28 -16 18 -16 20 4 35 20 17 25 56 10 80 -4 7 -2 20 5 28 11 13 15 13 23 2 6 -7 29 -13 51 -13 22 1 46 -3 52 -8 7 -5 24 -6 38 -3 18 5 27 2 31 -8 5 -13 30 -15 154 -12 81 2 152 6 157 9 6 4 41 7 79 8 38 1 89 9 114 17 26 9 89 16 150 18 58 1 128 6 155 12 59 11 531 7 660 -6 50 -5 99 -6 110 -2 11 3 137 1 280 -6 143 -6 288 -11 323 -10 61 2 65 4 101 43 33 35 40 51 50 118 12 71 11 78 -6 90 -72 52 -66 63 9 16 l46 -29 -5 -74 c-2 -40 -8 -74 -14 -76 -5 -2 -9 -11 -9 -19 0 -9 -14 -29 -32 -45 l-32 -28 61 0 c130 0 152 8 215 73 43 45 59 70 66 104 17 80 -8 138 -75 173 -65 33 -94 52 -89 57 9 9 162 -69 179 -92 20 -28 25 -82 14 -139 -7 -30 -5 -37 5 -34 7 3 15 18 16 34 2 16 8 34 12 39 12 15 6 93 -8 107 -7 7 -12 17 -12 24 0 7 -20 24 -45 38 -25 15 -53 35 -63 45 -9 9 -33 24 -52 31 -19 8 -39 20 -43 27 -5 8 -33 25 -63 38 -30 13 -54 28 -54 33 0 6 -6 10 -12 9 -7 0 -53 1 -103 1 -71 2 -86 5 -77 14 15 15 211 16 221 1 6 -10 92 -53 105 -53 4 0 16 -9 28 -20 27 -25 63 -27 54 -4 -3 9 -6 23 -6 32 0 13 -5 11 -20 -8 -21 -27 -26 -16 -10 24 5 15 6 26 0 26 -13 0 19 86 38 102 14 11 15 10 8 -7 -19 -47 -17 -59 4 -27 23 34 36 42 26 17 -3 -8 -3 -29 1 -46 l6 -30 28 27 c31 29 36 26 18 -9 -7 -11 -13 -44 -15 -71 -3 -50 -2 -50 14 -27 l16 23 12 -38 c7 -22 12 -31 13 -21 1 18 21 25 21 6 0 -5 4 -7 10 -4 6 4 10 -13 11 -42 l0 -48 16 33 c9 17 20 32 24 32 4 0 11 -30 15 -67 6 -60 8 -65 21 -48 12 18 13 16 7 -13 -4 -17 -3 -53 1 -79 l7 -48 16 30 c13 24 17 26 20 12 2 -9 8 -15 13 -12 5 4 4 -6 -1 -21 -10 -25 -9 -26 6 -13 16 13 17 11 10 -15 -6 -23 -4 -27 8 -23 10 4 16 1 16 -9 0 -9 11 -25 25 -35 14 -12 22 -26 18 -34 -3 -8 0 -15 6 -15 6 0 11 6 11 13 0 6 10 -4 22 -23 12 -19 23 -37 25 -39 8 -11 214 -37 268 -34 130 6 150 12 139 45 -3 11 -8 39 -10 61 -2 23 -8 45 -14 51 -5 5 -10 18 -10 27 0 10 -19 36 -42 60 l-43 42 45 -26 c47 -26 96 -96 86 -123 -3 -7 1 -29 10 -49 8 -19 12 -46 8 -60 -6 -25 -5 -25 62 -26 96 -2 117 1 134 16 12 11 18 11 33 0 14 -10 24 -10 50 -1 50 18 77 36 77 51 0 7 6 15 13 18 9 3 9 12 -1 41 -16 45 -8 61 10 20 l13 -28 6 34 c6 32 7 33 14 12 7 -20 12 -22 38 -16 49 10 67 26 79 69 6 22 16 46 22 54 17 22 12 153 -7 193 -9 20 -34 51 -54 69 -38 35 -46 39 -159 78 l-60 22 -18 72 c-33 132 -37 152 -48 237 -12 91 -13 262 -2 375 4 39 7 82 7 98 0 15 3 27 7 27 3 0 6 27 4 59 -1 44 2 61 13 65 9 4 12 13 8 26 -5 15 -2 20 12 20 17 1 17 2 -1 15 -11 8 -18 16 -15 18 26 19 60 36 80 39 26 5 27 4 -31 26 -10 3 -5 7 15 11 30 7 30 7 5 14 -30 8 -20 20 35 38 l40 13 -35 6 c-28 4 -31 7 -16 13 10 4 16 10 13 14 -4 3 1 12 11 19 16 13 16 13 0 14 -10 0 -27 8 -37 17 -20 16 -20 17 10 35 32 19 31 21 -15 68 -17 17 -17 20 -3 20 9 0 22 9 30 20 8 12 33 24 58 29 24 5 37 9 29 10 -36 3 -90 23 -85 32 4 5 1 9 -4 9 -25 0 -8 18 32 34 36 15 39 19 22 25 -15 6 -9 10 28 15 56 9 63 26 9 26 -45 0 -56 8 -41 27 9 9 8 13 0 13 -6 0 -11 5 -11 10 0 6 9 10 20 10 11 0 20 7 20 15 0 11 11 15 36 15 21 0 33 4 29 10 -3 6 -20 10 -36 10 l-29 0 17 26 c19 29 20 29 -47 6 -12 -4 -13 -2 -2 9 16 17 16 32 0 24 -7 -4 2 5 19 20 32 25 32 27 16 51 -8 14 -13 27 -11 30 3 3 37 10 74 16 38 6 73 14 77 18 5 5 -17 16 -50 26 -46 15 -59 24 -61 42 -2 14 -14 27 -30 34 l-27 11 33 7 c44 10 49 17 26 34 -18 14 -18 15 6 24 14 5 32 12 40 15 8 3 2 6 -15 7 -16 1 -39 5 -50 10 -18 7 -17 8 10 16 17 4 35 14 42 23 9 13 7 18 -10 28 -19 11 -19 12 -4 13 10 0 15 4 12 10 -3 5 7 12 22 16 81 18 103 26 98 35 -4 5 -12 9 -18 8 -27 -3 -80 1 -75 7 3 3 36 9 73 15 71 10 120 28 78 29 -13 0 -23 4 -23 9 0 4 -32 11 -71 13 -82 6 -120 28 -48 28 l44 0 -23 18 c-24 19 -20 32 9 32 10 0 22 6 26 13 4 8 17 17 28 22 16 6 6 11 -43 21 -107 23 -108 34 -2 27 94 -6 116 3 43 17 l-38 8 33 1 c45 1 33 16 -25 31 l-48 13 43 8 c66 12 72 22 22 36 l-45 13 50 -5 c46 -4 49 -3 30 11 -11 8 -30 17 -42 21 -13 3 -23 9 -23 15 0 5 10 6 21 3 35 -11 12 15 -30 33 l-36 16 47 6 c51 6 76 20 37 20 -13 0 -31 5 -39 10 -11 7 -6 10 20 11 19 0 44 4 55 9 18 7 18 9 -10 19 -61 23 -62 24 -41 29 15 3 16 6 5 13 -9 6 1 9 31 10 30 1 36 3 18 6 -35 5 -37 23 -3 23 29 0 33 16 6 25 -29 9 -35 35 -8 35 20 1 19 2 -8 18 l-30 17 25 3 c44 6 43 19 -4 37 -25 10 -46 21 -46 26 0 4 28 9 63 11 l62 3 -65 21 c-64 22 -65 22 -32 29 24 6 30 11 22 20 -12 14 6 24 43 26 16 0 9 6 -23 21 -39 18 -42 21 -25 28 11 5 16 9 10 10 -5 1 6 7 25 15 31 11 32 14 15 20 -11 4 -31 12 -44 18 -24 12 -24 12 10 17 l34 6 -45 16 c-58 21 -26 23 36 2 60 -20 68 -11 14 16 l-42 22 28 14 c42 22 52 34 27 34 -12 0 -25 5 -28 10 -4 6 7 10 25 10 18 0 29 4 25 10 -3 6 -17 10 -30 10 -13 0 -27 5 -30 10 -3 6 -1 10 5 10 7 0 10 7 7 14 -4 9 2 17 15 21 14 5 17 10 9 18 -6 6 -11 19 -11 29 0 10 -7 21 -15 24 -21 8 -8 24 19 24 42 0 48 20 15 59 -23 28 -26 37 -14 39 20 4 19 12 -2 28 -11 8 -13 13 -5 14 6 0 12 11 12 24 0 14 4 27 10 31 5 3 7 12 3 20 -3 10 1 15 13 15 15 0 14 3 -6 25 l-24 25 35 -6 c19 -3 40 -7 47 -10 28 -8 9 7 -38 31 -49 25 -57 38 -61 95 -4 55 -1 59 39 54 l37 -5 -27 15 c-34 20 -28 56 11 57 24 0 25 1 7 12 -50 31 -71 67 -40 67 8 0 13 4 9 9 -3 6 2 14 12 20 15 8 14 11 -15 28 -33 19 -41 33 -19 33 7 0 4 7 -7 15 -19 14 -18 15 13 15 18 0 30 4 27 9 -4 5 0 12 6 14 10 4 9 8 -2 16 -12 8 -8 11 20 11 l35 1 -45 18 c-48 20 -64 41 -31 41 26 0 27 12 1 35 -11 10 -20 22 -20 27 0 4 9 8 20 8 28 0 25 18 -5 26 -27 7 -34 24 -10 24 13 0 13 4 3 23 -7 12 -17 25 -23 29 -13 10 -7 14 50 30 l50 15 -40 8 c-66 13 -90 48 -40 61 28 7 32 19 10 28 -8 3 -12 12 -9 21 5 11 -1 15 -24 15 -36 0 -50 15 -24 25 16 6 16 7 -2 17 -15 8 -16 12 -5 19 12 8 12 10 0 18 -11 7 -5 11 22 16 49 9 63 30 15 22 -19 -3 -39 -2 -44 1 -20 15 -40 58 -38 83 2 19 -4 29 -19 37 -22 10 -21 10 6 17 l27 7 -20 18 c-13 11 -17 21 -10 25 16 10 12 25 -6 25 -14 0 -14 3 -4 15 10 12 10 18 -1 31 -17 21 -12 64 9 80 18 13 17 14 -28 27 -10 2 -6 9 15 20 32 16 29 19 -29 32 -22 5 -26 9 -16 15 10 6 7 14 -14 34 -15 14 -25 30 -21 36 3 5 -1 13 -9 16 -9 3 -14 10 -11 14 3 4 -3 11 -13 15 -15 6 -14 8 6 16 27 10 25 32 -4 38 -25 5 -35 21 -23 42 7 14 5 16 -14 12 -22 -5 -22 -5 -2 10 19 16 19 16 -15 17 -31 1 -33 2 -18 14 21 16 14 26 -21 27 -24 1 -24 2 7 11 17 6 32 14 32 18 0 10 -37 20 -72 20 -28 0 -31 5 -31 53 0 9 -6 17 -13 17 -13 0 -19 13 -15 33 1 5 -3 6 -9 2 -5 -3 -10 -1 -10 5 0 8 -6 8 -21 0 -19 -11 -20 -10 -10 9 10 17 9 20 -5 14 -20 -7 -16 2 24 55 l25 32 -44 -25 c-63 -35 -69 -31 -24 17 26 27 31 36 15 25 -56 -38 -64 -41 -56 -22 6 16 5 16 -18 1 -30 -19 -45 -21 -28 -4 17 17 15 28 -4 28 -10 0 -14 6 -11 14 4 11 1 13 -10 9 -12 -5 -15 -2 -10 10 8 20 -3 22 -22 5 -14 -13 -13 -8 4 35 4 8 -8 12 -42 12 -40 0 -48 3 -45 18 2 13 -4 17 -28 17 -20 0 -30 5 -30 15 0 8 5 15 10 15 21 0 9 30 -15 36 -19 5 -23 9 -15 19 12 15 -7 25 -46 25 -27 0 -32 15 -9 24 18 7 20 46 3 46 -8 0 -5 7 6 15 19 14 19 15 -6 15 -44 0 -41 18 4 28 l43 10 -43 1 c-38 1 -43 3 -37 20 5 16 -1 20 -44 26 -45 6 -50 9 -41 25 5 9 24 20 42 24 47 9 18 26 -47 26 -48 1 -49 1 -25 14 l25 14 -30 4 c-21 2 -29 8 -27 19 1 9 -5 22 -13 29 -12 10 -13 16 -4 26 9 11 5 14 -24 14 -51 0 -70 9 -56 26 9 11 9 14 0 14 -8 0 -10 8 -6 20 5 14 2 20 -9 20 -9 0 -16 4 -16 9 0 5 -16 12 -35 15 -32 6 -59 26 -36 26 21 0 11 18 -14 24 -14 4 -25 13 -25 20 0 8 -17 20 -37 27 -54 17 -56 19 -36 35 17 13 17 13 -4 14 -34 0 -74 22 -69 36 3 9 -7 15 -32 19 -20 3 -52 8 -70 11 -24 4 -32 9 -28 20 4 10 -3 14 -29 14 -19 0 -35 4 -35 9 0 15 -29 21 -55 11 -34 -13 -88 -2 -81 17 5 11 -3 14 -37 12 -23 -1 -50 2 -59 6 -33 14 -38 0 -13 -37 14 -20 25 -45 25 -55 0 -11 4 -23 9 -28 5 -6 14 -35 19 -65 8 -45 7 -60 -6 -85 -10 -16 -20 -31 -24 -33 -4 -2 -4 -11 -1 -20 5 -13 3 -14 -6 -6 -10 10 -10 19 3 45 31 65 0 176 -78 283 -27 36 -52 66 -56 66 -5 0 -18 11 -31 25 -13 13 -29 25 -34 25 -6 0 -30 11 -55 24 -87 45 -210 80 -283 78 -58 -1 -74 -6 -112 -32 -25 -17 -49 -39 -55 -49 -18 -35 -14 -207 6 -276 4 -13 3 -17 -4 -10 -11 12 -42 158 -42 202 0 34 -14 44 -67 48 -18 1 -38 7 -45 12 -7 6 -33 16 -58 23 -24 7 -55 20 -68 31 -14 10 -33 19 -44 19 -10 0 -21 6 -24 14 -3 8 -19 17 -36 20 -18 3 -40 14 -50 23 -12 10 -18 12 -18 4 0 -7 -5 -9 -12 -5 -6 4 -27 9 -46 11 -20 2 -50 10 -66 17 -73 32 -293 106 -316 106 -4 0 -10 -17 -13 -37z m1633 -693 c0 -5 -4 -10 -10 -10 -5 0 -10 5 -10 10 0 6 5 10 10 10 6 0 10 -4 10 -10z m-99 -42 c-3 -21 -6 -26 -9 -15 -3 17 3 47 11 47 2 0 1 -15 -2 -32z m-953 -911 c1 -19 6 -47 12 -63 14 -35 59 -84 78 -84 10 0 7 6 -7 18 -12 9 -24 30 -27 46 -3 16 -9 37 -14 47 -15 27 -13 29 24 29 29 0 35 -4 41 -27 l7 -28 13 31 c8 21 24 35 46 43 18 6 34 10 35 8 9 -9 -49 -136 -59 -130 -6 4 -7 1 -3 -6 5 -8 -8 -26 -33 -49 -41 -36 -44 -37 -121 -37 -44 -1 -80 2 -80 6 0 4 7 23 15 42 19 45 19 48 -2 40 -12 -5 -14 -3 -8 8 5 7 11 32 12 54 3 29 11 46 31 62 35 30 39 29 40 -10z m770 -683 c95 -21 382 -134 382 -150 0 -2 -30 8 -67 22 -195 74 -239 89 -368 120 -118 29 -130 33 -75 28 36 -3 93 -12 128 -20z m-1133 -11 c18 -14 18 -15 2 -9 -10 3 -30 6 -43 6 -14 0 -22 4 -19 10 9 15 37 12 60 -7z m75 -33 c-6 -11 -15 -20 -21 -20 -5 0 -20 -11 -33 -25 -20 -21 -25 -23 -41 -11 -22 16 -12 36 18 36 29 0 51 15 43 29 -5 7 2 11 19 11 23 0 24 -2 15 -20z m727 -66 c231 -55 378 -118 573 -248 96 -65 269 -204 305 -247 24 -29 15 -22 -100 70 -216 174 -467 320 -562 326 -62 5 -60 4 -44 14 11 7 10 10 -5 15 -47 14 -259 56 -287 57 -18 0 -26 3 -19 6 10 4 9 8 -5 19 -17 12 -16 13 9 14 14 0 75 -12 135 -26z m203 -10 c241 -55 462 -135 615 -222 87 -49 232 -146 280 -187 39 -34 24 -26 -115 61 -282 176 -429 237 -805 335 -194 50 -176 60 25 13z m-367 9 c-7 -2 -21 -2 -30 0 -10 3 -4 5 12 5 17 0 24 -2 18 -5z m-62 -74 c60 -33 109 -62 109 -64 0 -4 -231 113 -239 121 -2 2 1 4 8 4 7 0 62 -27 122 -61z m-536 1 c10 -11 16 -20 13 -20 -3 0 -15 9 -28 20 -13 11 -19 20 -13 20 5 0 18 -9 28 -20z m818 -6 c45 -14 100 -34 122 -44 22 -10 83 -37 135 -61 123 -54 252 -132 384 -230 58 -43 124 -90 147 -104 22 -15 38 -29 35 -32 -3 -3 -20 4 -38 15 -48 31 -128 73 -128 68 0 -2 37 -34 83 -69 45 -36 100 -84 122 -108 40 -43 40 -43 -20 8 -133 112 -364 262 -501 324 -129 58 -298 129 -301 125 -2 -2 46 -32 107 -66 120 -69 281 -188 375 -276 74 -70 61 -61 -85 56 -196 157 -410 288 -451 277 -15 -4 -23 0 -26 12 -2 10 -31 31 -64 46 -32 16 -57 30 -55 33 5 4 168 -51 248 -84 85 -36 83 -28 -4 17 -77 39 -94 51 -60 44 29 -7 340 -162 436 -219 201 -118 239 -121 53 -4 -136 86 -255 149 -352 188 -44 18 -89 36 -100 41 -11 5 -54 22 -95 39 -93 36 -77 39 33 4z m902 -494 c3 -5 2 -10 -4 -10 -5 0 -13 5 -16 10 -3 6 -2 10 4 10 5 0 13 -4 16 -10z m-1501 -1595 c4 -11 13 -14 31 -9 19 5 25 2 25 -11 0 -11 5 -15 14 -12 20 8 96 -16 107 -34 8 -12 11 -11 20 4 13 23 26 22 34 -4 5 -16 10 -18 21 -8 11 9 14 7 14 -10 0 -11 5 -21 10 -21 6 0 10 -7 10 -15 0 -9 6 -12 15 -9 10 4 15 0 15 -11 0 -12 5 -15 16 -11 14 5 15 4 5 -8 -14 -17 -5 -24 30 -22 20 1 25 -2 21 -14 -4 -11 0 -10 16 4 24 21 26 19 13 -17 -5 -14 -24 -35 -42 -48 -18 -13 -29 -18 -25 -11 5 8 -3 12 -29 12 -22 0 -34 4 -30 10 7 11 -17 40 -33 40 -6 0 -16 14 -24 30 -7 17 -19 28 -25 25 -7 -2 -18 5 -24 16 -10 20 -11 20 -24 2 -13 -17 -14 -17 -27 0 -8 11 -27 19 -46 19 -18 1 -32 5 -32 10 0 5 -9 6 -20 3 -14 -4 -20 -2 -20 9 0 10 -7 13 -22 11 -15 -3 -29 3 -41 18 l-19 22 5 -22 c4 -19 1 -21 -26 -18 -17 2 -38 0 -48 -6 -13 -7 -20 -5 -28 8 -9 17 -10 17 -28 0 -11 -9 -23 -14 -26 -10 -4 3 -7 -1 -7 -10 0 -20 -11 -22 -28 -5 -10 10 -15 10 -22 -2 -7 -12 -13 -12 -27 -4 -24 15 -24 50 0 46 9 -2 17 2 17 8 0 7 8 9 21 5 14 -5 25 -2 30 6 6 11 11 11 21 1 17 -17 31 -15 24 3 -3 9 0 15 9 15 8 0 15 5 15 10 0 12 37 13 44 1 4 -5 22 -5 43 -1 20 5 41 7 45 4 4 -3 8 2 8 10 0 20 16 21 24 1z m-326 -114 c3 -10 0 -12 -11 -8 -10 4 -18 -1 -22 -14 -4 -10 -15 -19 -26 -19 -11 0 -36 -12 -55 -27 -20 -15 -48 -26 -65 -26 -16 0 -29 -5 -29 -10 0 -5 -9 -7 -19 -4 -12 3 -22 -1 -25 -10 -4 -10 -13 -12 -27 -8 -18 6 -21 4 -15 -10 5 -15 4 -16 -9 -5 -20 16 -20 41 0 34 11 -5 13 -2 9 11 -6 14 -3 16 16 10 17 -5 21 -4 15 6 -6 9 -2 11 14 6 14 -3 24 0 28 9 3 9 13 12 24 9 11 -4 19 -2 19 3 0 5 17 12 38 16 20 3 51 17 67 31 32 26 65 29 73 6z m-327 -143 c10 -18 9 -20 -4 -15 -9 3 -17 1 -19 -4 -2 -5 -39 -11 -83 -13 -44 -1 -90 -8 -103 -15 -13 -7 -43 -18 -67 -25 -36 -11 -43 -11 -38 0 2 7 18 19 34 26 16 7 29 17 29 21 0 5 9 5 20 2 11 -4 20 -2 20 4 0 6 8 11 18 11 10 0 22 4 28 9 11 12 46 18 106 20 39 1 49 -3 59 -21z m1096 6 c-3 -4 0 -13 8 -20 11 -12 20 -11 57 1 l43 15 -25 -20 c-17 -13 -20 -20 -10 -20 21 -1 -34 -48 -66 -56 -25 -6 -58 12 -48 27 3 5 -10 6 -28 2 -32 -6 -33 -6 -15 14 9 11 17 25 17 32 0 6 10 16 23 21 26 10 53 13 44 4z m182 -100 c2 -2 -10 -7 -28 -10 -43 -9 -49 -24 -9 -24 l33 0 -25 -20 c-14 -11 -37 -20 -51 -20 -36 0 -95 25 -80 34 6 4 9 11 6 16 -13 21 37 38 94 33 31 -3 58 -7 60 -9z m-1626 -16 c-13 -12 -26 -18 -30 -14 -4 4 1 14 11 22 31 22 43 17 19 -8z m2758 -28 c9 0 19 -7 22 -15 5 -12 0 -12 -28 2 -19 9 -35 21 -35 27 0 6 5 5 12 -2 7 -7 20 -12 29 -12z m-1164 -46 c13 -4 20 -11 16 -20 -3 -8 0 -14 7 -14 6 0 8 -4 5 -10 -3 -5 0 -10 8 -10 10 0 13 -7 10 -18 -6 -23 38 -45 74 -36 18 5 24 3 19 -5 -4 -6 -27 -16 -52 -22 -42 -11 -62 -32 -26 -28 9 1 24 1 32 0 12 -1 12 -4 -2 -12 -10 -5 -34 -7 -54 -3 -30 6 -35 10 -32 29 3 14 -2 26 -14 34 -12 7 -17 18 -14 28 4 10 2 14 -8 10 -8 -3 -16 2 -19 13 -3 11 1 21 9 24 24 9 15 26 -13 27 -25 0 -26 1 -8 9 25 11 34 11 62 4z m1178 -49 l30 -25 -34 13 c-19 7 -36 18 -39 25 -6 19 11 14 43 -13z m-2880 -5 c3 -5 1 -10 -4 -10 -6 0 -11 5 -11 10 0 6 2 10 4 10 3 0 8 -4 11 -10z m1995 -10 c0 -5 -15 -10 -32 -9 -28 0 -30 2 -13 9 28 12 45 12 45 0z m50 -30 c-43 -22 -116 -38 -106 -22 3 6 25 13 49 17 23 4 49 11 57 16 8 5 20 8 25 8 6 0 -6 -8 -25 -19z m820 -2 c0 -6 -6 -5 -15 2 -8 7 -15 14 -15 16 0 2 7 1 15 -2 8 -4 15 -11 15 -16z m-865 -48 c-11 -5 -27 -9 -35 -9 -13 -1 -13 0 0 9 8 5 24 9 35 9 l20 0 -20 -9z m897 -12 c-17 -8 -26 -8 -34 0 -9 9 -4 12 23 11 32 0 33 -1 11 -11z m-1012 -42 c-36 -18 -64 -37 -63 -42 1 -6 -14 -11 -33 -12 -23 -2 -33 1 -29 8 3 5 -1 10 -9 10 -29 0 -17 18 22 32 20 9 54 16 75 16 21 1 45 6 55 11 9 6 24 10 32 10 8 0 -14 -15 -50 -33z m105 24 c-3 -5 -12 -10 -18 -10 -7 0 -6 4 3 10 19 12 23 12 15 0z m943 -19 c10 -6 7 -10 -12 -13 -14 -3 -34 1 -43 8 -16 12 -15 13 12 14 17 0 36 -4 43 -9z m-888 -10 c-8 -5 -33 -11 -55 -15 -37 -6 -39 -5 -21 9 11 8 36 15 55 15 25 -1 31 -3 21 -9z m884 -57 c4 -10 1 -14 -6 -12 -15 5 -23 28 -10 28 5 0 13 -7 16 -16z m-1030 -34 c15 0 16 -3 6 -15 -10 -12 -9 -15 4 -15 10 0 14 -4 11 -10 -3 -5 -15 -10 -26 -10 -11 0 -32 -8 -46 -17 -19 -13 -28 -14 -31 -5 -2 6 -10 12 -17 12 -15 0 -15 51 0 63 5 4 26 5 45 2 19 -2 43 -5 54 -5z m146 -4 c0 -3 -4 -8 -10 -11 -5 -3 -10 -1 -10 4 0 6 5 11 10 11 6 0 10 -2 10 -4z m941 -29 c12 -22 12 -22 -10 -3 -11 11 -21 23 -21 28 0 14 19 -1 31 -25z m-71 -29 c0 -6 -6 -5 -15 2 -8 7 -15 14 -15 16 0 2 7 1 15 -2 8 -4 15 -11 15 -16z m-10 -22 c7 -9 9 -16 5 -16 -5 0 9 -16 31 -35 l39 -35 -40 15 c-45 18 -110 86 -92 97 13 8 38 -4 57 -26z m-972 2 c-5 -15 -78 -24 -78 -9 0 12 18 19 53 20 19 1 27 -3 25 -11z m140 -36 c28 -30 25 -42 -12 -42 -36 0 -56 14 -34 23 7 3 0 6 -16 6 -34 1 -25 17 14 24 14 2 26 5 28 6 1 0 10 -7 20 -17z m-148 -12 c0 -5 -20 -10 -45 -10 -25 0 -45 5 -45 10 0 6 20 10 45 10 25 0 45 -4 45 -10z m1055 -62 c5 -5 2 -8 -9 -8 -12 0 -16 -5 -12 -15 8 -22 -18 -19 -39 5 -10 11 -14 20 -10 20 4 0 0 9 -11 21 l-19 21 45 -18 c25 -9 49 -21 55 -26z m-1070 21 c-4 -6 1 -17 11 -24 11 -9 14 -14 7 -15 -7 0 -13 -7 -13 -15 0 -18 38 -20 73 -4 18 8 34 7 68 -5 24 -8 38 -15 30 -16 -11 0 -11 -3 -1 -15 8 -9 9 -15 2 -15 -6 0 -9 -9 -7 -19 3 -14 -5 -22 -27 -30 -36 -13 -75 -14 -44 -2 18 7 16 9 -13 24 -17 9 -40 14 -49 11 -14 -5 -15 -4 -2 5 16 12 10 14 -14 5 -16 -6 -11 -33 8 -46 8 -6 7 -11 -2 -16 -17 -12 6 -32 33 -30 28 2 106 -34 102 -46 -2 -6 8 -16 22 -22 26 -11 25 -11 -15 -18 -33 -6 -48 -3 -78 15 -25 14 -35 27 -31 37 4 12 3 13 -10 2 -12 -10 -13 -15 -3 -28 11 -13 9 -14 -17 -8 -39 10 -44 16 -47 51 -1 17 -7 33 -13 37 -6 5 -4 8 5 8 9 0 16 9 17 20 1 11 -4 20 -11 20 -15 0 -17 30 -2 30 6 0 3 7 -8 15 -10 7 -15 18 -11 24 3 6 1 11 -4 11 -6 0 -11 5 -11 10 0 6 9 10 21 10 11 0 17 5 14 10 -3 6 -16 10 -28 10 -27 0 -11 17 23 23 14 2 26 5 28 6 2 0 0 -4 -3 -10z m190 -19 c-11 -5 -14 -9 -7 -9 7 -1 10 -6 6 -12 -6 -10 -67 -5 -87 8 -19 12 9 23 56 22 38 0 47 -3 32 -9z m922 -154 c-2 -6 -13 -12 -25 -14 -24 -4 -38 18 -28 43 5 14 9 14 31 -1 14 -9 24 -22 22 -28z m-1044 -128 c12 -7 29 -12 37 -13 58 -5 57 -5 31 -19 l-24 -14 41 -26 c48 -30 53 -39 15 -30 -23 6 -25 4 -21 -14 6 -20 5 -21 -15 -7 -12 8 -40 15 -63 15 -25 0 -47 6 -54 15 -10 12 -9 15 6 15 17 1 17 2 4 13 -9 7 -17 27 -18 45 -2 26 1 32 18 32 12 0 31 -5 43 -12z m1075 -15 c-10 -2 -15 -10 -11 -19 6 -16 -24 -19 -47 -4 -13 9 -13 11 0 20 8 5 29 9 45 9 17 -1 22 -3 13 -6z m-1036 -126 c-2 -12 4 -21 17 -24 24 -6 29 -33 6 -33 -21 0 -19 -18 4 -25 11 -3 25 -13 32 -21 10 -13 10 -17 -2 -25 -9 -6 1 -9 33 -9 65 0 68 -14 6 -29 -48 -11 -54 -10 -90 14 -42 28 -49 40 -17 32 20 -5 20 -5 2 16 -10 12 -22 25 -27 28 -5 4 -6 12 -2 18 4 6 -5 13 -21 17 l-28 7 28 10 c26 8 38 27 16 27 -5 0 -7 5 -4 11 12 18 50 6 47 -14z m89 -87 l24 -21 -32 16 c-32 15 -42 25 -24 25 5 0 19 -9 32 -20z m976 -65 c-9 -7 -17 -17 -17 -24 0 -6 -4 -11 -10 -11 -9 0 -11 46 -3 63 2 4 14 2 25 -4 20 -11 20 -13 5 -24z m-1008 -41 c13 -12 -8 -10 -29 2 l-25 15 25 -7 c14 -3 27 -8 29 -10z m116 6 c-3 -5 -23 -10 -43 -10 -28 0 -33 3 -22 10 20 13 73 13 65 0z m936 -30 c27 -22 22 -25 -15 -10 -14 5 -26 14 -26 20 0 16 15 12 41 -10z m-931 0 c-20 -13 -63 -13 -55 0 3 6 21 10 38 10 24 0 28 -3 17 -10z m-168 -40 c11 0 28 -8 37 -18 9 -11 26 -24 38 -30 27 -15 97 -16 88 -2 -3 6 -15 10 -26 10 -26 0 -24 16 2 23 12 3 18 10 14 16 -4 7 4 11 22 11 27 -1 27 -1 9 -15 -19 -14 -18 -15 15 -16 33 0 34 0 9 -12 l-25 -11 33 -4 c39 -4 41 -31 2 -49 l-25 -11 32 -7 c34 -8 36 -25 3 -25 -30 0 -90 34 -85 47 2 8 -11 16 -33 22 -97 24 -99 22 -52 -28 17 -17 28 -36 25 -41 -3 -5 -1 -11 5 -15 5 -3 10 -11 10 -16 0 -6 -4 -8 -9 -5 -5 4 -11 0 -14 -6 -2 -8 -20 3 -45 28 -47 47 -51 54 -22 47 11 -3 20 0 20 6 0 6 -9 16 -20 23 -11 7 -20 18 -20 24 0 6 -15 26 -32 43 l-33 32 28 -10 c16 -6 38 -11 49 -11z m1072 -26 c23 -9 20 -23 -4 -17 -11 3 -20 9 -20 14 0 11 3 11 24 3z m16 -74 c0 -5 -7 -7 -15 -4 -8 4 -15 8 -15 10 0 2 7 4 15 4 8 0 15 -4 15 -10z m-866 -60 c6 -6 6 -10 1 -10 -6 -1 1 -7 15 -15 l25 -15 -22 -6 c-26 -7 -25 -6 -17 -28 3 -9 14 -16 24 -16 30 0 33 -19 6 -31 -29 -14 -25 -29 7 -29 17 0 19 -2 8 -9 -15 -10 -79 -3 -96 10 -5 4 -23 5 -38 2 l-28 -6 33 -20 c18 -11 44 -20 58 -19 25 1 25 1 -3 -9 -15 -6 -25 -15 -21 -20 7 -12 -42 10 -88 40 -43 27 -48 36 -17 26 24 -8 21 3 -11 40 -19 21 -23 55 -7 55 5 0 4 7 -3 15 -26 32 9 13 48 -26 48 -46 51 -53 20 -44 -18 6 -20 4 -12 -5 14 -15 50 -8 47 8 -2 7 6 12 17 12 33 0 23 18 -12 23 l-33 4 33 13 c36 16 37 31 1 41 -13 4 -19 8 -14 8 6 1 3 6 -5 11 -13 8 -13 11 -1 19 15 10 68 -2 85 -19z m881 -10 c3 -5 2 -10 -4 -10 -5 0 -13 5 -16 10 -3 6 -2 10 4 10 5 0 13 -4 16 -10z m15 -100 c8 -5 15 -13 16 -17 3 -27 19 -71 32 -85 17 -20 6 -23 -33 -8 -15 6 -25 16 -23 25 2 8 -10 26 -27 40 l-30 24 34 1 c33 0 34 1 15 15 -21 16 -8 20 16 5z m-979 -120 c31 -26 15 -26 -18 0 -14 11 -21 20 -15 20 5 0 20 -9 33 -20z m184 1 c16 -7 13 -9 -15 -10 -19 0 -42 -1 -50 -2 -33 -4 -61 2 -55 11 7 12 91 12 120 1z m870 -90 c-8 -8 -32 21 -40 49 -6 22 -4 21 19 -9 14 -19 23 -37 21 -40z m-875 43 c0 -2 -15 -4 -32 -3 -27 0 -29 2 -13 8 18 8 45 4 45 -5z m-191 -20 c28 -15 50 -29 47 -32 -10 -9 -95 20 -112 39 -25 28 0 25 65 -7z m-84 6 c3 -5 2 -10 -4 -10 -5 0 -13 5 -16 10 -3 6 -2 10 4 10 5 0 13 -4 16 -10z m335 -30 l-25 -20 30 0 30 0 -25 -20 c-14 -11 -20 -20 -15 -20 16 -1 -18 -20 -36 -20 -22 0 -68 41 -51 47 19 7 14 20 -10 28 l-23 7 25 8 c14 4 48 8 75 9 l50 1 -25 -20z m-298 -51 l33 -30 -42 20 c-45 23 -63 41 -39 41 9 0 30 -14 48 -31z m1108 6 c0 -8 -2 -15 -4 -15 -2 0 -6 7 -10 15 -3 8 -1 15 4 15 6 0 10 -7 10 -15z m-1142 -55 c78 -37 102 -62 26 -29 -53 24 -114 59 -114 66 0 2 3 3 8 1 4 -2 40 -19 80 -38z m353 0 c10 -6 19 -14 19 -19 0 -8 -89 -51 -105 -51 -8 0 13 40 33 63 17 20 26 21 53 7z m52 -57 c-49 -62 -48 -65 6 -43 28 11 51 16 51 11 0 -6 -9 -12 -19 -16 -11 -3 -36 -19 -56 -35 l-37 -30 27 -10 c14 -5 31 -10 36 -10 6 0 8 -4 5 -9 -4 -5 -1 -11 6 -13 7 -3 -1 -17 -20 -38 -41 -42 -40 -47 3 -20 l36 22 -6 -28 c-10 -45 -32 -88 -55 -109 -20 -18 -20 -18 -22 6 0 13 0 38 1 54 l2 30 -20 -32 c-25 -39 -34 -43 -21 -7 13 34 13 37 -5 30 -12 -4 -13 -2 -7 12 5 9 12 32 15 50 l7 33 -31 -22 c-41 -29 -46 -19 -9 16 30 29 41 53 18 39 -9 -5 -9 -2 1 9 12 15 11 17 -10 17 -13 0 -31 5 -39 10 -13 8 -10 14 16 37 46 40 113 78 147 82 5 1 -4 -16 -20 -36z m-432 0 c64 -37 73 -61 11 -29 -44 22 -84 56 -67 56 4 0 29 -12 56 -27z m1215 -16 c4 -18 17 -45 29 -62 12 -16 25 -43 29 -60 4 -16 9 -39 12 -50 4 -14 -4 -10 -25 15 -17 19 -31 39 -31 43 0 4 -8 27 -19 50 -10 23 -22 57 -26 74 -5 27 -4 32 9 27 8 -3 18 -20 22 -37z m-1311 -95 c-7 -7 -38 28 -56 63 -6 11 6 3 26 -18 20 -21 34 -42 30 -45z m160 -2 c11 -18 -10 -10 -40 16 l-30 25 32 -15 c17 -9 35 -20 38 -26z m-285 -10 c6 -11 8 -20 6 -20 -3 0 -10 9 -16 20 -6 11 -8 20 -6 20 3 0 10 -9 16 -20z m41 -57 c13 -16 12 -17 -3 -4 -10 7 -18 15 -18 17 0 8 8 3 21 -13z m111 -95 l103 -28 -80 3 c-105 5 -170 32 -190 81 -22 52 -19 54 25 11 33 -32 55 -43 142 -67z m1435 -32 c10 -20 12 -31 4 -39 -14 -14 -67 36 -76 72 -3 14 -9 35 -12 46 -7 27 63 -39 84 -79z m-1286 -38 c-14 -15 -113 -13 -139 2 -12 7 8 9 68 10 67 0 81 -2 71 -12z m1323 -47 c10 -11 29 -22 44 -26 15 -4 30 -12 34 -18 4 -6 25 -11 47 -10 23 1 41 -3 41 -8 0 -6 4 -8 8 -5 5 3 19 -9 33 -26 13 -16 39 -48 57 -70 17 -22 29 -44 26 -49 -3 -5 2 -9 12 -9 13 0 14 -3 5 -14 -9 -11 -6 -15 14 -20 25 -6 47 -39 59 -88 9 -39 -8 -35 -33 7 -11 19 -27 35 -36 35 -8 0 -15 7 -15 15 0 8 -5 15 -11 15 -5 0 -8 4 -4 9 3 5 -5 21 -19 36 -13 14 -34 41 -47 60 -24 35 -44 45 -90 45 -14 0 -34 7 -45 15 -10 8 -26 15 -34 15 -31 1 -75 48 -75 80 0 35 6 37 29 11z m206 -361 c0 -15 -5 -12 -26 11 -19 22 -19 22 4 10 12 -6 22 -16 22 -21z m19 -65 c22 -13 5 -125 -19 -125 -17 0 -17 15 -3 46 16 32 15 37 0 70 -10 19 -14 40 -11 46 5 7 10 4 15 -9 4 -12 12 -24 18 -28z m101 35 c0 -5 -2 -10 -4 -10 -3 0 -8 5 -11 10 -3 6 -1 10 4 10 6 0 11 -4 11 -10z" />
    <path
       id="path4"
       d="M5790 5990 c0 -5 5 -10 11 -10 5 0 7 5 4 10 -3 6 -8 10 -11 10 -2 0 -4 -4 -4 -10z" />
    <path
       id="path6"
       d="M5790 5750 c8 -5 22 -10 30 -10 13 0 13 1 0 10 -8 5 -22 10 -30 10 -13 0 -13 -1 0 -10z" />
    <path
       id="path8"
       d="M4390 10814 c0 -6 7 -19 16 -30 14 -18 14 -18 3 6 -14 31 -19 36 -19 24z" />
    <path
       id="path10"
       d="M4426 10747 c3 -10 9 -15 12 -12 3 3 0 11 -7 18 -10 9 -11 8 -5 -6z" />
    <path
       id="path12"
       d="M4021 10666 c10 -9 69 -36 69 -32 0 6 -55 36 -66 36 -4 0 -5 -2 -3 -4z" />
    <path
       id="path14"
       d="M4170 10586 c0 -2 8 -10 18 -17 15 -13 16 -12 3 4 -13 16 -21 21 -21 13z" />
    <path
       id="path16"
       d="M4330 10376 c0 -2 8 -10 18 -17 15 -13 16 -12 3 4 -13 16 -21 21 -21 13z" />
    <path
       id="path18"
       d="M4140 10307 c8 -9 182 -79 186 -75 2 2 -29 18 -69 35 -75 32 -126 49 -117 40z" />
    <path
       id="path20"
       d="M6360 4278 c1 -18 26 -49 33 -41 13 12 7 41 -9 47 -22 8 -24 8 -24 -6z" />
    <path
       id="path22"
       d="M6420 4225 c0 -15 26 -32 36 -23 2 3 2 13 -2 22 -8 20 -34 21 -34 1z" />
  </g>
</svg>
