<?xml version="1.0" encoding="UTF-8" standalone="no"?>
<svg
   xmlns:dc="http://purl.org/dc/elements/1.1/"
   xmlns:cc="http://creativecommons.org/ns#"
   xmlns:rdf="http://www.w3.org/1999/02/22-rdf-syntax-ns#"
   xmlns:svg="http://www.w3.org/2000/svg"
   xmlns="http://www.w3.org/2000/svg"
   width="512mm"
   height="512mm"
   viewBox="0 0 512 512"
   version="1.1"
   id="svg885">
  <defs
     id="defs879" />
  <metadata
     id="metadata882">
    <rdf:RDF>
      <cc:Work
         rdf:about="">
        <dc:format>image/svg+xml</dc:format>
        <dc:type
           rdf:resource="http://purl.org/dc/dcmitype/StillImage" />
        <dc:title></dc:title>
      </cc:Work>
    </rdf:RDF>
  </metadata>
  <g
     id="g869">
    <path
       style="fill:#000000;stroke:none;stroke-width:0.26458332px;stroke-linecap:butt;stroke-linejoin:miter;stroke-opacity:1;fill-opacity:1"
       d="m 192.90831,174.50632 c -3.06812,-0.76703 -14.57358,-12.65601 -12.27249,-20.32632 2.30109,-7.67031 26.84609,-23.77797 49.85702,-23.01094 23.01093,0.76703 67.11523,14.5736 75.16904,18.40875 8.05383,3.83516 32.59883,24.92851 31.83181,29.91421 -0.76706,4.9857 -11.50549,15.72414 -13.80657,16.49117 -2.30111,0.76703 -10.35492,-11.12195 -18.02524,-14.95711 -7.6703,-3.83515 -41.80319,-17.2582 -61.746,-17.64171 -19.94281,-0.38352 -32.2153,-0.38352 -39.88561,2.68461 -7.67032,3.06812 -9.58789,8.05383 -11.12196,8.43734 z"
       id="path831" />
    <path
       style="fill:#000000;stroke:none;stroke-width:0.26458332px;stroke-linecap:butt;stroke-linejoin:miter;stroke-opacity:1;fill-opacity:1"
       d="m 193.10007,196.17495 c -1.72582,-1.15055 1.72582,-16.49117 4.02692,-18.60051 2.30109,-2.10933 7.67031,-10.16316 32.98233,-8.43734 25.31203,1.72582 39.5021,3.25988 45.83011,6.13625 6.32801,2.87637 29.5307,11.31371 32.02355,13.23129 2.49286,1.91758 11.12195,9.20437 11.12195,11.3137 0,2.10934 -1.34231,25.8873 -2.87637,26.07906 -1.53405,0.19176 -12.84776,-11.69722 -15.34062,-13.42304 -2.49285,-1.72582 -27.22962,-14.95711 -31.83178,-15.9159 -4.6022,-0.95879 -24.16149,-7.09503 -36.24223,-7.09503 -12.08074,0 -22.2439,1.15054 -26.84609,2.87636 -4.60218,1.72582 -10.54667,3.83516 -12.84777,3.83516 z"
       id="path833" />
    <path
       style="fill:#000000;stroke:none;stroke-width:0.26458332px;stroke-linecap:butt;stroke-linejoin:miter;stroke-opacity:1;fill-opacity:1"
       d="m 179.48527,219.37764 c -1.3423,-3.45164 18.40875,-18.02523 20.9016,-19.5593 2.49285,-1.53406 18.21699,-4.21867 28.18839,-4.21867 9.9714,0 48.32297,9.01262 48.1312,9.97141 -0.19174,0.95879 -39.11858,8.82086 -51.00757,9.39613 -11.88898,0.57527 -40.8444,4.41043 -46.21362,4.41043 z"
       id="path835" />
    <path
       style="fill:#000000;fill-opacity:1;stroke:none;stroke-width:0.26458332px;stroke-linecap:butt;stroke-linejoin:miter;stroke-opacity:1"
       d="m 194.63414,223.59631 c 1.3423,-1.91758 40.46089,-2.87637 64.04709,-8.43734 23.58621,-5.56098 23.58621,-4.21867 25.50378,-4.21867 1.91757,0 12.65603,4.60218 12.65603,5.75273 0,1.15055 -10.54669,3.06812 -11.12197,4.41043 -0.57526,1.3423 -0.95877,9.39613 -0.95877,9.39613 0,0 8.62909,-8.43734 15.91587,-8.43734 7.28681,0 9.69625,6.91292 9.50448,9.78928 -0.19175,2.87637 -3.41474,8.20304 -4.56531,12.22996 -1.15054,4.02691 -6.85673,19.78395 -16.06111,19.78395 -9.20438,0 -12.46426,-7.86207 -12.46426,-7.86207 0,0 2.49285,15.14888 9.39615,15.14888 6.90327,0 10.73843,-5.36922 11.50546,-4.60219 0.76703,0.76702 1.91757,16.29939 -0.19177,18.6005 -2.10934,2.30108 -45.18964,30.78165 -47.08795,30.37485 -1.8983,-0.40677 1.22034,-7.86439 -0.54237,-7.32203 -1.76271,0.54237 -9.49153,7.72883 -16.54237,7.72883 -7.05085,0 -12.61017,-4.47458 -12.61017,-4.47458 0,0 15.18644,-3.93221 16,-12.33898 0.81356,-8.40679 -9.89831,8.81354 -18.98305,8.94914 -9.08475,0.13559 -14.50848,-3.93219 -14.23729,-11.25424 0.27118,-7.32203 2.44068,-5.42372 2.71186,-8.1356 0.27119,-2.71184 -3.66101,-21.9661 -4.74576,-23.59321 -1.08475,-1.62712 -8.81356,-2.84745 -9.35593,-6.77966 -0.54238,-3.9322 7.32203,-17.8983 6.77966,-19.25424 -0.54237,-1.35593 -5.85037,-9.21415 -4.5523,-15.45453 z"
       id="path837" />
    <path
       style="fill:#000000;stroke:none;stroke-width:0.26458332px;stroke-linecap:butt;stroke-linejoin:miter;stroke-opacity:1;fill-opacity:1"
       d="m 241.03951,327.91254 c 0,4.9857 15.72414,67.88224 18.79227,67.6905 3.06812,-0.19177 100.28931,-63.28008 99.33051,-67.30699 -0.95877,-4.0269 -16.29939,-5.36921 -33.36583,-18.02524 -17.06645,-12.656 -17.44996,-22.24389 -21.47687,-22.05215 -4.02693,0.19177 -54.26746,39.69388 -63.28008,39.69388 z"
       id="path839" />
    <path
       style="fill:#000000;stroke:none;stroke-width:0.26458332px;stroke-linecap:butt;stroke-linejoin:miter;stroke-opacity:1;fill-opacity:1"
       d="m 228.19175,321.00924 c 3.64339,0 8.24558,4.79396 6.51976,8.62912 -1.72582,3.83514 -32.59882,37.201 -34.13288,37.58452 -1.53406,0.38351 -10.20575,19.2178 -12.23965,18.81102 -2.0339,-0.40679 -3.38983,-24.00001 -1.08475,-25.89831 2.30509,-1.89831 37.28814,-27.11865 39.05085,-31.18644 1.76271,-4.06781 1.46824,-7.33742 1.88667,-7.93991 z"
       id="path841" />
    <path
       style="fill:#000000;stroke:none;stroke-width:0.26458332px;stroke-linecap:butt;stroke-linejoin:miter;stroke-opacity:1;fill-opacity:1"
       d="m 180.61017,364.74577 c -2.0339,1.22034 -6.64407,4.74575 -7.18644,8.54236 -0.54238,3.79661 4.06779,8.81356 5.28813,9.22033 1.22034,0.4068 1.89831,-17.76269 1.89831,-17.76269 z"
       id="path843" />
    <path
       style="fill:#000000;stroke:none;stroke-width:0.26458332px;stroke-linecap:butt;stroke-linejoin:miter;stroke-opacity:1;fill-opacity:1"
       d="m 220.88135,350.37289 c 3.66102,-0.67797 21.01695,5.55932 21.83051,7.18642 0.81356,1.62714 12.88136,46.77966 10.30509,46.64409 -2.57627,-0.1356 -60.61017,-9.22036 -58.71187,-14.91528 1.89831,-5.69492 22.37288,-34.84745 26.57627,-38.91523 z"
       id="path845" />
    <path
       style="fill:#000000;stroke:none;stroke-width:0.26458332px;stroke-linecap:butt;stroke-linejoin:miter;stroke-opacity:1;fill-opacity:1"
       d="m 261.94111,399.82169 c 0.95879,2.87639 18.60051,4.60218 36.43398,-2.49286 17.83347,-7.09501 80.73001,-46.98063 78.04542,-52.92513 -2.68462,-5.9445 -11.889,-9.20438 -15.91591,-8.62909 -4.0269,0.57525 -89.35913,60.59545 -98.56349,64.04708 z"
       id="path847" />
    <path
       style="fill:none;stroke:#000000;stroke-width:0.26458332px;stroke-linecap:butt;stroke-linejoin:miter;stroke-opacity:1"
       d="m 267.50208,363.19597 -4.45836,2.10934 6.04036,15.34062 4.17073,-2.34905 z"
       id="path849" />
    <path
       style="fill:none;stroke:#000000;stroke-width:0.26458332px;stroke-linecap:butt;stroke-linejoin:miter;stroke-opacity:1"
       d="m 269.41968,362.33306 6.13624,14.66945 4.31453,-2.30108 -6.32798,-14.47771 z"
       id="path851" />
    <ellipse
       style="opacity:1;fill:#000000;fill-opacity:1;stroke:none;stroke-width:3.06916666;stroke-miterlimit:4;stroke-dasharray:none;stroke-opacity:1"
       id="path855"
       cx="234.06779"
       cy="343.7966"
       rx="5.9322038"
       ry="7.0508475" />
  </g>
</svg>
