<?xml version="1.0" encoding="UTF-8" standalone="no"?>
<svg
   xmlns:dc="http://purl.org/dc/elements/1.1/"
   xmlns:cc="http://creativecommons.org/ns#"
   xmlns:rdf="http://www.w3.org/1999/02/22-rdf-syntax-ns#"
   xmlns:svg="http://www.w3.org/2000/svg"
   xmlns="http://www.w3.org/2000/svg"
   id="svg885"
   version="1.1"
   viewBox="0 0 512 512"
   height="512mm"
   width="512mm">
  <defs
     id="defs879" />
  <metadata
     id="metadata882">
    <rdf:RDF>
      <cc:Work
         rdf:about="">
        <dc:format>image/svg+xml</dc:format>
        <dc:type
           rdf:resource="http://purl.org/dc/dcmitype/StillImage" />
        <dc:title></dc:title>
      </cc:Work>
    </rdf:RDF>
  </metadata>
  <g
     id="g4560">
    <path
       style="fill:#000000;stroke:none;stroke-width:0.26458332px;stroke-linecap:butt;stroke-linejoin:miter;stroke-opacity:1;fill-opacity:1"
       d="m 244.61017,138.57627 c 1.35593,-2.16949 7.05084,-2.71186 10.30508,-4.88136 3.25424,-2.16949 8.40678,-13.01695 11.38983,-12.20339 2.98304,0.81356 12.2034,8.1356 15.99999,9.22034 3.79661,1.08475 12.4746,3.25424 14.64408,7.05085 2.1695,3.79661 2.71187,5.15254 1.35593,5.42373 -1.35593,0.27118 -11.38983,-0.81356 -13.01694,0.81356 -1.62713,1.62712 -5.96612,3.79661 -4.61018,5.9661 1.35594,2.16949 7.59322,2.71186 10.0339,1.08475 2.44068,-1.62712 7.8644,-6.23729 9.7627,-5.55933 1.89831,0.67797 20.339,23.05085 20.339,24.81356 0,1.76271 -18.16949,2.57627 -17.8983,5.9661 0.27117,3.38983 10.03388,5.55933 12.74575,5.28814 2.71187,-0.27119 4.47458,-6.50848 7.05085,-6.77966 2.57628,-0.27119 2.84745,18.71186 3.79662,22.23729 0.94914,3.52542 11.7966,19.66101 8.67796,20.88135 -3.11864,1.22034 -26.44069,0.1356 -26.30509,3.79661 0.1356,3.66102 26.71186,2.71187 26.03389,5.55932 -0.67797,2.84746 -2.30508,12.0678 -2.30508,14.91526 0,2.84746 4.88136,5.55932 3.66102,9.49152 -1.22034,3.93221 -29.55933,15.59324 -32.27118,11.66102 -2.71187,-3.9322 3.66102,-13.69492 3.11865,-17.62712 -0.54237,-3.9322 -5.01695,-9.76271 -6.10169,-15.18644 -1.08477,-5.42373 -0.4068,-41.62712 -3.79661,-47.18644 -3.38985,-5.55932 -22.37291,-27.38983 -26.03392,-29.9661 -3.66101,-2.57627 -26.57626,-14.77966 -26.57626,-14.77966 z"
       id="path4534" />
    <path
       style="fill:#000000;stroke:none;stroke-width:0.26458332px;stroke-linecap:butt;stroke-linejoin:miter;stroke-opacity:1;fill-opacity:1"
       d="m 308.3465,141.71574 c 2.49285,-1.72582 24.16148,9.9714 30.68124,20.13457 6.51976,10.16316 6.90327,53.50041 3.45165,53.30866 -3.45165,-0.19176 -0.38354,-10.73844 -3.83516,-14.57359 -3.45165,-3.83516 -8.43735,-21.47687 -8.43735,-23.96972 0,-2.49285 -18.98402,-31.06476 -21.86038,-34.89992 z"
       id="path4536" />
    <path
       style="fill:#000000;fill-opacity:1;stroke:#000000;stroke-width:0.26458332px;stroke-linecap:butt;stroke-linejoin:miter;stroke-opacity:1"
       d="m 174.23729,182.37288 c -2.84746,0.13559 -7.72882,-3.38983 -8.27119,-10.57627 -0.54237,-7.18644 28.47458,-30.50848 30.91525,-31.18644 2.44068,-0.67797 38.23729,1.49152 42.71187,4.47457 4.47458,2.98305 37.28813,22.1017 39.32203,25.35594 2.03391,3.25423 16.13559,44.06779 14.64408,50.16949 -1.49153,6.10169 0,4.74576 -1.62713,5.69491 -1.62711,0.94915 -6.50846,-0.27118 -10.1695,3.25424 -3.66101,3.52542 -4.74575,7.86441 -6.37289,12.61017 4.339,-2.84746 5.96612,-8 13.69494,-8.27119 7.7288,-0.27119 12.20338,8.67797 12.20338,12.33898 0,3.66102 -4.88135,7.59322 -5.42372,11.52543 -0.54237,3.9322 -0.1356,13.55932 -4.33898,17.49153 -4.20341,3.93218 -14.91525,3.66101 -15.05085,5.69492 -0.1356,2.03388 10.1695,4.47455 11.38983,7.05083 1.22034,2.57627 11.08594,25.72247 9.9354,28.21532 -1.15054,2.49285 -51.19932,39.31034 -56.95205,39.50211 -5.75273,0.19174 -18.02523,-13.80657 -17.2582,-16.68293 0.76703,-2.87637 34.89991,-20.5181 26.46257,-21.47687 -8.43734,-0.95879 -18.79226,12.84777 -29.33894,16.10765 -10.54667,3.25988 -25.69554,4.02691 -30.10597,2.10934 -4.41043,-1.9176 -9.20437,-6.71153 -9.9714,-10.73843 -0.76703,-4.02694 -9.01262,-33.55761 -12.84777,-46.98066 -3.83516,-13.42306 -0.95879,-32.02355 -0.95879,-32.02355 0,0 -7.51544,-4.42406 -8.28248,-8.45097 5.13127,1.39682 8.71394,0.68478 8.71394,0.68478 l -0.43146,-8.05383 c 0,0 -3.45164,-4.31455 -1.8217,-8.53322 1.62994,-4.21867 1.62994,-26.27081 6.99916,-31.64003 5.36922,-5.36922 5.94449,-8.05383 7.2868,-8.82086 1.3423,-0.76703 0.57527,4.9857 4.02691,4.9857 3.45164,0 12.84777,-0.19175 12.84777,-0.19175 0,0 3.45164,-2.3011 3.45164,-3.83516 0,-1.53406 13.42304,-0.95879 15.53238,1.15055 2.10933,2.10933 13.80656,3.45164 16.68292,6.328 2.87637,2.87637 5.36922,5.94449 7.2868,5.94449 1.91757,0 -11.32533,-16.75222 -17.22364,-17.36238 -5.8983,-0.61017 -8.06779,-2.64407 -9.8983,-3.52543 -1.83051,-0.88136 -7.11865,3.32203 -9.55932,2.16949 -2.44068,-1.15254 -0.27119,-9.62711 -2.37289,-9.69491 -2.10169,-0.0678 -2.30508,9.8983 -4.13559,9.8983 -1.83051,0 -1.42373,-18.30508 0.13559,-21.15254 1.55933,-2.84746 -9.42372,5.35593 -10.57627,9.49153 -1.15254,4.13559 1.42373,12.33898 -0.88135,12.27118 -2.30509,-0.0678 -6.84746,-8.06779 -8.40678,-7.79661 -1.55932,0.27119 -1.9661,12.47458 -1.9661,12.47458 z"
       id="path4538" />
    <path
       style="fill:#000000;stroke:none;stroke-width:0.26458332px;stroke-linecap:butt;stroke-linejoin:miter;stroke-opacity:1;fill-opacity:1"
       d="m 301.6949,271.8644 c 5.28815,0.4068 2.98307,8.27119 9.35596,8.67796 6.37286,0.4068 21.15253,-3.38981 21.15253,-3.38981 0,0 -11.11866,10.71186 -18.16949,10.71186 -7.05085,0 2.44068,3.11865 4.47458,2.98305 2.03388,-0.1356 13.28812,-0.54237 13.28812,-0.54237 0,0 -16.67796,8.27117 -22.77965,5.15252 -6.10169,-3.11864 0.94914,7.59323 2.03391,9.89833 1.08474,2.30508 2.44067,2.30508 2.44067,2.30508 0,0 -10.98306,-4.06781 -15.86441,-13.96612 -4.88136,-9.8983 -2.44068,-20.06779 4.06778,-21.8305 z"
       id="path4540" />
    <path
       style="fill:#000000;stroke:#000000;stroke-width:0.26458332px;stroke-linecap:butt;stroke-linejoin:miter;stroke-opacity:1;fill-opacity:1"
       d="m 224.26071,350.63583 c 0,0 -7.57443,30.20184 -10.35492,32.98235 -2.78049,2.78048 -2.30109,2.39697 -2.30109,2.39697 0,0 13.42304,-5.46511 14.66947,-9.01264 1.24642,-3.54751 -5.08158,-4.69805 -1.91758,-9.10849 3.164,-4.41042 7.38268,-6.32799 7.19092,-8.91672 -0.19176,-2.58874 -7.2868,-8.34147 -7.2868,-8.34147 z"
       id="path4542" />
    <path
       style="fill:#000000;fill-opacity:1;stroke:#000000;stroke-width:1px;stroke-linecap:butt;stroke-linejoin:miter;stroke-opacity:1"
       d="m 1265.3086,1340.1309 c -12.2995,0.5125 -247.5258,161.9435 -255.2129,167.0683 -5.5743,3.7162 -30.76494,11.7357 -45.39453,18.2129 -31.36755,4.5379 -58.54777,9.2327 -63.4707,-1.2285 -5.79806,-12.3208 -6.88517,-65.2292 -19.56836,-66.3164 -19.15285,0.9591 -41.28235,1.7522 -56.05859,11.9199 -10.24955,7.1747 -8.71246,12.3 -26.13672,12.8125 -17.42427,0.5124 -52.78516,4.0997 -52.78516,-2.5625 0,-6.6623 63.54607,-67.6474 53.55274,-80.2031 -33.82356,14.6057 -46.37892,16.144 -66.10938,29.7246 -15.63054,12.5558 -32.79883,40.7414 -32.79883,49.1973 0,8.4559 133.50019,60.216 138.625,60.7285 3.95173,0.3951 17.70205,-30.8302 20.33894,-57.3348 2.10641,-5.9927 11.95205,-6.0653 13.76262,1.8094 1.08715,5.798 -1.44942,61.9663 14.13282,64.1406 15.5822,2.1743 113.42415,1.8118 121.39645,0.7246 7.9113,-1.0788 120.0017,-22.495 123.1348,-28.1347 5.8016,-0.9875 10.233,-1.9156 12.6719,-2.7286 21.524,-7.1746 167.5809,-91.7332 169.6308,-100.4453 2.0499,-8.7121 -37.4115,-77.8972 -49.7109,-77.3847 z"
       transform="scale(0.26458333)"
       id="path4544" />
    <path
       style="fill:#000000;stroke:none;stroke-width:0.26458332px;stroke-linecap:butt;stroke-linejoin:miter;stroke-opacity:1;fill-opacity:1"
       d="m 231.83514,369.33221 c 0.57528,3.83517 10.35492,13.42306 10.9302,17.25819 0.57527,3.83516 -1.53407,12.27252 0,12.65603 1.53406,0.38351 26.07905,-10.35492 31.64004,-13.80657 5.56096,-3.45165 48.32294,-35.28343 51.58282,-35.09166 3.25988,0.19175 9.01263,1.53406 9.77966,-0.57528 0.76703,-2.10934 -24.35325,-31.25653 -28.38016,-31.44827 -4.0269,-0.19177 -44.29604,34.89992 -50.24053,37.58451 -5.94449,2.68462 -23.77797,11.31372 -25.31203,13.42305 z"
       id="path4546" />
  </g>
</svg>
