<?xml version="1.0" encoding="UTF-8" standalone="no"?>
<svg
   xmlns:dc="http://purl.org/dc/elements/1.1/"
   xmlns:cc="http://creativecommons.org/ns#"
   xmlns:rdf="http://www.w3.org/1999/02/22-rdf-syntax-ns#"
   xmlns:svg="http://www.w3.org/2000/svg"
   xmlns="http://www.w3.org/2000/svg"
   id="svg6"
   style="fill-rule:evenodd;clip-rule:evenodd;stroke-linecap:round;stroke-linejoin:round;stroke-miterlimit:1.5;"
   version="1.1"
   viewBox="0 0 416 517"
   height="100%"
   width="100%">
  <metadata
     id="metadata12">
    <rdf:RDF>
      <cc:Work
         rdf:about="">
        <dc:format>image/svg+xml</dc:format>
        <dc:type
           rdf:resource="http://purl.org/dc/dcmitype/StillImage" />
        <dc:title></dc:title>
      </cc:Work>
    </rdf:RDF>
  </metadata>
  <defs
     id="defs10" />
  <g
     id="g4"
     transform="matrix(-1,0,0,1,441.08064,-33.5978)">
    <path
       id="path2"
       style="fill:#010101;stroke:#000000;stroke-width:0.75px"
       d="m 169.561,402.733 -0.564,-0.994 -9.184,4.751 5.984,-12.314 -7.54,6.036 5.605,-12.874 -8.734,5.931 6.484,-12.21 -8.222,5.855 7.01,-10.336 -9.315,5.259 8.774,-11.951 -8.817,3.628 11.011,-13.775 -11.796,8.453 9.326,-13.11 -8.673,7.177 6.928,-11.657 c -0.345,-0.301 -0.538,-0.647 -0.407,-1.091 l -39.173,5.669 c -10.041,1.355 -22.327,1.19 -28.774,-13.025 -0.471,-1.037 -4.391,-0.663 -5.151,-3.124 -2.532,-8.193 -2.257,-9.492 -0.599,-15.814 1.823,-1.13 -0.538,-8.518 1.526,-9.865 1.968,-1.283 7.82,4.112 10.071,2.888 3.638,-1.977 6.306,-3.156 9.832,-5.697 0.945,-0.681 -0.486,-5.862 1.107,-7.293 2.591,-2.328 4.573,2.587 5.501,1.822 11.07,-9.128 20.087,-20.243 22.537,-29.931 0.258,-1.145 -0.106,-2.341 -0.957,-3.149 -0.852,-0.808 -2.065,-1.108 -3.195,-0.791 -16.578,4.674 -29.039,9.03 -43.078,9.503 -16.271,0.068 -32.338,-7.103 -57.005,-47.898 -9.59,-15.861 -3.686,-25.214 18.474,-30.66 5.983,-3.772 21.56,-7.625 30.926,-8.838 34.935,-4.524 63.213,-12.121 68.078,-20.945 10.518,-19.075 50.994,-39.688 76.753,-38.902 13.339,0.408 15.187,-5.226 15.187,-5.226 6.904,-17.583 20.402,-32.862 37.184,-45.354 16.115,-9.069 17.556,22.478 24.457,20.15 6.604,-2.229 49.471,-51.686 57.404,-59.333 21.562,-20.781 27.829,-2.525 28.68,2.272 3.276,18.457 4.148,35.22 3.431,65.581 -0.106,4.463 -1.286,14.461 -7.112,24.418 -3.747,6.405 -1.683,12.744 -2.066,18.815 -0.258,4.103 -6.934,7.504 -5.211,15.772 -7.422,9.277 -14.986,14.364 -14.298,20.597 -2.164,4.879 -1.984,9.885 2.401,15.12 11.38,-4.336 15.554,7.736 6.983,16.669 17.659,2.234 22.593,8.834 24.375,16.516 l -14.13,7.459 c 28.064,21.269 33.31,38.69 1.306,57.743 l 4.735,4.495 44.098,37.931 8.977,26.506 -23.935,-6.926 2.42,13.609 -33.873,-9.527 2.599,12.07 -28.42,-3.756 12.495,15.68 -25.613,2.514 4.595,15.442 -12.372,-4.039 -2.824,20.638 -12.684,-9.303 -1.167,17.842 -0.319,4.879 -13.612,-12.239 -6.875,34.431 -8.965,-25.952 -9.809,41.039 -8.55,-15.636 -10.752,34.356 -21.181,-18.927 -9.363,41.846 -16.711,-18.086 -8.79,30.807 -12.129,-19.097 -26.744,34.219 -10.308,-12.429 -7.552,6.332 c -4.319,-49.751 -4.981,-94.238 14.594,-109.591 -2.762,-3.531 -4.454,-8.152 -4.494,-13.218 -0.062,-7.651 3.659,-14.347 9.195,-17.837 z m 59.779,64.184 c -6.249,0 -9.995,-1.608 -15.364,1.044 -1.586,0.784 -5.09,5.986 -2.5,7.281 0.933,0.466 7.068,1.586 8.121,1.222 4.76,-1.647 8.347,0.409 12.716,-2.892 1.392,-1.051 3.652,-3.857 2.613,-5.934 -0.329,-0.659 0.399,-2.749 -1.604,-1.868 -1.153,0.507 -3.982,1.147 -3.982,1.147 z m -22.216,-27.142 c 0,0 -2.192,0.711 -2.638,0.264 -0.215,-0.215 -1.809,0 -2.128,0 -1.826,0 -2.799,-0.761 -4.43,-1.322 -1.519,-0.521 -1.875,-4.203 -4.397,-2.956 -2.137,1.055 -3.498,4.78 -4.771,6.694 -1.435,2.156 -4.659,5.799 -3.007,9.103 0.561,1.122 4.093,0.284 5.21,0.842 2.433,1.217 4.533,1.42 7,0.797 3.98,-1.006 7.34,-1.001 10.13,-4.743 1.598,-2.141 2.384,-8.679 -0.969,-8.679 z M 376.631,306.641 c 0.356,2.052 0.727,4.439 1.341,4.746 0.673,0.337 0.065,-4.254 0.381,-4.574 0.288,-0.292 1.33,2.791 1.69,2.414 0.389,-0.406 0.568,-1.097 0.639,-1.881 2.226,0.954 3.624,2.903 4.062,6.006 -42.051,51.347 -98.923,90.673 -162.523,120.267 -8.66,-7.178 -14.787,-16.046 -16.816,-27.645 44.721,-19.14 88.024,-46.461 126.212,-78.319 2.601,-1.658 5.143,-3.245 7.619,-4.752 0.805,1.352 1.86,2.645 2.505,3.934 0.143,0.286 1.653,4.706 2.156,4.197 0.6,-0.607 0.509,-2.846 0.796,-3.704 0.953,-2.85 1.198,-5.566 1.26,-8.408 0.241,-0.139 0.481,-0.276 0.719,-0.412 0.129,0.492 0.268,0.981 0.42,1.489 1.025,3.424 2.285,6.619 4.287,9.619 0.042,0.062 1.939,2.605 1.973,2.565 0.543,-0.641 0,-4.162 0,-4.956 v -12.385 c 0.581,-0.304 1.156,-0.602 1.724,-0.892 0.451,1.676 0.799,3.374 1.218,5.06 0.019,0.078 0.564,2.206 1.052,1.696 1.951,-2.041 1.888,-5.373 1.699,-8.704 0.758,-0.356 1.502,-0.697 2.233,-1.021 0.086,0.437 0.18,0.872 0.286,1.304 0.013,0.052 0.521,1.67 0.794,1.385 0.59,-0.618 0.898,-2.044 1.072,-3.611 1.264,-0.522 2.483,-0.99 3.654,-1.398 0.192,0.63 0.371,1.263 0.53,1.899 0.245,0.985 0.433,3.543 1.147,2.821 0.076,-0.077 0,-2.015 0,-2.019 v -3.257 c 1.033,-0.324 2.023,-0.596 2.97,-0.814 0.391,1.358 0.883,2.545 1.52,2.864 0.627,0.314 0.993,-1.556 1.357,-3.379 0.707,-0.084 1.382,-0.13 2.023,-0.135 z M 172.243,407.457 c -3.387,3.032 -5.54,7.697 -5.498,12.909 0.031,3.889 1.279,7.455 3.338,10.251 3.682,-1.668 7.917,-2.54 12.773,-2.518 -5.103,-5.643 -7.737,-10.31 -10.244,-19.993 z M 286.86,370.998 c 1.398,5.485 4.995,9.946 9.818,13.837 l 17.852,-13.819 c -0.637,-6.42 -2.731,-11.464 -7.559,-14.878 z m 29.639,-21.281 2.247,3.356 -4.43,3.312 c 1.783,3.923 3.94,6.279 6.199,8.205 l 2.091,-1.813 2.929,-1.044 30.816,-27.266 -5.765,2.057 -2.878,-5.148 -1.881,4.879 c -2.189,1.31 -4.252,-0.682 -6.199,-5.679 -6.514,3.93 -14.644,11.173 -23.129,19.141 z M 118.65,326.123 c -2.101,0.057 -4.577,0.629 -6.534,-0.375 -1.389,-0.712 -1.815,-2.224 -2.312,-3.604 -1.092,-3.028 -2.103,-6.224 -2.342,-9.45 -0.159,-2.14 -0.237,-4.281 -0.314,-6.425 -0.018,-0.502 -0.226,-1.875 0.49,-2.141 1.396,-0.519 3.891,3.373 4.441,4.228 1.645,2.56 2.443,5.565 3.807,8.271 1.474,2.922 5.72,7.447 3.079,9.43 z m 50.299,-22.611 c -1.302,0.22 -6.583,-0.228 -9.859,-0.629 -1.131,-0.139 -2.627,-0.102 -3.645,-0.67 -2.025,-1.128 -0.137,-4.522 0.445,-5.965 0.216,-0.534 0.493,-1.541 1.059,-1.83 2.69,-1.372 4.638,3.619 7.299,0.973 0.767,-0.762 0.649,-2.383 0.777,-3.367 0.327,-2.516 0.807,-5.491 3.283,-6.793 2.484,-1.305 5.463,2.758 8.017,0.92 2.958,-2.128 -1.255,-6.434 1.017,-8.99 1.239,-1.394 3.487,-0.997 5.073,-0.627 0.534,0.125 1.85,0.795 2.14,0.247 0.92,-1.74 0.406,-4.458 0.699,-6.382 0.035,-0.235 0.277,-1.937 0.739,-1.927 0.212,0.004 0.686,0.568 0.827,0.709 0.797,0.796 1.449,1.736 2.191,2.582 1.025,1.167 2.417,2.198 3.205,3.542 1.493,2.547 0.546,6.033 -1.108,8.244 -1.8,2.407 -4.746,3.338 -7.057,5.148 -1.482,1.16 -1.944,2.951 -3.357,4.151 -0.855,0.726 -1.921,0.978 -2.873,1.532 -0.905,0.528 -1.535,1.364 -2.358,1.993 -0.792,0.605 -1.739,0.968 -2.471,1.657 -1.308,1.232 -4.043,5.482 -4.043,5.482 z m 17.524,-115.767 c -6.536,2.412 -12.74,4.083 -19.704,4.596 -7.298,0.537 -18.988,-1.846 -19.033,8.813 -0.007,1.475 0.082,3.043 0.427,4.484 1.611,6.708 13.558,7.277 10.562,16.418 -0.613,1.871 -5.829,0.44 -7.389,0.097 -8.521,-1.872 -16.362,-4.145 -25.212,-4.84 -2.77,-0.217 -5.563,-0.303 -8.326,-0.59 -0.921,-0.096 -1.841,-0.206 -2.762,-0.307 -0.492,-0.054 -1.876,-0.352 -1.483,-0.051 4.842,3.711 12.968,2.116 17.619,5.765 0.382,0.3 -1.776,3.778 -1.995,4.258 -1.045,2.287 2.875,5.094 4.729,5.453 4.963,0.963 8.721,-4.605 13.329,-5.279 7.024,-1.028 14.137,-0.732 21.189,-2.036 3.682,-0.681 6.917,-2.85 10.656,-3.329 3.446,-0.44 6.958,0.137 10.387,-0.332 7.411,-1.013 12.461,-3.752 20.197,-2.498 7.716,1.252 13.249,5.343 20.333,7.945 5.401,1.984 11.938,2.478 17.622,3.304 6.479,0.943 13.34,-4.943 19.676,-2.166 1.005,0.441 1.807,1.471 2.586,2.201 5.815,5.439 1.715,8.567 -1.923,13.845 -0.216,0.314 1.704,2.299 1.895,2.516 2.66,3.014 4.627,4.684 9.104,4.748 11.568,0.164 6.907,-13.254 12.239,-19.16 4.116,-4.559 12.388,-6.015 14.198,-12.416 1.228,-4.345 0.27,-12.593 -4.434,-14.744 -4.586,-2.098 -10.245,1.905 -15.146,1.202 -3.002,-0.43 -5.805,-2.195 -8.655,-3.169 -4.875,-1.668 -10.121,-2.963 -15.14,-4.144 -5.468,-1.286 -11.197,-0.182 -16.471,-1.389 -7.016,-1.606 -11.005,-9.648 -19.453,-8.408 -8.137,1.195 -15.878,3.756 -23.567,6.561 -2.034,0.742 -4.086,1.487 -5.872,2.738 -0.197,0.138 -1.596,1.484 -1.712,1.451 -0.648,-0.183 1.798,-5.101 2.116,-5.509 2.06,-2.647 12.77,-6.411 8.942,-11.57 -1.589,-2.141 -5.378,-2.612 -7.817,-2.704 -7.323,-0.277 -15.046,-0.336 -22.294,0.502 -3.249,0.376 -6.194,0.909 -9.337,-0.338 -1.055,-0.419 -2.039,-1.124 -2.913,-1.837 -0.437,-0.358 -0.89,-1.528 -1.276,-1.115 -0.168,0.18 0.584,1.965 0.668,2.227 0.464,1.449 3.394,6.67 5.406,6.212 1.096,-0.25 1.958,-2.28 3.23,-2.697 3.479,-1.141 14.804,5.292 14.804,5.292 z M 43.617,233.903 c 0,0 -1.494,-3.877 -2.363,-4.867 -0.725,-0.827 -2.186,0.1 -2.42,0.808 -0.444,1.342 0.203,3.235 0.701,4.483 0.968,2.424 3.494,4.949 6.068,5.164 2.998,0.251 6.4,-1.28 7.876,-3.552 0.626,-0.963 0.558,-2.231 0.58,-3.358 0.001,-0.046 0.025,-1.142 -0.027,-1.149 -3.624,-0.498 -6.823,5.225 -10.415,2.471 z m 8.851,-30.615 c 0,0 5.8,0.367 8.049,1.788 9.816,6.202 0.894,20.496 -8.655,20.742 -6.098,0.157 -1.938,-7.279 -5.782,-8.874 -3.646,-1.513 -8.835,-1.535 -12.553,-0.269 -1.844,0.628 -3.457,1.774 -5.263,2.417 -0.391,0.138 0.1,-0.823 0.154,-1.234 0.105,-0.794 0.177,-1.613 0.433,-2.376 0.67,-1.999 2.663,-3.339 4.388,-4.36 3.024,-1.789 6.437,-2.709 9.624,-4.145 2.847,-1.282 6.447,-3.426 9.605,-3.689 z m 257.952,6.602 c 2.36,0.298 4.779,-0.172 7.134,0.16 1.168,0.164 4.703,0.901 4.887,2.694 0.025,0.249 -0.557,1.744 -0.127,2.062 1.336,0.99 2.877,-0.68 4.319,0.639 0.858,0.785 1.67,2.449 2.086,3.334 0.17,0.361 0.568,1.167 0.272,1.661 -0.351,0.588 -1.255,0.689 -1.828,0.58 -1.365,-0.261 -2.184,-1.805 -3.42,-2.352 -1.273,-0.564 -1.899,-0.297 -3.093,-1.078 -1.623,-1.062 -1.694,-1.965 -3.549,-2.739 -2.154,-0.899 -4.469,-0.211 -6.603,-1.354 -0.506,-0.271 -1.227,-1.386 -1.212,-1.941 0.011,-0.377 0.318,-0.688 0.53,-1 0.169,-0.247 0.388,-0.458 0.604,-0.666 z m 9.729,-14.725 c -1.818,-0.06 -4.366,0.127 -6.203,-0.729 -2.557,-1.191 -2.047,-1.942 -4.294,-4.22 -1.063,-1.078 -3.382,-0.338 -4.546,-0.427 -1.629,-0.126 -2.605,-1.795 -3.947,-2.437 -0.87,-0.417 -1.996,-0.177 -2.807,-0.699 -0.998,-0.643 -2.037,-2.602 -0.919,-3.65 1.356,-1.27 4.916,0.828 6.215,0.962 1.907,0.197 1.83,-0.652 3.777,-0.42 1.443,0.173 2.006,0.988 3.362,1.378 1.748,0.504 3.599,0.051 5.003,1.464 1.106,1.112 2.176,3.299 2.701,4.471 0.63,1.404 1.145,2.857 1.658,4.307 z m -14.461,-12.964 c -2.749,-6.781 -3.017,-10.092 -7.358,-16.039 -2.045,-2.801 -6.433,-6.855 -6.278,-10.604 0.422,-10.241 10.324,-16.898 18.518,-19.485 8.687,-2.742 14.661,-9.729 21.032,-16.416 7.781,-8.168 12.072,-10.98 18.341,-20.349 1.344,-2.008 5.2,-9.593 8.192,-7.307 9.52,7.273 -2.342,23.204 -7.144,29.384 -6.597,8.493 -8.028,14.758 -13.905,23.766 -1.856,2.845 -3.831,5.552 -6.307,7.892 -0.131,0.124 -3.795,3.992 -3.664,4.065 0.754,0.42 4.052,0.336 4.282,1.669 0.969,5.616 -4.535,7.804 -7.652,10.769 -1.866,1.774 -1.994,4.598 -3.439,6.681 -2.657,3.83 -14.618,5.974 -14.618,5.974 z m -124.08,-11.2 c -0.553,0.294 -1.178,0.667 -1.665,1.058 -1.05,0.842 -1.834,3.109 0.161,3.289 1.386,0.125 3.161,-0.646 4.273,-1.472 1.324,-0.983 0.799,-1.948 -0.493,-2.492 -0.52,-0.219 -2.276,-0.383 -2.276,-0.383 z m -3.024,-4.587 c -0.527,-1.58 4.151,-7.187 7.757,-5.429 2.565,1.252 5.59,4.392 6.548,7.011 0.086,0.235 0.972,2.289 0.861,2.475 -0.047,0.079 -1.16,-0.34 -1.252,-0.371 -1.408,-0.473 -2.716,-1.192 -4.086,-1.759 -3.167,-1.311 -6.479,-1.467 -9.828,-1.927 z m 76.737,-16.826 c 0,-0.661 -0.123,-1.323 -0.074,-1.981 0.187,-2.495 3.691,-0.812 4.919,-0.633 5.068,0.739 4.898,1.222 9.869,2.118 1.731,0.311 2.551,-1.04 4.087,-1.335 0.433,-0.083 6.629,-0.096 6.738,-0.064 2.101,0.614 2.854,2.45 3.142,4.362 0.233,1.541 -2.144,1.613 -2.838,2.038 -0.985,0.603 -1.666,1.665 -2.71,2.159 -1.799,0.851 -3.8,0.282 -5.617,0.103 -1.522,-0.151 -3.046,-0.291 -4.573,-0.396 -0.443,-0.03 -1.426,-0.233 -1.319,0.199 0.603,2.429 2.627,1.73 4.181,2.874 1.08,0.796 0.562,3.314 0.095,4.221 -0.695,1.353 -1.372,2.1 -3.014,1.965 -1.147,-0.093 -0.812,-1.099 -1.975,-0.889 -1.266,0.229 -2.949,1.602 -4.404,1.1 -0.88,-0.303 -2.926,-3.108 -3.842,-3.355 -1.303,-0.35 -2.712,0.258 -4.046,0.06 -3.227,-0.477 -3.389,-1.52 -6.047,-3.104 -0.188,-0.111 -4.195,-1.319 -4.563,-1.917 -1.766,-2.869 2.948,-3.882 4.467,-3.836 1.196,0.036 3.036,0.83 3.964,1.554 0.577,0.45 1.14,2.014 2.29,1.715 0.946,-0.246 4.105,-4.419 3.96,-5.316 -0.167,-1.038 -2.69,-1.642 -2.69,-1.642 z m -13.839,-18.572 c 3.472,-0.592 7.117,-0.724 10.511,-1.732 4.663,-1.384 9.102,-3.66 14.086,-3.749 1.592,-0.028 3.315,0.401 4.861,-0.076 0.643,-0.199 1.267,-0.455 1.906,-0.664 0.313,-0.102 0.872,-0.641 0.935,-0.318 0.099,0.511 -0.321,1.463 -0.459,1.969 -1.175,4.306 -6.601,5.013 -10.567,4.964 -1.053,-0.013 -2.107,-0.015 -3.16,-0.034 -1.475,-0.026 -2.901,-0.265 -4.36,-0.004 -3.055,0.545 -6.145,1.523 -9.256,1.675 -1.628,0.08 -2.909,-0.598 -4.447,-0.904 -0.245,-0.048 -2.298,-0.021 -2.31,-0.06 -0.076,-0.245 2.26,-1.067 2.26,-1.067 z" />
  </g>
</svg>
