<?xml version="1.0" encoding="UTF-8" standalone="no"?>
<svg
   xmlns:dc="http://purl.org/dc/elements/1.1/"
   xmlns:cc="http://creativecommons.org/ns#"
   xmlns:rdf="http://www.w3.org/1999/02/22-rdf-syntax-ns#"
   xmlns:svg="http://www.w3.org/2000/svg"
   xmlns="http://www.w3.org/2000/svg"
   width="512mm"
   height="512mm"
   viewBox="0 0 512 512"
   version="1.1"
   id="svg885">
  <defs
     id="defs879" />
  <metadata
     id="metadata882">
    <rdf:RDF>
      <cc:Work
         rdf:about="">
        <dc:format>image/svg+xml</dc:format>
        <dc:type
           rdf:resource="http://purl.org/dc/dcmitype/StillImage" />
        <dc:title></dc:title>
      </cc:Work>
    </rdf:RDF>
  </metadata>
  <g
     style="opacity:1"
     id="layer1">
    <path
       transform="scale(0.26458333)"
       id="path826"
       d="m 968.88477,573.25195 c -40.99828,0 -86.09589,32.79795 -100.44532,30.74805 -14.34939,-2.04994 -26.6506,24.59961 -41,24.59961 -14.34939,0 -45.09787,10.24914 -59.44726,26.64844 -14.3494,16.39929 -51.24694,16.39865 -53.29688,30.74804 -2.0499,14.3494 6.14906,24.59915 -6.15039,32.79883 -12.29949,8.19965 -26.64759,10.24979 -24.59765,32.79883 2.0499,22.54908 -2.051,38.94775 -16.40039,49.19727 -14.34944,10.24962 -24.59961,20.4989 -24.59961,40.99804 0,20.49918 4.10027,96.34745 -8.19922,118.89649 -12.29949,22.54904 -18.44922,75.84595 -18.44922,86.09565 0,10.2498 20.49912,14.3488 18.44922,30.7481 -2.04991,16.3993 -18.44922,20.4991 -18.44922,36.8984 0,16.3993 14.34961,12.2991 14.34961,26.6485 0,14.3494 -12.2999,10.2511 -10.25,22.5508 2.0499,12.2994 36.89886,18.4476 28.69922,28.6972 -8.19965,10.2496 -30.74825,30.7502 -26.64844,45.0996 4.09984,14.3494 20.49871,28.698 8.19922,34.8477 -12.29949,6.1498 -36.64692,4.4329 -36.89844,8.1992 -0.25152,3.7663 67.64693,18.4492 77.89648,0 10.24959,-18.4492 12.29905,-40.998 26.64844,-40.998 14.34939,0 28.6992,22.549 10.25,36.8984 -18.44923,14.3493 10.25043,57.3969 2.05078,67.6465 -8.19964,10.2496 -42.26947,8.2202 -43.04882,10.25 -0.77935,2.0298 20.12602,27.9746 36.52539,27.9746 16.39929,0 29.67187,4.2246 29.67187,4.2246 0,0 -54.74599,52.9461 -52.46875,64.3965 10.24959,14.3493 462.69461,76.3834 466.09761,64.8515 -14.7156,-57.9163 -44.0857,-108.5077 -37.2929,-218.7343 -26.5459,-30.5037 -137.24613,-61.3796 -133.53713,-77.3028 45.74483,13.7917 85.18833,12.4227 104.13473,15.2188 1.5527,-23.2952 13.8951,-104.5449 68.5996,-95.8692 77.8968,12.2993 73.6716,-8.594 81.1465,-12.7968 8.1996,-14.3495 6.1714,-44.6014 14.3711,-48.7012 8.1996,-4.0999 19.2777,-14.3491 11.0781,-22.5488 -8.1997,-8.1996 -8.2013,-6.15 -4.1015,-14.3496 4.0998,-8.1997 6.1498,-16.3983 -4.0996,-20.4981 -10.2497,-4.0998 -14.4525,-20.0017 -5.6524,-21.45116 10.1134,-1.66579 12.4024,-12.42383 12.4024,-12.42383 0,0 13.3769,1.93607 13.3769,-19.91992 0,-14.57303 -13.9769,-17.95182 -24.2265,-24.10156 -10.2495,-6.14975 -32.7987,-30.74891 -36.8985,-51.24805 0,-28.69878 24.5996,-40.99805 24.5996,-77.89648 0,-36.89844 -22.5499,-36.89842 -20.5,-55.34766 2.0499,-18.4492 -8.1996,-32.79971 -18.4492,-34.84961 -10.2496,-2.04994 2.0508,-73.79648 -16.3984,-81.99609 -18.4492,-8.19969 -12.2988,6.1491 -30.7481,-6.15039 -18.4492,-12.29949 10.2479,-22.54924 -41,-32.79883 -51.2478,-10.24955 -59.6528,-7.62089 -72.9257,-11.34766 -8.1998,-10.24959 -21.369,-17.34961 -62.36723,-17.34961 z m 68.23823,170.3711 c 0,0 -0.073,55.70314 31.1641,107.26367 -4.1238,4.41251 -55.8056,-5.7971 -71.02538,-14.49414 -2.89906,18.11882 -44.40021,22.89141 -45.95899,9.12109 -8.69704,23.19212 -51.88281,43.06055 -51.88281,43.06055 0,0 -22.30654,-74.38172 -41.31054,-98.56641 27.04998,5.21323 72.00616,10.26664 81.89648,12.32031 0,0 15.21941,-21.74241 41.31055,-10.87109 13.77032,-18.84362 55.80659,-47.83398 55.80659,-47.83398 z m -258.01167,34.78906 c 2.89901,39.86147 -12.32219,55.80592 -2.90039,78.99805 9.42179,23.19212 12.32176,18.84356 5.07422,39.13672 -7.24755,20.29311 -29.71557,15.21971 -26.0918,39.86132 3.62377,24.64165 12.32161,19.56795 5.79883,31.16407 -6.52279,11.59604 -5.79818,36.96163 0.72461,52.90623 6.52278,15.9446 7.24682,31.1647 3.62304,47.834 -3.62377,16.6694 -22.46649,15.2191 -23.91601,42.7598 -1.44949,27.5407 24.6402,14.4967 7.24609,50.7343 -8.56925,22.8369 -30.06638,36.0583 -37.17306,55.3805 3.66499,-19.7183 11.93313,-50.2573 6.73361,-68.4273 -7.24755,-22.4674 -15.94477,-36.9623 10.87109,-78.9981 10.60906,-14.4229 17.17067,-13.4887 17.39453,-26.8144 0.7248,-40.5863 -27.53994,-0.7256 -23.1914,-25.3672 4.3485,-24.64175 24.64108,-24.64169 22.46679,-39.13674 -2.17424,-14.49506 -26.81586,-13.04616 -19.56836,-36.23828 7.24759,-23.19213 22.46788,-33.33878 26.81641,-48.5586 4.34854,-15.21985 -7.97189,-43.48526 -2.17383,-58.70507 5.79803,-15.21986 25.36662,-43.48373 28.26563,-56.5293 z m -79,7.9707 c -2.17425,24.64165 11.59623,31.16449 -0.72461,48.5586 -12.32081,17.39406 -17.39258,16.6695 -17.39258,38.41211 0,21.74264 13.04412,24.64177 7.24609,38.4121 -5.79806,13.77038 2.3e-4,36.96183 -10.87109,52.18165 -10.87132,15.21985 -19.56821,24.64254 -20.29297,44.93553 -0.72476,20.2931 28.26593,33.3396 26.81641,54.3574 -1.44953,21.0178 -13.77099,57.9801 -26.0918,70.3008 -12.32081,12.3208 -12.32031,10.1465 -12.32031,10.1465 0,0 15.94378,-60.8796 13.76953,-76.8242 -2.17432,-15.9446 -27.54006,-36.2379 -22.4668,-57.9805 5.07334,-21.74247 23.91797,-48.55866 23.91797,-57.98046 0,-9.42179 13.04385,-15.94344 8.69531,-25.36523 -4.34849,-9.4218 -10.14464,-39.86221 -9.41992,-55.08203 0.72476,-15.21986 25.36447,-36.23853 39.13477,-84.07227 z m 149.57812,155.55274 c 12.81196,0 24.59864,9.22469 19.98633,21.01172 -4.61231,11.78698 -15.375,7.17479 -15.375,21.01171 0,13.83693 15.88751,54.83372 6.15039,58.93362 -9.73708,4.0998 -14.86286,5.6371 -13.83789,15.8867 1.02493,10.2496 27.16202,14.8619 24.59961,27.6738 -2.56237,12.812 -19.47386,3.0766 -19.98633,22.5508 -0.5125,19.4741 17.9363,6.6605 17.42383,23.5723 -0.5125,16.9118 -26.13555,27.6752 -25.62305,42.5371 0.51247,14.8618 20.49838,12.2994 18.96094,27.6738 -0.96673,9.6673 -19.28443,29.4373 -31.53125,44.6465 19.70371,11.6708 25.83591,14.5403 56.15039,28.7226 12.18702,-13.8078 47.33794,-52.1507 62.82031,-52.746 0,0 140.60187,64.5026 139.15237,80.4472 -1.4495,15.9445 -25.3657,44.21 -42.7598,48.5586 -74.69729,-25.4444 -149.36853,-61.1644 -219.92772,-98.9453 -4.76979,3.6048 -7.5597,20.7552 -6.95313,14.4004 -1.17244,-19.1174 4.77117,-37.9738 9.22461,-56.3731 4.09985,-16.9118 -18.44876,-23.0614 -17.42383,-34.3359 1.02497,-11.2745 26.64919,-34.3348 26.13672,-43.0469 -0.5125,-8.7121 -18.9608,-13.8371 -16.39843,-23.5742 2.5624,-9.7371 9.73554,-5.6376 10.24804,-16.9121 0.51247,-11.2745 -11.2746,-7.1744 -11.78711,-29.2109 -0.51246,-22.0366 13.3251,-21.5243 15.375,-42.0235 2.04991,-20.4991 -13.83659,-12.8123 -10.76172,-28.69919 3.07488,-15.88683 4.61319,-27.16102 2.05079,-38.43554 -2.56237,-11.27452 24.08593,-13.32422 24.08593,-13.32422 z m 243.74895,448.66275 c 4.6328,0.9085 11.451,17.2943 15.7851,37.9356 l -8.2148,2.3476 8.2851,-2.0117 c 4.623,22.2083 4.6746,41.1229 0.1153,42.2793 -4.5596,1.154 -12.0085,-15.8852 -16.6504,-38.0879 -4.6423,-22.205 -4.7244,-41.1911 -0.1836,-42.4375 0.2742,-0.076 0.5624,-0.084 0.8633,-0.025 z"
       style="fill:#000000;fill-opacity:1;stroke:none;stroke-width:1px;stroke-linecap:butt;stroke-linejoin:miter;stroke-opacity:1" />
  </g>
</svg>
