<?xml version="1.0" encoding="UTF-8" standalone="no"?>
<svg
   xmlns:dc="http://purl.org/dc/elements/1.1/"
   xmlns:cc="http://creativecommons.org/ns#"
   xmlns:rdf="http://www.w3.org/1999/02/22-rdf-syntax-ns#"
   xmlns:svg="http://www.w3.org/2000/svg"
   xmlns="http://www.w3.org/2000/svg"
   id="svg885"
   version="1.1"
   viewBox="0 0 512 512"
   height="512mm"
   width="512mm">
  <defs
     id="defs879" />
  <metadata
     id="metadata882">
    <rdf:RDF>
      <cc:Work
         rdf:about="">
        <dc:format>image/svg+xml</dc:format>
        <dc:type
           rdf:resource="http://purl.org/dc/dcmitype/StillImage" />
        <dc:title></dc:title>
      </cc:Work>
    </rdf:RDF>
  </metadata>
  <g
     style="display:inline;opacity:1"
     id="layer1">
    <g
       id="g841">
      <path
         style="fill:#000000;fill-opacity:1;stroke:none;stroke-width:0.26458332px;stroke-linecap:butt;stroke-linejoin:miter;stroke-opacity:1"
         d="m 199.04457,118.89657 c 7.67031,-3.83516 39.11858,6.90328 47.55592,7.67031 8.43734,0.76703 65.96468,-0.38352 72.10093,7.28679 6.13624,7.67031 5.75273,33.36585 5.75273,33.36585 0,0 -60.59546,-5.75273 -69.0328,-4.9857 -8.43734,0.76703 -67.49874,1.53406 -67.49874,1.53406 0,0 1.15055,-38.73506 11.12196,-44.87131 z"
         id="path825" />
      <path
         style="fill:#000000;fill-opacity:1;stroke:none;stroke-width:0.26458332px;stroke-linecap:butt;stroke-linejoin:miter;stroke-opacity:1"
         d="m 186.77207,171.05468 c 0,0 113.13708,0 114.67113,1.53406 1.53408,1.53407 -34.89989,13.42305 -32.98232,16.10765 1.91757,2.68461 51.77459,-16.87468 65.58116,-16.87468 13.80656,0 33.74937,14.57359 33.74937,17.64172 0,3.06812 -41.4197,8.82085 -43.33726,10.73843 -1.91757,1.91758 -0.38352,9.20437 -0.38352,9.20437 0,0 4.9857,10.35492 3.45165,14.95711 -1.53408,4.60219 -8.43735,30.29773 -8.43735,33.36585 0,3.06813 4.60219,8.43735 4.60219,8.43735 l -92.81077,1.53406 8.05383,46.40537 -23.01093,8.05384 0.38351,20.70984 c 0,0 -12.65601,-2.68462 -14.19007,-9.20438 -1.53406,-6.51976 1.53406,-4.9857 3.06812,-7.67032 1.53407,-2.6846 -0.70624,-11.14751 -2.87573,-13.85935 -2.16949,-2.71188 -4.61017,-6.37289 -3.52542,-9.08476 1.08475,-2.71185 -2.71187,-5.28813 -2.57627,-7.05083 0.13559,-1.76274 2.57627,-9.08476 1.49152,-9.89833 -1.08474,-0.81354 -11.38983,8.13559 -14.64407,5.15255 -3.25423,-2.98305 -4.33898,-26.57626 -1.62711,-30.91525 2.71186,-4.33898 5.9661,-4.33898 6.50847,-7.59322 0.54238,-3.25424 1e-5,-7.05085 -3.25423,-9.76272 -3.25424,-2.71186 -5.69492,-6.77965 -3.79662,-7.05084 1.89831,-0.27119 4.88136,-5.69492 4.33899,-6.77966 -0.54238,-1.08475 -48,11.38983 -56.94916,10.57627 -8.94915,-0.81356 47.18645,-27.11864 52.0678,-31.45763 4.88136,-4.33898 29.78727,-5.24829 39.86441,-11.66101 2.98305,-1.8983 -30.91526,5.15254 -36.0678,1.08474 -2.71186,-2.98304 2.63648,-26.64023 2.63648,-26.64023 z"
         id="path829" />
      <path
         style="fill:#000000;fill-opacity:1;stroke:none;stroke-width:0.26458332px;stroke-linecap:butt;stroke-linejoin:miter;stroke-opacity:1"
         d="m 243.79661,275.25424 c 0,0 97.62712,-5.42375 98.98305,-3.52544 1.35594,1.89831 -10.57627,20.61017 -14.64408,22.2373 -4.06778,1.62711 -10.84744,-1.8983 -12.74574,0.27117 -1.89831,2.16951 22.77964,7.32206 22.77964,9.49153 0,2.16951 -29.55933,4.61018 -29.01693,6.23729 0.54237,1.62714 27.38983,2.16951 28.74576,3.79661 1.35591,1.62714 19.25423,10.57627 20.06777,15.18645 0.81357,4.61015 0,8.40677 2.16951,10.0339 2.1695,1.62711 15.72882,14.10168 14.10168,15.45762 -1.62711,1.35594 -44.94996,-34.32022 -50.66533,-34.0736 -3.68146,0.15885 15.13991,13.46343 14.05517,14.277 -1.08473,0.81354 -30.37287,0.54237 -32,-1.08477 -1.62711,-1.6271 -9.06378,-13.14861 -14.33998,-14.66052 -13.55888,-3.88531 5.66202,15.74529 5.66202,17.3724 0,1.62713 -18.44067,15.18645 -25.76272,27.11865 -7.32203,11.93221 -15.99999,44.47458 -18.44067,46.91526 -2.44068,2.44067 -39.86441,-3.25425 -40.67797,-5.15255 -0.81356,-1.89831 27.38983,-45.01695 24.67797,-46.64406 -2.71186,-1.62713 -30.10169,44.20338 -30.91525,44.20338 -0.81356,0 15.18644,-39.32203 16,-44.47458 0.81355,-5.15255 0.27118,-31.45763 0.27118,-31.45763 l 24.1356,-5.15252 z"
         id="path832" />
      <path
         style="fill:#000000;fill-opacity:1;stroke:none;stroke-width:0.26458332px;stroke-linecap:butt;stroke-linejoin:miter;stroke-opacity:1"
         d="m 321.62712,340.20338 c 7.64488,-0.69271 32.01864,7.18268 32.27117,10.71186 -17.51245,-2.43176 -24.81355,-3.661 -24.81355,-3.661 0,0 26.44069,13.01694 27.79661,19.25422 2.71187,9.22033 -82.71185,47.32204 -86.77966,40.27119 -4.06778,-7.05083 19.79661,-44.61017 21.15254,-46.64406 0.90256,-1.35384 -21.55932,24.67797 -21.55932,24.67797 0,0 15.59665,-41.31777 51.93221,-44.61018 z"
         id="path834" />
    </g>
  </g>
</svg>
