<?xml version="1.0" encoding="UTF-8" standalone="no"?>
<svg
   xmlns:dc="http://purl.org/dc/elements/1.1/"
   xmlns:cc="http://creativecommons.org/ns#"
   xmlns:rdf="http://www.w3.org/1999/02/22-rdf-syntax-ns#"
   xmlns:svg="http://www.w3.org/2000/svg"
   xmlns="http://www.w3.org/2000/svg"
   id="svg885"
   version="1.1"
   viewBox="0 0 512 512"
   height="512mm"
   width="512mm">
  <defs
     id="defs879" />
  <metadata
     id="metadata882">
    <rdf:RDF>
      <cc:Work
         rdf:about="">
        <dc:format>image/svg+xml</dc:format>
        <dc:type
           rdf:resource="http://purl.org/dc/dcmitype/StillImage" />
        <dc:title></dc:title>
      </cc:Work>
    </rdf:RDF>
  </metadata>
  <g
     style="opacity:1"
     id="layer1">
    <g
       style=""
       id="g841">
      <path
         style="fill:#000000;fill-opacity:1;stroke:#000000;stroke-width:0.26458332px;stroke-linecap:butt;stroke-linejoin:miter;stroke-opacity:1"
         d="m 290.16949,252.74576 c 0,0 10.84745,5.42373 13.55933,7.59322 2.71184,2.16949 33.35593,-75.52543 7.59321,-104.13559 -28.74748,-31.92482 -101.42373,-42.0339 -136.54237,10.16949 -1.49152,2.57627 29.01695,6.77965 28.20338,9.35593 -0.94915,2.0339 -31.72881,-5.35592 -30.10169,-0.67797 0.13559,1.69492 24.54238,4.47458 27.79661,7.18645 3.25424,2.71186 -22.23728,-1.62712 -22.77966,1.08474 -0.54237,2.71186 -3.79661,6.50848 -2.71186,8.67797 1.08475,2.16949 -3.25424,-8.1356 -3.79661,-10.30509 -0.54237,-2.16949 -1.62712,17.35593 3.25424,23.86441 4.88135,6.50847 -5.69492,8.94915 -5.69492,12.74576 0,3.79661 -0.81356,5.42373 -2.44068,9.76271 -1.62711,4.33899 -8.52884,10.92831 -8.27118,15.05085 0.54237,8.67797 15.8644,6.91526 16.94915,10.71186 1.08475,3.79661 -1.08475,15.18645 1.08475,16.27119 2.16949,1.08474 0.54237,2.71187 0,5.96609 -0.54238,3.25424 3.25423,10.3051 3.25423,15.72882 0,5.42375 -1.76271,21.9661 3.66102,25.22034 5.42373,3.25424 21.28813,-0.81356 28.33898,-0.27119 7.05085,0.54239 8.13559,16.81355 10.84746,14.64408 2.71186,-2.16951 26.0339,-20.61017 25.49152,-28.2034 -0.54237,-7.59322 -13.55932,8.1356 -24.40678,7.05086 C 212.61017,309.15255 256,303.7288 256,258.16949 c 0,-45.55932 4.33898,40.13559 -1.08475,47.18645 -5.42373,7.05083 25.49154,-14.64408 38.50848,-16.27119 13.01695,-1.62713 15.18642,-5.96611 9.22034,-19.52543 C 296.67798,256 290.16949,252.74576 290.16949,252.74576 Z"
         id="path829" />
      <path
         style="fill:#000000;fill-opacity:1;stroke:none;stroke-width:0.26458332px;stroke-linecap:butt;stroke-linejoin:miter;stroke-opacity:1"
         d="m 217.76271,342.77966 c 2.71186,-4.61018 93.55932,-53.42374 99.79661,-51.7966 6.23728,1.62711 14.1017,12.74574 13.01694,15.18642 -1.08474,2.44067 -34.59058,-3.23825 -53.25123,18.09572 1.09038,3.69226 36.65571,-22.41874 66.94216,-7.38784 0.18048,2.56662 -22.36889,0.68196 -22.64006,3.12263 -0.2712,2.44068 32.66155,-2.40958 53.15254,31.72881 1.42044,2.36648 -5.4952,7.65339 -7.59323,7.05085 -6.50848,-2.71187 -34.71187,-39.59323 -78.10169,-31.18643 -43.38984,8.40679 -59.38984,73.76271 -63.18645,76.74575 -3.79661,2.98307 -11.11864,0.81357 -12.20339,-1.35594 -1.08474,-2.16947 22.23729,-33.62711 20.61017,-35.79659 -1.62712,-2.1695 -15.18644,14.91525 -16.81356,14.91525 -1.62711,0 -0.54237,-36.06778 0.27119,-39.32203 z"
         id="path834" />
      <path
         style="fill:#000000;stroke:none;stroke-width:0.26458332px;stroke-linecap:butt;stroke-linejoin:miter;stroke-opacity:1;fill-opacity:1"
         d="m 234.57627,406.50847 c -2.16949,-3.52544 23.85876,-67.65137 59.0176,-70.42905 25.73385,-2.03307 61.05219,23.26188 62.6793,33.29577 1.62713,10.0339 -54.30309,41.58459 -97.15053,38.60154 0.0907,-8.0947 5.60888,-24.56661 3.65702,-29.40048 -7.59184,11.15473 -7.50016,27.5158 -8.96279,29.28816 -4.33898,0.81354 -14.63043,0.27117 -19.2406,-1.35594 z"
         id="path836" />
    </g>
  </g>
</svg>
