<?xml version="1.0" encoding="UTF-8" standalone="no"?>
<svg
   xmlns:dc="http://purl.org/dc/elements/1.1/"
   xmlns:cc="http://creativecommons.org/ns#"
   xmlns:rdf="http://www.w3.org/1999/02/22-rdf-syntax-ns#"
   xmlns:svg="http://www.w3.org/2000/svg"
   xmlns="http://www.w3.org/2000/svg"
   width="512mm"
   height="512mm"
   viewBox="0 0 512 512"
   version="1.1"
   id="svg885">
  <defs
     id="defs879" />
  <metadata
     id="metadata882">
    <rdf:RDF>
      <cc:Work
         rdf:about="">
        <dc:format>image/svg+xml</dc:format>
        <dc:type
           rdf:resource="http://purl.org/dc/dcmitype/StillImage" />
        <dc:title></dc:title>
      </cc:Work>
    </rdf:RDF>
  </metadata>
  <g
     style="opacity:1"
     id="layer1">
    <g
       id="g862">
      <path
         style="fill:#000000;stroke:none;stroke-width:0.26458332px;stroke-linecap:butt;stroke-linejoin:miter;stroke-opacity:1;fill-opacity:1;opacity:1"
         d="m 164.33898,208.81356 c 0,0 -5.42373,-17.89831 -2.71186,-24.40678 2.71186,-6.50848 18.44067,-23.86441 35.25423,-37.9661 16.81356,-14.1017 63.45763,-25.49153 65.08475,-20.61017 1.62712,4.88135 -8.1356,16.81355 -3.25424,17.8983 4.88136,1.08475 14.1017,-13.55932 14.64407,-10.84745 0.54237,2.71186 9.76271,3.25423 8.67797,8.67796 -1.08474,5.42373 -33.08475,51.52542 -43.38984,60.74576 -10.30508,9.22034 -58.03389,47.18644 -64.54237,43.93221 -6.50847,-3.25424 -10.30508,-16.27119 -7.59322,-24.94916 2.71187,-8.67796 24.40678,-18.98305 24.40678,-18.98305 0,0 -2.71186,-2.16949 -4.88135,-2.71186 -2.1695,-0.54238 1.01694,-4.47458 0.0678,-5.35594 -0.94915,-0.88135 -0.61017,-1.01695 -0.61017,-1.01695 z"
         id="path826" />
      <path
         style="opacity:1;fill:#000000;fill-opacity:1;stroke:none;stroke-width:1px;stroke-linecap:butt;stroke-linejoin:miter;stroke-opacity:1"
         d="m 1139.123,521.39258 c -17.1987,-0.55738 -60.7776,33.89801 -60.7776,33.89801 0,0 14.4158,70.23727 -156.72137,249.46114 -313.09366,230.47167 -293.3252,139.23265 -293.3252,139.23265 -10.40062,1.34494 -18.78906,21.66257 -18.78906,43.70507 0,11.88824 -13.03775,33.51505 39.14453,55.98245 52.18227,22.4673 182.63898,-39.1378 200.75781,-23.918 18.11887,15.2198 -65.22885,-1.4484 5.07227,23.918 70.3011,25.3663 214.52732,115.959 214.52732,115.959 0,0 -13.0455,-12.3199 68.8516,-34.0625 81.8972,-21.7426 78.9978,-36.2382 79.7226,-56.5313 0.7248,-20.2931 -28.9897,-49.283 -31.164,-60.1543 -2.1742,-10.8713 4.3491,-11.59519 18.8442,-18.11797 14.4951,-6.52279 -1.8132,-30.44147 -1.8132,-30.44147 0,0 7.6103,5.0749 3.6242,-15.21818 -3.9861,-20.29312 -38.7741,-17.39453 -5.7978,-30.80245 32.9763,-13.40795 51.0949,-22.46839 50.0078,-48.92187 -1.0871,-26.45352 -76.0984,-71.7501 -77.1855,-85.88281 -1.0871,-14.13268 21.7422,-22.83008 21.7422,-22.83008 -2e-4,0 10.1457,-18.8426 -5.7989,-24.64063 -15.9446,-5.79806 -24.6406,-42.03711 -24.6406,-42.03711 0,0 44.9347,-33.3374 49.2832,-65.22656 4.3486,-31.88916 -57.9796,-98.56752 -72.4746,-102.91601 -0.906,-0.27179 -1.9433,-0.41792 -3.0899,-0.45508 z M 904.43359,914.77344 c 7.91367,-0.0517 14.37381,6.5421 14.43946,14.73828 l -14.34961,0.12305 h 14.34961 c 7.7e-4,8.196 -6.405,14.84555 -14.31836,14.86328 -7.91349,0.0169 -14.3464,-6.60472 -14.37891,-14.80078 -0.0331,-8.19524 6.34526,-14.8716 14.25781,-14.92383 z m 1.24219,42.65234 c 7.494,-0.10771 12.88667,26.76389 12.94908,43.94982 l -13.58789,0.2598 h 13.58789 c -7e-5,17.1859 -5.34195,18.0824 -12.8358,18.1185 -7.49406,0.036 -14.31087,-0.8033 -14.34193,-17.9896 -0.0311,-17.18568 6.73497,-44.23088 14.22865,-44.33852 z"
         transform="scale(0.26458333)"
         id="path828" />
      <path
         style="opacity:1;fill:#000000;fill-opacity:1;stroke:none;stroke-width:0.26458332px;stroke-linecap:butt;stroke-linejoin:miter;stroke-opacity:1"
         d="m 148.0678,310.50846 c 0.27118,-26.84745 27.61289,-27.93219 39.8644,-27.93219 81.99179,0 138.61972,84.92291 143.18643,101.9661 4.56673,17.04319 -114.16948,56.40678 -187.661,-29.01696 3.59509,-17.92499 28.47457,-16.81356 47.45762,-16.27119 18.98305,0.5424 57.22034,4.88138 94.37289,31.45764 37.15253,26.57628 -28.2034,-50.98304 -89.22035,-50.98304 -8.47531,-0.38352 -22.40606,2.45664 -26.84745,11.11864 -21.69959,-9.74674 -21.15254,-20.339 -21.15254,-20.339 z"
         id="path830" />
      <path
         style="opacity:1;fill:#000000;fill-opacity:1;stroke:none;stroke-width:0.26458332px;stroke-linecap:butt;stroke-linejoin:miter;stroke-opacity:1"
         d="m 295.18643,312.54237 c 0,0 3.66102,-13.42372 21.28815,-9.35594 17.62712,4.06781 28.74576,41.08475 19.52543,78.77967 -6.77968,-37.42372 -15.05086,-41.62713 -40.81358,-69.42373 z"
         id="path832" />
    </g>
  </g>
</svg>
