<?xml version="1.0" encoding="UTF-8" standalone="no"?>
<svg
   xmlns:dc="http://purl.org/dc/elements/1.1/"
   xmlns:cc="http://creativecommons.org/ns#"
   xmlns:rdf="http://www.w3.org/1999/02/22-rdf-syntax-ns#"
   xmlns:svg="http://www.w3.org/2000/svg"
   xmlns="http://www.w3.org/2000/svg"
   width="512mm"
   height="512mm"
   viewBox="0 0 512 512"
   version="1.1"
   id="svg885">
  <defs
     id="defs879" />
  <metadata
     id="metadata882">
    <rdf:RDF>
      <cc:Work
         rdf:about="">
        <dc:format>image/svg+xml</dc:format>
        <dc:type
           rdf:resource="http://purl.org/dc/dcmitype/StillImage" />
        <dc:title></dc:title>
      </cc:Work>
    </rdf:RDF>
  </metadata>
  <g
     style="opacity:1"
     id="layer1">
    <g
       id="g842">
      <path
         style="fill:#000000;fill-opacity:1;stroke:none;stroke-width:1px;stroke-linecap:butt;stroke-linejoin:miter;stroke-opacity:1"
         d="m 1043.6445,497.20703 c -61.604,0 -123.93162,34.06285 -143.49997,42.03516 -19.56835,7.97231 -45.65921,21.74341 -79.72265,25.36719 -34.06341,3.62377 -142.05247,67.40097 -143.50196,103.63867 -1.44952,36.23769 27.53994,55.80561 23.19141,60.8789 0,0 -46.18877,9.86612 -88.21202,26.26541 22.0155,99.76163 226.51456,17.42404 230.61436,26.64866 4.09984,9.22461 -140.41884,52.27455 -140.41884,58.42425 0,6.14975 9.22519,25.6223 19.9872,60.9833 13.83692,28.1863 9.73646,58.42252 12.29883,67.64713 2.56241,9.22458 -45.09732,36.3863 -52.78451,51.7607 -8.71214,25.6238 46.63584,23.0625 50.73568,27.6748 4.09984,4.6124 -7.17503,29.7227 -7.6875,38.9473 -0.51246,9.2246 10.7626,10.2502 12.8125,15.375 2.04994,5.1248 -7.68848,6.6624 -3.07617,14.3496 4.61231,7.6872 12.81314,14.3494 18.96289,18.4492 6.14975,4.1 -7.17445,53.2971 5.125,67.6465 11.38877,13.2869 99.21838,1.0912 106.46875,-4.0429 5.14149,9.4888 57.01237,71.5881 61.62305,70.666 5.12477,-1.025 190.64165,-53.299 197.81645,-58.4239 7.1746,-5.1248 6.1498,-63.5469 9.2246,-72.7714 -14.6816,-0.1653 -18.2927,0.7759 -42.0852,-3.7272 25.8531,-8.4893 53.3593,-8.5715 68.7336,-12.6713 15.3744,-4.0998 138.3706,-199.86784 137.3457,-215.24216 -1.025,-15.37437 -261.3652,-89.17099 -261.3652,-96.34571 0,-7.17467 228.4643,41.59544 250.9316,43.04493 11.2337,0.72476 7.4429,-35.50072 5.4603,-71.70704 -24.6863,-32.64822 -34.046,-43.40336 -46.0189,-59.99609 20.989,8.8503 32.587,31.68758 46.3573,24.44004 13.7703,-7.24755 -60.8786,-139.15197 -91.3183,-170.31641 -30.4396,-31.1644 -96.3939,-78.99863 -157.998,-78.99863 z M 937,701.02973 c 82.1903,17.34861 156.0612,51.99946 145.3548,63.58724 C 988.24783,729.72852 824.06531,726.69487 746.16862,725.66992 751.75293,708.75127 779.32475,701.65721 937,701.02973 Z"
         transform="scale(0.26458333)"
         id="path826" />
      <path
         style="fill:#000000;stroke:none;stroke-width:0.26458332px;stroke-linecap:butt;stroke-linejoin:miter;stroke-opacity:1;fill-opacity:1"
         d="m 347.65683,384.28932 c 1.34231,-1.72582 -26.07905,-35.4752 -26.07905,-39.31033 0,-3.83517 2.49285,-5.36922 1.53405,-7.86207 -0.95877,-2.49285 -11.31371,-13.80657 -14.9571,-14.38185 -3.64339,-0.57526 -72.10092,27.61313 -73.44322,30.10598 -1.34231,2.49285 -0.57527,29.72245 1.72582,30.29773 2.30109,0.57526 23.39445,-23.96974 25.31202,-22.43566 1.91758,1.53405 -35.09167,48.89823 -31.06475,51.77459 4.02691,2.87637 14.76534,1.91757 16.29941,0.57529 1.53406,-1.34231 14.76534,-33.1741 24.92852,-42.76199 10.16314,-9.58789 21.86037,-14.19008 29.14716,-14.19008 7.28681,0 44.48781,28.76368 46.59714,28.18839 z"
         id="path828" />
      <path
         style="fill:#000000;fill-opacity:1;stroke:none;stroke-width:0.26458332px;stroke-linecap:butt;stroke-linejoin:miter;stroke-opacity:1"
         d="m 256.57189,412.66948 c 1.34231,1.34229 61.55424,1.53406 82.26408,-23.77797 0.57527,-4.21868 -29.72245,-23.5862 -38.1598,-23.5862 -8.43732,0 -21.09335,0.76703 -44.10428,47.36417 z"
         id="path830" />
    </g>
  </g>
</svg>
