<?xml version="1.0" encoding="UTF-8" standalone="no"?>
<svg
   xmlns:dc="http://purl.org/dc/elements/1.1/"
   xmlns:cc="http://creativecommons.org/ns#"
   xmlns:rdf="http://www.w3.org/1999/02/22-rdf-syntax-ns#"
   xmlns:svg="http://www.w3.org/2000/svg"
   xmlns="http://www.w3.org/2000/svg"
   width="512mm"
   height="512mm"
   viewBox="0 0 512 512"
   version="1.1"
   id="svg885">
  <defs
     id="defs879" />
  <metadata
     id="metadata882">
    <rdf:RDF>
      <cc:Work
         rdf:about="">
        <dc:format>image/svg+xml</dc:format>
        <dc:type
           rdf:resource="http://purl.org/dc/dcmitype/StillImage" />
        <dc:title></dc:title>
      </cc:Work>
    </rdf:RDF>
  </metadata>
  <g
     style="opacity:1"
     id="layer1">
    <g
       id="g835">
      <path
         style="fill:#000000;fill-opacity:1;stroke:#000000;stroke-width:0.26458332px;stroke-linecap:butt;stroke-linejoin:miter;stroke-opacity:1"
         d="m 203.38983,136.13559 c -1.62712,-2.16949 34.12416,-12.53786 48.81356,-11.38983 23.27316,1.81888 40.23429,18.09006 39.69192,20.80193 -0.54237,2.71187 -19.20772,6.79797 -17.99701,25.29976 11.94913,-13.7135 18.44067,-18.98305 21.69491,-18.44067 3.25424,0.54237 14.10171,23.86441 13.55934,27.66101 -0.5424,3.79661 -3.11867,10.71186 -2.5763,13.9661 0.54237,3.25424 21.32954,15.94762 21.32954,21.31683 0,5.36922 -12.84777,7.2868 -13.61482,8.82086 -0.76703,1.53406 4.41045,5.75274 4.60219,7.47855 0.19177,1.72582 -4.02691,2.87637 -4.41042,4.60219 -0.38351,1.72582 2.10934,6.13625 1.91757,7.2868 -0.19175,1.15054 -5.17745,3.06812 -5.17745,4.60218 0,1.53407 2.87637,18.02524 0.38352,20.13458 -2.49286,2.10931 -19.75104,-1.15057 -23.58621,1.34229 -3.83516,2.49285 -12.27251,25.31202 -13.61479,25.31202 -1.34231,0 -11.50548,-8.24558 -11.88899,-9.58789 -0.38352,-1.34228 7.67031,-12.656 7.67031,-21.2851 0,-8.6291 -7.86207,-9.20437 -7.09504,-13.6148 0.76703,-4.41043 18.02522,-30.68125 18.02522,-40.65265 0,-9.97141 -20.13456,-29.5307 -29.9142,-31.64003 -9.77965,-2.10934 20.13456,19.75105 20.32633,24.35324 0.19175,4.60218 -6.51978,3.06812 -6.51978,5.75273 0,2.68461 1.91759,13.42304 -1.53405,18.6005 -3.45164,5.17746 -14.95711,6.32801 -14.95711,13.03953 0,6.71152 8.43734,17.06644 8.43734,32.02355 0,14.95711 -19.17578,33.1741 -20.32632,33.1741 -1.15055,0 -3.45164,-21.09335 -7.09504,-21.09335 -3.6434,0 -1.15055,18.40872 -3.45164,20.51806 -2.30109,2.10934 -31.25652,16.8747 -31.25652,19.75107 0,2.87636 35.09167,-11.889 42.57023,-11.889 7.47855,0 35.68862,45.58593 36.77338,45.85713 1.08474,0.2712 4.88135,-21.15253 8.40677,-21.42373 3.52541,-0.27117 40.40677,56.40678 39.8644,60.47459 -0.54237,4.06779 -71.32203,18.98304 -76.47457,18.16949 -5.15254,-0.81356 -74.0339,-24.1356 -74.0339,-26.57628 0,-2.44067 28.47458,-55.32205 56.40678,-55.05085 27.9322,0.2712 28.20339,16.27119 28.20339,16.27119 0,0 -3.52542,58.57626 -1.08475,58.57626 2.44068,0 11.66103,-56.13559 10.84746,-57.49152 -0.81357,-1.35594 -21.22406,-27.12537 -34.16949,-25.76269 -51.52542,5.42373 -59.52542,58.98305 -63.05084,62.23727 -2.08443,-0.57104 -5.41923,-2.1251 -6.64408,-3.38983 1.17707,-10.40206 -2.98304,-17.62712 20.88136,-52.88135 -1.62712,-1.62711 -14.64407,18.98306 -18.71186,19.52543 -4.0678,0.54237 -16.54237,-2.44068 -16.81356,-4.33898 -0.27119,-1.89831 14.37288,-0.81357 16,-2.44068 1.62712,-1.62713 5.69491,-11.11866 5.69491,-11.11866 0,0 -6.23728,5.96611 -11.11864,6.23728 -4.88136,0.2712 -19.79661,-0.54237 -20.88136,-7.5932 -1.08474,-7.05085 -2.44067,-8.94916 -1.08474,-9.76272 1.35593,-0.81357 5.9661,7.86442 13.01695,7.86442 7.05084,0 35.25423,-31.18646 33.62711,-32.81357 -1.62711,-1.62711 -21.69491,21.6949 -33.8983,21.6949 -12.20339,0 -13.01695,-19.5254 -13.01695,-19.5254 0,0 6.77966,2.71185 14.64407,-1.08476 7.86441,-3.79662 27.38983,-30.91524 27.38983,-50.44067 0,-19.52543 0.54237,-7.05085 -1.35593,-7.05085 -1.89831,0 -15.45763,39.86442 -19.25424,39.32202 -1.87903,-34.67525 -4.0678,-33.62711 7.86441,-60.74575 11.9322,-27.11864 0.81356,-34.44068 6.50847,-46.64407 5.69492,-12.20339 25.03794,-30.18345 65.89831,-38.77966 9.22034,-0.54237 -34.44068,2.44068 -34.44068,2.44068 z"
         id="path826" />
      <path
         style="fill:#000000;stroke:#000000;stroke-width:0.26458332px;stroke-linecap:butt;stroke-linejoin:miter;stroke-opacity:1;fill-opacity:1"
         d="m 256.95541,293.20437 c 2.49285,-0.19175 22.81918,20.13458 22.81918,24.16148 0,4.02693 -7.47855,21.66864 -8.82086,21.47687 -1.34231,-0.19175 -24.35324,-30.48948 -24.16148,-32.59881 0.19176,-2.10934 8.43734,-12.84777 10.16316,-13.03954 z"
         id="path828" />
    </g>
  </g>
</svg>
