<?xml version="1.0" encoding="UTF-8" standalone="no"?>
<svg
   xmlns:dc="http://purl.org/dc/elements/1.1/"
   xmlns:cc="http://creativecommons.org/ns#"
   xmlns:rdf="http://www.w3.org/1999/02/22-rdf-syntax-ns#"
   xmlns:svg="http://www.w3.org/2000/svg"
   xmlns="http://www.w3.org/2000/svg"
   width="512mm"
   height="512mm"
   viewBox="0 0 512 512"
   version="1.1"
   id="svg885">
  <defs
     id="defs879" />
  <metadata
     id="metadata882">
    <rdf:RDF>
      <cc:Work
         rdf:about="">
        <dc:format>image/svg+xml</dc:format>
        <dc:type
           rdf:resource="http://purl.org/dc/dcmitype/StillImage" />
        <dc:title></dc:title>
      </cc:Work>
    </rdf:RDF>
  </metadata>
  <g
     id="g850">
    <path
       style="fill:#000000;stroke:none;stroke-width:0.26458332px;stroke-linecap:butt;stroke-linejoin:miter;stroke-opacity:1;fill-opacity:1"
       d="m 160.69301,191.18925 c -0.38352,2.87636 21.47687,6.71152 21.47687,8.62909 0,1.91758 -23.5862,0.76704 -23.77796,2.87637 -0.19176,2.10934 6.13625,6.32801 8.24558,6.32801 2.10934,0 50.04878,-9.20438 86.86627,-9.20438 36.81749,0 53.1169,7.2868 55.22624,8.24559 2.10934,0.95879 30.48947,19.94281 34.5164,19.94281 4.02691,0 12.27249,-33.36585 12.27249,-36.81749 0,-3.45165 -2.68459,-61.55425 -60.02017,-61.55425 -57.33558,0 -134.99748,56.37679 -134.80572,61.55425 z"
       id="path826" />
    <path
       style="fill:#000000;fill-opacity:1;stroke:none;stroke-width:0.26458332px;stroke-linecap:butt;stroke-linejoin:miter;stroke-opacity:1"
       d="m 185.49152,215.59322 c 1.62712,-2.71187 49.08475,-10.0339 74.0339,-8.94915 24.94915,1.08474 78.91526,23.05084 78.91526,27.11864 0,4.0678 -8.13559,19.25424 -8.94916,23.8644 -0.81357,4.61018 -2.44067,23.32205 0.54237,26.84746 2.98305,3.52542 6.23729,6.23729 5.69492,8.94916 -0.54237,2.71185 -24.67795,3.25422 -30.91527,6.23729 -6.23728,2.98305 -59.38981,39.32203 -62.10168,38.23729 -2.71186,-1.08476 2.44068,-14.10171 0.81356,-14.37288 -1.62712,-0.2712 -13.01695,-1.35594 -17.35593,0.81354 -4.33898,2.16951 -11.11864,4.06781 -14.37288,4.33898 -3.25424,0.2712 -18.71187,-5.69491 -20.88136,-13.01694 -2.16949,-7.32203 0.54238,-14.91525 -0.54237,-17.08475 -1.08475,-2.16948 -4.74576,-8 -3.79661,-9.22034 0.94915,-1.22033 0.94915,-0.54237 0.94915,-0.54237 0,0 -10.02024,0.6902 -13.42373,1.08474 -3.44525,-0.43737 5.15255,-18.23729 5.15255,-18.23729 0,0 2.37287,-0.13557 5.08474,-0.67794 1.35593,-0.27119 -0.95807,-2.91565 0.19849,-4.41584 1.15656,-1.5002 4.56334,-2.26291 4.61507,-3.92316 0.0914,-2.93191 -2.30508,-6.10169 -3.66102,-6.91525 -1.35593,-0.81356 -12.47457,-3.25424 -12.47457,-7.32203 0,-4.0678 17.35593,-21.15255 17.35593,-24.1356 0,-2.98305 -4.33898,-5.15254 -4.88136,-8.67796 z"
       id="path828" />
    <path
       style="fill:#000000;fill-opacity:1;stroke:none;stroke-width:0.26458332px;stroke-linecap:butt;stroke-linejoin:miter;stroke-opacity:1"
       d="m 172.76693,278.61433 c -115.177952,155.59044 -57.58897,77.79522 0,0 z"
       id="path830" />
    <path
       style="fill:#000000;fill-opacity:1;stroke:none;stroke-width:0.26458332px;stroke-linecap:butt;stroke-linejoin:miter;stroke-opacity:1"
       d="m 127.90243,299.14887 c -2.87636,-0.57526 -12.65601,-14.95711 -5.56097,-18.40876 7.09503,-3.45162 31.1127,-6.61563 31.1127,-6.61563 0,0 6.37604,13.04819 8.83545,17.26732 -2.62287,0.87221 -26.43095,8.45618 -34.38718,7.75707 z"
       id="path832" />
    <path
       style="fill:#000000;stroke:none;stroke-width:0.26458332px;stroke-linecap:butt;stroke-linejoin:miter;stroke-opacity:1;fill-opacity:1"
       d="m 236.33898,338.57625 c -1.8983,-2.30507 -22.10169,6.64409 -23.59322,8.2712 -1.49153,1.62713 -2.44068,12.47457 -3.52542,13.55934 -1.08475,1.08474 -20.20339,23.72881 -19.66102,26.84745 0.54237,3.11865 21.69491,10.84744 23.45763,10.0339 1.76271,-0.81357 8.81356,-29.28816 8.94915,-30.91526 0.13559,-1.62711 -2.0339,-7.72883 -2.30509,-10.84747 -0.27118,-3.11864 16.1356,-15.45762 16.67797,-16.94916 z"
       id="path834" />
    <path
       style="fill:#000000;stroke:none;stroke-width:0.26458332px;stroke-linecap:butt;stroke-linejoin:miter;stroke-opacity:1;fill-opacity:1"
       d="m 225.62712,358.10168 c 0.27118,2.30511 4.61017,5.83052 4.06779,10.4407 -0.54237,4.61015 -5.42373,13.69491 -6.37288,16.67796 -0.94915,2.98304 -3.52542,14.64405 -1.8983,16.27118 1.62712,1.62711 35.52542,3.66102 48.81356,3.66102 13.28814,0 44.61015,-8.54237 59.7966,-17.35593 15.18645,-8.81356 44.74578,-32.67797 45.15255,-36.06781 0.40677,-3.38982 -14.64408,-21.96608 -18.98306,-21.69491 -4.33898,0.2712 -36.33899,10.98307 -40.81354,13.28814 -4.47458,2.30508 -76.2034,44.47458 -78.37289,43.25424 -2.16949,-1.22033 0.67796,-13.96611 0.81356,-15.59321 0.13559,-1.62714 -2.71187,-18.57629 -12.20339,-12.88138 z"
       id="path836" />
    <path
       style="fill:#000000;stroke:none;stroke-width:0.26458332px;stroke-linecap:butt;stroke-linejoin:miter;stroke-opacity:1;fill-opacity:1"
       d="m 232.54237,349.69492 c 0.13559,2.16948 8,8.81356 9.22034,11.38981 1.22034,2.57627 0.81356,10.44069 2.98305,11.79663 2.16949,1.35591 79.59321,-44.61018 84.20339,-45.01695 4.61018,-0.40679 28.61016,-0.67797 30.77967,-2.3051 2.16948,-1.62711 3.93218,-4.61015 3.25421,-5.42372 -0.67794,-0.81357 -7.59319,-4.61018 -8.27116,-6.37289 -0.67797,-1.7627 1.76271,-18.84746 -0.2712,-20.88134 -2.0339,-2.0339 -6.37289,-1.8983 -7.86439,-0.67796 -1.49154,1.22033 0,6.64405 -1.89831,7.59319 -1.89831,0.94917 -30.2373,2.98307 -37.01695,5.96612 -6.77966,2.98304 -65.62712,42.30507 -67.38984,42.57627 -1.76271,0.27117 -7.05084,-1.62713 -7.72881,1.35594 z"
       id="path838" />
    <path
       style="fill:#000000;stroke:none;stroke-width:0.26458332px;stroke-linecap:butt;stroke-linejoin:miter;stroke-opacity:1;fill-opacity:1"
       d="m 157.22034,273.69492 c 0,0 3.79661,8.40676 5.76271,8.61015 1.9661,0.20341 2.37288,0.1356 2.37288,0.1356 l 0.27119,8.47458 4.33898,-0.54237 v -8.06781 c 0,0 6.10169,-2.30508 5.22034,-10.37286 -11.8455,0.87447 -12.08212,0.96633 -17.9661,1.76271 z"
       id="path840" />
  </g>
</svg>
