<?xml version="1.0" encoding="UTF-8" standalone="no"?>
<svg
   xmlns:dc="http://purl.org/dc/elements/1.1/"
   xmlns:cc="http://creativecommons.org/ns#"
   xmlns:rdf="http://www.w3.org/1999/02/22-rdf-syntax-ns#"
   xmlns:svg="http://www.w3.org/2000/svg"
   xmlns="http://www.w3.org/2000/svg"
   id="svg885"
   version="1.1"
   viewBox="0 0 512 512"
   height="512mm"
   width="512mm">
  <defs
     id="defs879" />
  <metadata
     id="metadata882">
    <rdf:RDF>
      <cc:Work
         rdf:about="">
        <dc:format>image/svg+xml</dc:format>
        <dc:type
           rdf:resource="http://purl.org/dc/dcmitype/StillImage" />
        <dc:title></dc:title>
      </cc:Work>
    </rdf:RDF>
  </metadata>
  <g
     style="opacity:1"
     id="layer1">
    <g
       style=""
       id="g856">
      <path
         style="fill:#000000;fill-opacity:1;stroke:#000000;stroke-width:0.26458332px;stroke-linecap:butt;stroke-linejoin:miter;stroke-opacity:1"
         d="m 252.73674,106.62407 c 18.40873,0 50.24054,15.72414 57.52733,16.10765 7.28681,0.38352 -3.06814,17.06644 -2.30108,22.05215 -6.51977,1.15054 -22.62744,-6.71152 -42.18673,2.49285 -19.55928,9.20437 -62.32127,58.86963 -68.26576,74.21025 -1.35057,-13.4252 22.2439,-45.44659 22.62742,-49.66526 0.38351,-4.21867 -27.99664,-37.96804 -28.76367,-40.26913 -0.76703,-2.30109 45.63835,-24.92851 61.36249,-24.92851 z"
         id="path831" />
      <path
         style="fill:#000000;stroke:none;stroke-width:0.26458332px;stroke-linecap:butt;stroke-linejoin:miter;stroke-opacity:1;fill-opacity:1"
         d="m 210.98305,166.64406 c -3.66102,-2.16949 -30.91526,33.49153 -34.71186,42.1695 -3.79661,8.67796 -7.59323,97.35592 -5.42373,97.35592 2.16949,0 20.33898,-73.22033 20.88135,-78.64406 0.54237,-5.42373 -0.27118,-20.88135 2.16949,-26.0339 2.44068,-5.15254 20.88136,-31.18644 17.08475,-34.84746 z"
         id="path833" />
      <path
         style="fill:#000000;stroke:none;stroke-width:0.26458332px;stroke-linecap:butt;stroke-linejoin:miter;stroke-opacity:1;fill-opacity:1"
         d="m 275.93943,167.98656 c -1.91757,-4.60219 -5.75273,-8.82086 -11.50547,-7.67032 -5.75273,1.15055 -25.50378,23.58621 -27.42136,24.35324 -1.91757,0.76703 -6.90328,0.95879 -8.24558,2.87637 -1.3423,1.91758 -20.70984,34.5164 -23.01093,38.92683 -2.3011,4.41043 -10.35492,21.28511 -11.50547,24.73675 -1.15055,3.45164 -17.06644,64.4306 -20.32632,68.45753 -3.25988,4.02691 -4.41043,4.02691 -6.32801,7.09504 -1.91758,3.06811 0.95879,5.36922 -1.53406,8.05381 -2.49285,2.68462 -11.31371,14.76536 -24.545,9.58789 -13.23128,-5.17744 4.60219,5.36922 8.43735,5.56099 3.83515,0.19174 16.68292,-8.24558 17.2582,-6.71153 0.57527,1.53406 -15.9159,22.43566 -13.80656,24.16149 2.10933,1.72579 20.13456,-22.05215 23.01093,-16.8747 2.87637,5.17747 -9.20437,22.62743 -8.6291,26.07905 0.57527,3.45165 39.11858,24.545 40.8444,22.43566 1.72582,-2.10934 17.2582,-52.92513 17.64172,-58.67786 0.38351,-5.75273 -14.38183,-36.81751 -13.99832,-42.37847 0.38351,-5.56099 -0.76703,-5.75273 0.38351,-5.75273 1.15055,0 9.58789,13.03951 10.35493,16.29939 0.76703,3.2599 0.57527,11.12197 2.30109,11.12197 1.72582,0 3.06812,-10.9302 2.30109,-12.65603 -0.76703,-1.72582 -7.47855,-9.58789 -9.01261,-15.53236 -1.53407,-5.9445 -3.06813,-32.21531 1.91757,-37.96805 4.98571,-5.75273 16.68293,-15.91589 23.2027,-25.69554 6.51976,-9.77965 13.03952,-41.41968 15.91589,-45.25483 2.87637,-3.83516 15.53238,-9.01262 16.29941,-14.57359 z"
         id="path835" />
      <path
         style="fill:#000000;fill-opacity:1;stroke:none;stroke-width:0.26458332px;stroke-linecap:butt;stroke-linejoin:miter;stroke-opacity:1"
         d="m 269.69492,157.8305 c -0.1356,-2.57626 24.27118,-6.37288 30.23727,-6.10169 5.96612,0.27119 27.11866,12.88136 32.00001,18.0339 4.88135,5.15254 20.61016,29.83051 22.77967,35.52542 2.16948,5.69492 0.81354,31.45763 2.44067,34.71187 1.62711,3.25423 8.94914,30.64406 8.40677,38.23729 -0.54237,7.59322 -2.71185,19.25423 1.62713,21.9661 4.33898,2.71187 -0.27119,1.89831 -3.25424,1.35594 -2.98304,-0.54237 6.77966,27.38982 9.49153,33.35591 2.71185,5.96612 -18.95948,-25.41145 -18.76774,-32.31473 0.19177,-6.90329 -2.30108,2.78048 -2.30108,6.23213 0,3.45162 5.94447,23.29858 7.28678,25.40791 1.34231,2.10931 8.72498,7.28679 8.53324,11.12195 -0.19177,3.83513 0.0959,14.66945 -1.9176,14.66945 -2.01345,0 -6.61564,-20.03867 -8.05381,-20.13455 -1.43819,-0.0959 -2.87637,21.76449 1.15055,30.10596 -4.12281,-1.62995 -9.49201,-2.87637 -10.25904,-1.34229 -0.76705,1.53406 1.91757,11.31371 -3.35577,10.54667 -9.77964,0.76702 -10.64257,-21.86038 -12.17662,-28.66779 -1.53406,-6.80739 -1.72583,17.35407 -3.64339,17.16233 -1.9176,-0.19177 -20.0387,-15.24474 -20.0387,-19.17579 0,-3.93102 8.53324,-10.25903 14.19008,-10.4508 5.65685,-0.19174 15.05299,1.34231 18.21699,-3.06811 3.16399,-4.41044 5.9445,-39.11859 9.39612,-45.25483 3.45165,-6.13625 5.17747,-10.73844 5.36921,-14.76537 0.19177,-4.0269 -0.38351,-22.43565 -2.87636,-26.65432 -2.49285,-4.21867 -0.76703,-35.09167 -2.49285,-37.96804 -1.7258,-2.87636 -10.93018,-25.31202 -25.88728,-32.59882 -14.95711,-7.28679 -45.25484,-10.16316 -45.44661,-12.46425 -0.19174,-2.3011 30.68124,-0.76703 30.4895,-2.68461 -0.19177,-1.91758 -41.63621,-2.67039 -41.14443,-4.78684 z"
         id="path837" />
      <path
         style="fill:#000000;stroke:none;stroke-width:0.26458332px;stroke-linecap:butt;stroke-linejoin:miter;stroke-opacity:1;fill-opacity:1"
         d="m 294.7317,175.65687 c 7.09504,0.38351 52.15811,11.50546 52.54162,39.5021 0.38351,27.99663 -0.76703,33.36585 0.19177,34.32464 0.95877,0.95879 4.02691,5.94449 4.79393,12.65601 0.76703,6.71152 -8.05383,26.65433 -9.77963,33.17408 -1.72583,6.51979 -0.38354,30.87302 -5.17747,34.32466 -4.79394,3.45163 -67.11522,-6.32801 -72.10092,-9.77966 -4.98571,-3.45162 -3.45165,1.72583 -2.68461,2.49285 0.76703,0.76703 46.02185,16.87471 45.44659,20.90161 -0.57528,4.02691 -2.3011,6.51976 -5.17747,6.90327 -2.87636,0.38352 -62.70478,-19.17578 -66.15642,-28.18839 -3.45164,-9.01261 6.328,-9.9714 6.328,-12.46425 0,-2.49286 -15.72413,-7.28679 -15.34062,-9.39613 0.38352,-2.10933 14.38183,-7.28681 14.19008,-9.77966 -0.19176,-2.49285 -17.83348,-1.15054 -17.83348,-3.83513 0,-2.68462 -1.72582,-23.39446 1.72582,-27.80489 3.45164,-4.41043 25.12027,-15.72414 30.29773,-32.79058 5.17746,-17.06644 16.29942,-51.39108 23.5862,-51.39108 7.28681,0 15.14888,1.15055 15.14888,1.15055 z"
         id="path839" />
      <path
         style="fill:#000000;fill-opacity:1;stroke:none;stroke-width:0.26458332px;stroke-linecap:butt;stroke-linejoin:miter;stroke-opacity:1"
         d="m 237.28813,336.54238 c 3.38983,-1.08477 40.54238,19.9322 43.38983,20.61016 2.84747,0.67797 26.57628,-1.08476 29.28813,2.16948 2.71187,3.25424 28.47459,22.2373 26.71188,25.62712 -1.76273,3.38984 -53.42374,23.32204 -56.81358,21.55933 -3.38981,-1.7627 -3.67052,-8.09724 -5.38964,-7.96144 -1.07838,0.0852 -5.05103,10.94449 -7.08493,10.94449 -2.03388,0 -0.62628,-28.99652 -2.58191,-29.85659 -2.43503,0.38632 -5.55367,29.58539 -9.35029,29.72099 -3.79661,0.1356 -40.13559,-7.05083 -40.13559,-11.66101 0,-4.61018 12.0678,-34.16948 16.13559,-36.33898 4.0678,-2.16948 23.05085,-2.16948 22.37288,-5.28815 -0.67796,-3.11864 -20.47457,-0.27117 -20.06779,-3.79659 0.40678,-3.52544 3.52542,-15.72881 3.52542,-15.72881 z"
         id="path841" />
    </g>
  </g>
</svg>
