<?xml version="1.0" encoding="UTF-8" standalone="no"?>
<svg
   xmlns:dc="http://purl.org/dc/elements/1.1/"
   xmlns:cc="http://creativecommons.org/ns#"
   xmlns:rdf="http://www.w3.org/1999/02/22-rdf-syntax-ns#"
   xmlns:svg="http://www.w3.org/2000/svg"
   xmlns="http://www.w3.org/2000/svg"
   xmlns:sodipodi="http://sodipodi.sourceforge.net/DTD/sodipodi-0.dtd"
   xmlns:inkscape="http://www.inkscape.org/namespaces/inkscape"
   id="svg885"
   version="1.1"
   viewBox="0 0 512 512"
   height="512mm"
   width="512mm"
   sodipodi:docname="purple_woman.svg"
   inkscape:version="0.92.3 (2405546, 2018-03-11)">
  <sodipodi:namedview
     pagecolor="#ffffff"
     bordercolor="#666666"
     borderopacity="1"
     objecttolerance="10"
     gridtolerance="10"
     guidetolerance="10"
     inkscape:pageopacity="0"
     inkscape:pageshadow="2"
     inkscape:window-width="1920"
     inkscape:window-height="1017"
     id="namedview8"
     showgrid="false"
     inkscape:zoom="0.24391276"
     inkscape:cx="800.06304"
     inkscape:cy="1647.5593"
     inkscape:window-x="-8"
     inkscape:window-y="-8"
     inkscape:window-maximized="1"
     inkscape:current-layer="svg885" />
  <defs
     id="defs879" />
  <metadata
     id="metadata882">
    <rdf:RDF>
      <cc:Work
         rdf:about="">
        <dc:format>image/svg+xml</dc:format>
        <dc:type
           rdf:resource="http://purl.org/dc/dcmitype/StillImage" />
        <dc:title />
      </cc:Work>
    </rdf:RDF>
  </metadata>
  <g
     inkscape:groupmode="layer"
     id="layer1"
     inkscape:label="Layer 1"
     style="opacity:1">
    <g
       id="g834"
       style="">
      <path
         sodipodi:nodetypes="cssscccccsssccscccscccscscccccccccccccccssc"
         inkscape:connector-curvature="0"
         id="path827"
         d="m 191.37425,241.62154 c -0.76703,-7.67031 -11.88898,-35.66695 -12.27249,-48.32296 -0.38352,-12.65601 11.12195,-48.70647 13.42304,-51.39108 2.30109,-2.68461 31.72143,-15.61563 64.81413,-11.88898 42.57022,4.79394 54.45921,23.77796 67.11521,49.66526 7.67032,6.51976 24.545,2.49285 26.07906,4.41043 1.53405,1.91758 -29.5307,28.38015 -29.91422,30.29773 -0.38351,1.91757 13.80657,16.87468 15.34062,18.02523 1.53409,1.15054 5.84863,5.17746 6.23215,7.86207 0.38351,2.68461 -20.02226,9.48347 -20.02226,12.05974 0,2.57627 3.79662,5.01695 3.79662,8.27119 0,3.25423 -0.86011,3.73646 -0.86011,5.09239 0,1.35592 1.87903,2.88998 1.33667,5.97174 -0.54237,1.35594 -6.3576,4.06615 -6.89997,6.10003 -0.54237,2.0339 -0.56731,17.93123 -3.74609,22.02226 -4.25029,5.47005 -26.43413,0.69459 -30.46106,2.61215 -4.0269,1.9176 -10.73843,9.01264 -11.12194,11.889 -0.38352,2.87637 1.91757,15.14885 0.57528,16.2994 -1.34231,1.15056 -29.5307,-24.545 -37.77629,-28.57191 -8.24558,-4.0269 -44.4878,-19.75104 -43.52901,-22.6274 0.95879,-2.87637 8.24558,2.87636 12.08074,2.30108 3.83515,-0.57526 3.83515,-1.34231 7.47855,1.34231 3.6434,2.68459 5.94449,4.79393 9.39613,3.64339 3.45164,-1.15054 5.94449,2.49285 8.05383,3.45165 2.10933,0.9588 4.02691,-0.38351 8.43734,-0.38351 4.41043,0 3.25988,-0.9588 6.13625,0.19174 2.87637,1.15057 5.36922,1.72582 5.75273,-2.10934 0.38352,-3.83513 2.87637,-4.9857 4.60219,-0.95877 1.72582,4.02691 1.91758,7.47855 4.21867,2.30108 2.30109,-5.17744 1.15055,-7.47855 4.79394,-4.79393 3.6434,2.68459 9.5879,3.83513 7.86208,0.57526 -1.72582,-3.25988 -0.38351,-5.56096 3.64339,-1.91757 4.02691,3.64339 4.41042,8.24558 5.36922,1.15054 0.95879,-7.09504 0.57528,-7.86207 3.64339,-4.60219 3.06813,3.25988 4.41044,5.36922 4.79396,0.38351 0.38351,-4.9857 -0.9588,-7.86206 1.53405,-3.64339 2.49285,4.21868 -0.57528,4.79396 3.06814,4.21868 3.64339,-0.57529 5.17744,3.45165 2.87636,-5.75273 -2.30111,-9.20438 -2.10934,-42.95375 -3.64342,-43.14551 -1.53405,-0.19175 -0.76702,6.51977 -8.82083,15.34063 -8.05384,8.82085 -31.44829,28.57191 -51.00758,29.33893 -19.55929,0.76703 -55.60975,-14.19007 -55.60975,-16.49116 0,-2.3011 11.12195,-11.88899 13.23128,-18.21699 z"
         style="opacity:1;fill:#000000;fill-opacity:1;stroke:none;stroke-width:0.26458332px;stroke-linecap:butt;stroke-linejoin:miter;stroke-opacity:1" />
      <path
         sodipodi:nodetypes="ccccccsc"
         inkscape:connector-curvature="0"
         id="path830"
         d="m 200.67796,299.11865 c 3.79661,-2.4407 106.03392,48.54236 106.30508,98.71185 -96,23.86442 -142.37287,-15.45763 -142.91525,-18.98305 -0.54237,-3.52541 22.50848,-42.57627 26.57628,-44.74575 4.06779,-2.1695 42.94977,5.14219 74.30507,21.42371 -2.20506,-11.28893 -71.8644,-30.10167 -72.13558,-33.35592 -0.27119,-3.25424 5.42372,-3.52544 5.42372,-5.69491 0,-2.16951 0.27119,-15.18645 2.44068,-17.35593 z"
         style="fill:#000000;stroke:none;stroke-width:0.26458332px;stroke-linecap:butt;stroke-linejoin:miter;stroke-opacity:1;fill-opacity:1" />
    </g>
  </g>
</svg>
