<?xml version="1.0" encoding="UTF-8" standalone="no"?>
<svg
   xmlns:dc="http://purl.org/dc/elements/1.1/"
   xmlns:cc="http://creativecommons.org/ns#"
   xmlns:rdf="http://www.w3.org/1999/02/22-rdf-syntax-ns#"
   xmlns:svg="http://www.w3.org/2000/svg"
   xmlns="http://www.w3.org/2000/svg"
   xmlns:sodipodi="http://sodipodi.sourceforge.net/DTD/sodipodi-0.dtd"
   xmlns:inkscape="http://www.inkscape.org/namespaces/inkscape"
   id="svg885"
   version="1.1"
   viewBox="0 0 512 512"
   height="512mm"
   width="512mm"
   sodipodi:docname="purple_man.svg"
   inkscape:version="0.92.3 (2405546, 2018-03-11)">
  <sodipodi:namedview
     pagecolor="#ffffff"
     bordercolor="#666666"
     borderopacity="1"
     objecttolerance="10"
     gridtolerance="10"
     guidetolerance="10"
     inkscape:pageopacity="0"
     inkscape:pageshadow="2"
     inkscape:window-width="1920"
     inkscape:window-height="1017"
     id="namedview8"
     showgrid="false"
     inkscape:zoom="0.24391276"
     inkscape:cx="2465.1166"
     inkscape:cy="740.68142"
     inkscape:window-x="-8"
     inkscape:window-y="-8"
     inkscape:window-maximized="1"
     inkscape:current-layer="layer1" />
  <defs
     id="defs879" />
  <metadata
     id="metadata882">
    <rdf:RDF>
      <cc:Work
         rdf:about="">
        <dc:format>image/svg+xml</dc:format>
        <dc:type
           rdf:resource="http://purl.org/dc/dcmitype/StillImage" />
        <dc:title></dc:title>
      </cc:Work>
    </rdf:RDF>
  </metadata>
  <g
     inkscape:groupmode="layer"
     id="layer1"
     inkscape:label="Layer 1"
     style="opacity:1">
    <g
       id="g853">
      <path
         sodipodi:nodetypes="scssscsscccccccssccccccccccscccscccccscscccccsscsccsccsccsccccscsccscccccccc"
         inkscape:connector-curvature="0"
         id="path826"
         transform="scale(0.26458333)"
         d="m 989.0293,534.8457 c -4.34713,0.002 -8.77129,0.0615 -13.27149,0.18164 -55.34767,0 -202.94141,32.79886 -239.83984,88.14649 -36.89843,55.34767 -12.29817,92.24543 -24.59766,104.54492 -12.29949,12.29949 -36.89844,26.64889 -36.89843,36.89844 0,10.24959 -10.25002,43.04883 -10.25,43.04883 0,0 24.59853,4.09875 26.64843,20.49804 2.0499,16.3993 -80.89806,168.81852 -78.84816,187.26774 2.0499,18.4492 41.03088,21.7155 45.37941,27.5135 4.3485,5.798 -12.32108,28.2666 -18.11914,42.7617 -5.79802,14.4952 -3.62327,38.4116 7.24805,41.3106 10.87132,2.8991 14.49414,-1.4492 14.49414,-1.4492 0,0 0.7261,-41.3116 2.90039,-45.6602 2.17425,-4.3485 98.5651,86.9707 89.86805,130.456 -26.81589,-32.614 -67.40112,-81.8967 -76.09815,-71.7502 -4.34852,5.0733 4.16709,25.1849 -1.17821,45.4778 -5.3453,20.2929 -16.57922,37.1432 -15.49208,63.2344 2.17429,52.1822 39.86175,120.3093 57.25586,116.6855 17.3941,-3.6237 192.0597,-190.6107 196.4082,-184.0879 4.34854,6.5228 -110.88664,146.4009 -101.46484,153.6485 9.42179,7.2475 176.11474,-110.8878 208.00387,-125.3828 31.8892,-14.4951 132.6301,-34.0621 136.9785,-45.6583 4.3488,-11.5961 8.7576,-32.5169 -5.5917,-28.9296 -14.3494,3.5874 -11.788,23.5748 -23.0625,20.5 -11.2745,-3.0749 -26.6496,-4.1005 -24.5997,-12.8125 2.05,-8.7122 5.1257,-5.6365 13.8379,-16.3985 8.7121,-10.7621 -4.6126,-13.3261 1.5371,-22.5508 6.1498,-9.2246 17.4248,-29.2097 19.4747,-10.248 2.0499,18.9617 -2.0492,10.2494 6.1503,-2.5625 8.1998,-12.812 3.0732,-9.7379 14.3477,0.5117 11.2745,10.2495 16.9118,3.0748 18.4492,-9.2246 1.5375,-12.2995 6.6623,-27.6738 11.7871,-18.4492 5.1248,9.2246 3.5879,5.1255 12.8125,-0.5117 1.4976,-0.9152 2.3413,-1.7059 2.7813,-2.3516 0.919,1.1854 2.9283,2.9566 6.957,5.4258 15.8868,9.7371 20.4984,17.9377 21.5234,2.0508 1.0249,-15.8868 -3.0757,-21.0117 7.1739,-15.8867 10.2495,5.1247 13.8379,12.2985 13.8379,-4.6133 0,-16.9118 -2.0495,-17.4234 7.6875,-13.836 9.7371,3.5873 7.6865,-51.76093 3.0742,-61.49802 -4.6123,-9.73708 15.8869,-48.17228 2.5625,-58.42187 -13.3244,-10.24955 -14.3502,-38.94824 -17.9375,2.5625 -3.5874,41.51074 -21.0105,49.19653 -23.0606,31.25977 -2.0499,-17.93675 -11.7874,-8.19922 -10.25,-17.42383 1.5375,-9.22458 -3.0748,-33.82381 -6.6621,-23.57422 -3.5874,10.24955 -13.8375,91.22062 -12.8125,79.43359 1.025,-11.78698 -25.623,7.68715 -25.623,-9.22461 0,-16.9118 6.1484,-124.018 -3.0762,-125.04297 -9.2246,-1.02493 -13.8359,1.02508 -13.8359,-6.66211 0,-7.68718 11.7866,-16.40048 -1.0254,-18.96289 -12.8119,-2.56236 -0.5116,12.81195 -16.3985,9.22461 -15.8867,-3.58734 -28.1876,-11.27355 -21.5253,-32.28515 6.6623,-21.01161 8.2,-29.21268 16.9121,-14.86328 8.7122,14.34939 18.4506,18.96266 24.0879,13.83789 5.6372,-5.12478 10.7608,-8.20054 17.9355,7.17382 7.1747,15.37433 11.7873,35.36224 14.3496,18.96289 2.5624,-16.39929 -5.124,-51.24806 8.7129,-32.79882 13.8369,18.44919 14.8614,93.78388 17.4238,63.03515 2.5624,-30.74868 -17.425,-94.80966 -2.0508,-55.86133 15.3744,38.94839 31.2611,75.33411 25.1114,50.22266 -6.1498,-25.11145 -9.7367,-43.04677 -10.7617,-49.70898 -1.0249,-6.66225 -6.662,-36.89974 7.6875,6.14843 14.3493,43.04815 56.3729,88.14672 35.3613,47.14844 -21.0116,-40.99827 -29.7239,-47.66027 -32.7988,-68.67187 -3.0269,-20.6833 24.2384,-251.91994 -249.6309,-251.8086 z M 739.61133,805.95117 c 11.05902,0.043 21.06573,19.16697 25.51172,48.75586 9.74984,-0.2536 23.13425,-0.5116 38.46679,-0.55273 40.39859,-0.10839 93.89424,1.29149 127.38672,8.25586 15.88018,3.30206 61.89189,17.5198 45.35547,17.62695 -80.17673,0.5197 -171.3186,3.56907 -208.84765,4.93359 0.0142,0.83805 0.024,1.6767 0.0293,2.51563 7e-5,45.02979 -12.49215,81.53405 -27.90234,81.53515 -15.4102,-10e-4 -27.90242,-36.50535 -27.90235,-81.53515 -7e-5,-45.0298 12.49215,-81.53408 27.90235,-81.53516 z"
         style="opacity:1;fill:#000000;fill-opacity:1;stroke:#000000;stroke-width:1px;stroke-linecap:butt;stroke-linejoin:miter;stroke-opacity:1" />
      <path
         sodipodi:nodetypes="cccscccscscccc"
         inkscape:connector-curvature="0"
         id="path843"
         d="m 214.00167,359.36081 c -2.87636,0.28763 -6.61564,2.20522 -4.41043,4.69807 2.20522,2.49285 4.88983,2.97225 4.60219,5.08156 -0.28764,2.10934 -1.8217,-0.28762 -3.45164,3.83517 -1.62994,4.12279 -1.43819,18.21698 0.57527,20.4222 2.01346,2.20523 -5.17746,5.08159 -6.23213,8.91673 -1.05466,3.83516 0.19176,3.64342 0.38352,4.88984 0.19176,1.24643 9.20437,2.78048 10.73844,-0.67117 1.53406,-3.45162 0.57527,-13.61479 2.01345,-14.19008 1.43819,-0.57525 0.76703,-9.87552 3.45164,-7.38267 2.68461,2.49285 3.54752,6.9033 4.60219,7.38267 1.05467,0.4794 37.39276,-42.28258 36.24222,-43.1455 -1.15055,-0.86288 -34.5164,32.88647 -36.24222,32.69473 -1.72582,-0.19177 -1.72582,-11.40961 -12.2725,-22.53155 z"
         style="fill:#000000;stroke:none;stroke-width:0.26458332px;stroke-linecap:butt;stroke-linejoin:miter;stroke-opacity:1;fill-opacity:1" />
      <path
         inkscape:connector-curvature="0"
         id="path845"
         d="m 262.8999,363.38771 c 0,-6.32798 47.55594,-43.33724 48.51471,-45.83009 0.95879,-2.49285 -1.15054,-10.54669 0.57528,-11.12194 1.72582,-0.57529 19.17578,15.91587 17.83347,18.79224 -1.34231,2.87636 -7.47855,3.83516 -7.28678,5.36922 0.19174,1.53408 18.98401,11.88899 20.70983,13.80656 1.72583,1.91757 18.79225,18.79227 17.64171,19.75104 -1.15054,0.9588 -15.34062,-7.47855 -16.10765,-6.51975 -0.76703,0.95879 10.16317,21.09335 9.39612,22.62743 -0.76703,1.53405 -33.17409,23.20268 -37.58451,23.5862 -4.41042,0.38351 -15.53239,-1.72583 -18.6005,0 -3.06814,1.72582 -4.41045,6.90327 -7.67032,8.05381 -3.25988,1.15057 -22.43567,6.32801 -23.39444,3.83516 -0.95879,-2.49285 14.76534,-14.76534 13.99831,-16.68293 -0.76702,-1.91757 -7.47855,-8.05381 -6.51975,-9.39612 0.95877,-1.34231 12.08074,0.38351 14.9571,-2.30108 2.87637,-2.68462 26.2708,-49.28177 24.92852,-50.62406 -1.34231,-1.34231 -32.98235,46.40538 -35.66697,46.59712 -2.6846,0.19177 -6.13625,0.9588 -7.47856,-0.95877 -1.34228,-1.91759 -7.86205,-17.83347 -8.24557,-18.98404 z"
         style="fill:#000000;stroke:none;stroke-width:0.26458332px;stroke-linecap:butt;stroke-linejoin:miter;stroke-opacity:1;fill-opacity:1" />
      <path
         inkscape:connector-curvature="0"
         id="path847"
         d="m 256.76365,366.64759 c 2.10934,-0.38351 13.42305,26.4626 12.46426,29.14719 -0.9588,2.68462 -16.49117,18.98401 -19.55929,19.5593 -3.06813,0.57528 -26.07906,1.72582 -26.84609,-1.15054 -0.76703,-2.87637 27.03784,-41.61145 33.94112,-47.55595 z"
         style="fill:#000000;stroke:none;stroke-width:0.26458332px;stroke-linecap:butt;stroke-linejoin:miter;stroke-opacity:1;fill-opacity:1" />
    </g>
  </g>
</svg>
