<?xml version="1.0" encoding="UTF-8" standalone="no"?>
<svg
   xmlns:dc="http://purl.org/dc/elements/1.1/"
   xmlns:cc="http://creativecommons.org/ns#"
   xmlns:rdf="http://www.w3.org/1999/02/22-rdf-syntax-ns#"
   xmlns:svg="http://www.w3.org/2000/svg"
   xmlns="http://www.w3.org/2000/svg"
   width="512mm"
   height="512mm"
   viewBox="0 0 512 512"
   version="1.1"
   id="svg885">
  <defs
     id="defs879" />
  <metadata
     id="metadata882">
    <rdf:RDF>
      <cc:Work
         rdf:about="">
        <dc:format>image/svg+xml</dc:format>
        <dc:type
           rdf:resource="http://purl.org/dc/dcmitype/StillImage" />
        <dc:title></dc:title>
      </cc:Work>
    </rdf:RDF>
  </metadata>
  <g
     style="opacity:1"
     id="layer1" />
  <g
     id="g864">
    <g
       id="g873">
      <path
         transform="scale(0.26458333)"
         id="path831"
         d="m 857.6875,460.79883 c -5.52839,0.005 -11.2651,0.14337 -17.22266,0.43164 -127.09463,6.14971 -161.94271,131.194 -155.79296,137.34375 58.42288,-40.99715 169.11672,-27.6742 168.09179,-19.47461 -173.21768,32.79859 -209.09159,110.6953 -222.41601,129.14453 -13.32443,18.4492 -2.04883,98.39712 -2.04883,113.77148 0,15.37437 -26.64887,68.67098 -18.44922,85.07032 8.19965,16.39929 30.74739,14.34941 33.82227,18.44922 3.07487,4.09984 12.55932,16.41911 9.94921,28.86328 -26.43224,126.02046 -36.9186,155.23476 -15.39453,156.25976 16.45081,24.9419 56.69419,-10.88 67.96875,-8.8301 11.27452,2.0499 0.70331,13.075 5.82813,24.3496 5.12492,11.2746 -15.37359,14.051 -0.0508,28.9493 10.24958,11.2744 64.03483,-41.9394 71.26953,-38.7227 -4.93886,32.1571 -63.72201,69.4711 -57.57227,79.7207 6.14975,10.2495 32.79706,22.5491 37.92188,27.6738 5.12477,5.1248 -15.37414,66.6226 5.125,84.0469 20.49913,17.4242 110.69507,-66.6234 124.01953,-67.6484 13.32442,-1.0249 21.52516,22.5502 25.625,25.625 4.09984,3.0749 238.81487,-197.8173 239.83987,-209.0918 1.0249,-11.2745 -66.6232,-107.62043 -90.1973,-156.81839 17.4242,16.9118 37.049,50.28879 60.9863,80.45898 5.8057,7.31736 7.6863,-33.31076 4.6114,-47.66015 115.7848,-133.209 110.6955,-311.58682 106.5957,-313.63672 -4.0998,-2.0499 -49.1973,75.84613 -58.4219,67.64648 69.0488,-92.27108 22.5493,-176.8051 16.9121,-177.83008 -4.0239,-0.73159 -39.8009,17.81211 -57.5859,28.14063 12.375,-11.04802 30.9213,-32.28288 29.3984,-36.85156 -2.0499,-6.14975 -86.0952,8.19898 -131.1934,12.29883 -42.98407,3.90762 -69.20841,-51.77558 -181.6191,-51.67969 z m 134.42019,529.4018 c 18.11891,0.72473 26.18731,12.71977 28.74971,22.96927 2.5624,10.2496 28.1848,81.4841 -72.77342,156.8184 -29.72372,13.3244 40.48577,-62.5234 37.9234,-93.7846 -2.5624,-31.2612 -20.75383,-41.5092 -21.26633,-52.7837 -0.51247,-11.2745 6.56083,-33.21937 27.36664,-33.21937 z"
         style="opacity:1;fill:#000000;fill-opacity:1;stroke:none;stroke-width:1px;stroke-linecap:butt;stroke-linejoin:miter;stroke-opacity:1" />
      <path
         id="path841"
         d="m 247.00432,339.13111 c 0,0 27.30477,-20.99936 34.3556,-27.23664 7.05085,-6.23729 30.09771,-31.2165 34.97906,-31.4877 8.54237,13.15256 11.7966,11.11866 12.61017,16.00001 0.81357,4.88135 -65.89831,71.5932 -67.52542,71.05083 -1.62712,-0.54236 -0.81356,-13.28811 -3.25424,-18.44066 -2.44068,-5.15255 -11.70755,-7.98754 -11.16517,-9.88584 z"
         style="opacity:1;fill:#000000;fill-opacity:1;stroke:none;stroke-width:0.26458332px;stroke-linecap:butt;stroke-linejoin:miter;stroke-opacity:1" />
      <path
         id="path839"
         d="m 237.64803,343.35303 c -2.29627,1.26586 -4.41043,2.39697 -5.27333,3.54752 0.67115,1.62994 4.31454,3.73928 6.90327,2.49285 2.58873,-1.24642 3.6326,-4.40063 3.19691,-8.09455 -4.77468,1.56033 -4.82685,2.05418 -4.82685,2.05418 z"
         style="opacity:1;fill:#000000;fill-opacity:1;stroke:none;stroke-width:0.26458332px;stroke-linecap:butt;stroke-linejoin:miter;stroke-opacity:1" />
      <path
         id="path845"
         d="m 250.16949,345.15253 c 2.91525,1.49153 4.13559,28.61019 2.23729,29.83052 -1.89831,1.22034 -5.83051,-5.55932 -10.44068,-4.54239 -4.61017,1.01695 -7.86441,11.66103 -9.28814,11.38984 -1.42372,-0.27118 -0.40678,-13.49153 -1.42372,-16.13559 -1.01695,-2.64406 -6.1695,-12.27119 -4.33899,-13.96611 1.83051,-1.6949 7.93221,3.93221 11.66102,3.11864 3.72881,-0.81354 9.35593,-9.4915 11.59322,-9.69491 z"
         style="opacity:1;fill:#000000;stroke:none;stroke-width:0.26458332px;stroke-linecap:butt;stroke-linejoin:miter;stroke-opacity:1;fill-opacity:1" />
      <path
         id="path847"
         d="m 237.01695,402.98303 c 2.71186,1.62714 36.06779,2.16951 40.94914,0.81357 4.88137,-1.35594 0.81356,-21.55931 4.47458,-23.59321 3.66101,-2.03391 1.35593,19.11863 4.06781,17.76269 2.71184,-1.35591 6.23728,-33.89828 19.661,-45.55931 13.42374,-11.66101 47.45762,-2.03388 52.2034,3.11864 4.74575,5.15255 13.96611,-10.71187 14.23728,-13.42372 0.2712,-2.71187 -29.6949,-15.45761 -37.42372,-16.13558 -7.72882,-0.67797 14.37288,-0.4068 16.27119,-2.57628 1.8983,-2.1695 -20.339,-18.98306 -22.64408,-17.62712 -2.30507,1.35594 -15.32202,26.57626 -29.9661,38.23729 -14.64408,11.66101 -35.11864,30.23727 -36.74576,33.22034 -1.62712,2.98305 -4.74576,11.79661 -7.05084,11.93221 -2.30509,0.13557 -9.89831,-13.55934 -11.79661,-13.15254 -1.89831,0.40677 -7.05085,24.94914 -6.23729,26.98302 z"
         style="opacity:1;fill:#000000;stroke:none;stroke-width:0.26458332px;stroke-linecap:butt;stroke-linejoin:miter;stroke-opacity:1;fill-opacity:1" />
      <path
         id="path849"
         d="m 295.78636,396.84946 c 0,0 13.42305,-43.1455 23.77797,-43.43315 10.35492,-0.28763 10.16315,1.53408 9.58789,2.30111 -0.57528,0.76702 -15.72413,10.06729 -14.19008,12.36837 1.53405,2.30108 10.64255,-7.76618 24.35323,-7.76618 13.71068,0 13.90245,3.5475 13.80656,4.9857 -0.0959,1.43817 -40.94027,33.46172 -57.33557,31.54415 z"
         style="opacity:1;fill:#000000;stroke:none;stroke-width:0.26458332px;stroke-linecap:butt;stroke-linejoin:miter;stroke-opacity:1;fill-opacity:1" />
      <path
         id="path837"
         d="M 232.41042,339.80151 Z"
         style="fill:none;stroke:#000000;stroke-width:0.26458332px;stroke-linecap:butt;stroke-linejoin:miter;stroke-opacity:1" />
    </g>
  </g>
</svg>
