<?xml version="1.0" encoding="UTF-8" standalone="no"?>
<svg
   xmlns:dc="http://purl.org/dc/elements/1.1/"
   xmlns:cc="http://creativecommons.org/ns#"
   xmlns:rdf="http://www.w3.org/1999/02/22-rdf-syntax-ns#"
   xmlns:svg="http://www.w3.org/2000/svg"
   xmlns="http://www.w3.org/2000/svg"
   id="svg885"
   version="1.1"
   viewBox="0 0 512 512"
   height="512mm"
   width="512mm">
  <defs
     id="defs879" />
  <metadata
     id="metadata882">
    <rdf:RDF>
      <cc:Work
         rdf:about="">
        <dc:format>image/svg+xml</dc:format>
        <dc:type
           rdf:resource="http://purl.org/dc/dcmitype/StillImage" />
        <dc:title></dc:title>
      </cc:Work>
    </rdf:RDF>
  </metadata>
  <g
     style="opacity:1"
     id="layer1">
    <g
       id="g847">
      <path
         style="fill:#000000;fill-opacity:1;stroke:none;stroke-width:1px;stroke-linecap:butt;stroke-linejoin:miter;stroke-opacity:1"
         d="M 930.58398 453.7207 C 827.66892 453.7207 776.93634 495.75671 743.59766 530.54492 C 710.25897 565.33309 734.90077 618.96504 723.30469 627.66211 C 711.70864 636.35914 705.91061 618.96592 684.16797 623.31445 C 662.42537 627.66299 621.83793 688.54255 611.69141 710.28516 C 601.54485 732.0278 666.77255 745.07223 631.98438 755.21875 C 597.19616 765.36535 465.29102 732.02734 465.29102 732.02734 C 443.54838 1010.3328 623.2887 1001.6348 674.02148 1001.6348 C 724.75425 1001.6348 774.03759 994.38851 830.56836 975.54492 C 887.09917 956.70129 1024.8014 849.43627 1061.0391 826.24414 C 1097.2768 803.05201 1398.7748 675.49697 1391.5273 671.14844 C 1384.2797 666.79994 1266.8698 695.78856 1204.541 688.54102 C 1142.2122 681.29347 1168.3022 687.0921 1161.0547 685.64258 C 1153.8071 684.19305 1174.1019 678.3943 1162.5059 669.69727 C 1150.9098 661.00023 1156.7068 669.69872 1148.0098 662.45117 C 1139.3127 655.20363 1152.3583 653.75314 1148.0098 647.95508 C 1143.6613 642.15706 1143.662 645.05695 1134.9648 643.60742 C 1126.2678 642.1579 1134.9637 611.71831 1130.6152 555.1875 C 1126.2667 498.65669 1033.499 453.7207 930.58398 453.7207 z M 811.83203 625.84766 C 819.05426 625.81669 826.12924 627.16312 830.56836 631.28516 C 840.71492 640.70695 867.52952 650.85463 856.6582 655.20312 C 845.78692 659.55167 833.46714 647.95585 821.87109 653.75391 C 810.27505 659.55193 826.21924 669.69849 813.89844 673.32227 C 801.57759 676.94604 794.3308 671.87133 790.70703 680.56836 C 787.08326 689.26543 782.00995 684.9182 771.13867 693.61523 C 760.26735 702.31231 758.09203 787.10865 766.78906 790.73242 C 775.4861 794.3562 785.63281 792.90552 785.63281 796.5293 C 785.63281 800.15307 776.9362 805.9524 783.45898 809.57617 C 789.98177 813.19995 809.5494 818.27214 806.65039 824.79492 C 806.65039 824.79492 767.51359 833.49238 758.0918 822.62109 C 748.67 811.74977 730.55216 785.65885 733.45117 772.61328 C 736.35018 759.56771 753.74456 743.62224 751.57031 737.82422 C 749.39603 732.0262 729.10264 711.7346 733.45117 700.86328 C 737.79971 689.992 748.67057 676.94589 755.19336 674.04688 C 761.71614 671.14782 771.86313 676.22036 772.58789 668.24805 C 773.31265 660.27578 773.31315 656.65338 779.83594 651.58008 C 786.35872 646.50682 780.55898 632.73495 788.53125 629.83594 C 793.01567 628.20524 802.5463 625.88746 811.83203 625.84766 z M 882.02539 686.36719 C 887.09869 686.36719 887.09873 692.16514 891.44727 696.51367 C 895.79576 700.86217 908.11719 695.78945 908.11719 703.76172 C 908.11719 711.73403 894.34601 714.63289 892.89648 724.05469 C 891.447 733.47648 912.46584 745.79665 907.39258 756.66797 C 902.31928 767.53929 890.72266 761.01766 890.72266 770.43945 C 890.72266 779.86125 893.62059 784.93344 886.37305 785.6582 C 879.1255 786.38297 868.97993 792.90537 861.73242 797.25391 C 854.48488 801.6024 813.1744 794.35512 810.27539 786.38281 C 807.37634 778.4105 793.6052 771.16429 795.05469 760.29297 C 796.50421 749.42165 799.4033 738.54875 804.47656 748.69531 C 809.54986 758.84183 810.99912 755.21844 815.34766 756.66797 C 819.69619 758.11749 818.2469 743.6232 824.04492 742.89844 C 829.84298 742.17368 838.54102 737.82567 838.54102 730.57812 C 838.54102 723.33058 837.0905 714.63281 843.61328 714.63281 C 850.13607 714.63281 844.3387 708.11025 850.13672 703.76172 C 855.93478 699.41322 863.9064 707.38542 863.18164 713.9082 C 862.45692 720.43099 879.85091 703.76107 873.32812 716.80664 C 866.80534 729.85221 863.90575 739.27371 856.6582 737.82422 C 849.41066 736.37469 844.3387 745.07292 850.13672 751.5957 C 855.93478 758.11849 866.80576 751.5952 871.1543 744.34766 C 875.50283 737.10011 881.30093 739.99854 880.57617 727.67773 C 879.85141 715.35693 878.4007 710.28339 876.95117 699.41211 C 875.50169 688.54079 882.02539 686.36719 882.02539 686.36719 z "
         transform="scale(0.26458333)"
         id="path831" />
      <path
         style="fill:#000000;fill-opacity:1;stroke:none;stroke-width:0.26458332px;stroke-linecap:butt;stroke-linejoin:miter;stroke-opacity:1"
         d="m 167.32203,269.83049 c 0,0 18.71187,2.44071 30.64407,2.16951 11.9322,-0.2712 47.18644,-11.38983 87.05084,-41.76272 39.8644,-30.37288 93.55934,-51.25423 97.89832,-48.54237 4.33898,2.71187 15.78097,21.22399 -82.19209,68.01329 0.73426,2.15768 1.06082,0.88452 1.87436,3.86757 0.81357,2.98305 -0.86008,3.5884 -0.58891,4.67314 0.2712,1.08475 1.1106,0.19176 1.27229,4.26379 0.0776,1.95401 -1.88206,2.90616 -3.89109,3.25001 -1.24909,0.21378 -3.25424,8.40677 -3.25424,10.57627 0,2.1695 4.88138,8.13559 3.25424,9.7627 -1.62711,1.62714 -12.20337,2.71187 -24.67795,2.1695 -12.47458,-0.54236 -28.47458,25.22035 -30.64407,29.8305 -2.1695,4.61018 6.23728,-4.88135 8.94915,-5.15254 2.71186,-0.27118 2.16949,4.61018 4.88135,5.15254 2.71187,0.54237 11.38982,1.35594 12.20339,3.25425 0.81357,1.8983 -2.1695,12.20337 -0.2712,14.64408 1.89831,2.44067 -3.52541,4.33898 -3.52541,7.86439 0,3.52542 15.99999,4.61018 15.18645,9.22033 -0.81357,4.61018 -8.40679,15.45765 -8.40679,15.45765 0,0 10.0339,2.16947 11.11864,5.15252 1.08475,2.98306 15.45763,21.96611 15.45763,25.22034 0,3.25424 -27.11864,2.16949 -27.11864,2.16949 0,0 -19.65415,-43.16064 -39.05085,-39.59321 -3.96295,0.72886 30.44666,29.52876 31.72881,42.57627 -57.79607,11.97398 -125.40046,-46.15951 -127.18644,-50.1695 -2.16949,-9.76271 25.22034,-29.8305 33.62712,-29.01694 8.40678,0.81356 34.59676,21.84028 43.55434,18.09006 2.60002,-1.08854 -18.60519,-10.76803 -18.60519,-14.29345 0,-3.52543 -0.81355,-8.40678 -4.33898,-7.86441 -3.52542,0.54237 -9.22034,2.44068 -10.0339,1.08475 -0.81356,-1.35594 1.62712,-3.25424 -3.52542,-4.61017 -5.15254,-1.35594 -8.40678,3.25423 -11.11864,2.16949 -2.71187,-1.08475 -18.1695,-10.0339 -17.89831,-16.27119 0.27119,-6.23729 31.72881,-17.62712 33.08475,-21.42373 1.35593,-3.79661 -15.45763,-11.93221 -15.45763,-11.93221 z"
         id="path835" />
    </g>
  </g>
</svg>
