<?xml version="1.0" encoding="UTF-8" standalone="no"?>
<svg
   xmlns:dc="http://purl.org/dc/elements/1.1/"
   xmlns:cc="http://creativecommons.org/ns#"
   xmlns:rdf="http://www.w3.org/1999/02/22-rdf-syntax-ns#"
   xmlns:svg="http://www.w3.org/2000/svg"
   xmlns="http://www.w3.org/2000/svg"
   id="svg885"
   version="1.1"
   viewBox="0 0 512 512"
   height="512mm"
   width="512mm">
  <defs
     id="defs879" />
  <metadata
     id="metadata882">
    <rdf:RDF>
      <cc:Work
         rdf:about="">
        <dc:format>image/svg+xml</dc:format>
        <dc:type
           rdf:resource="http://purl.org/dc/dcmitype/StillImage" />
        <dc:title></dc:title>
      </cc:Work>
    </rdf:RDF>
  </metadata>
  <g
     transform="translate(0,215)"
     id="layer1">
    <g
       id="g1479" />
    <path
       d="m 297.47099,-36.552358 h 26.41102 c 0,0 0.81802,-22.475199 9.2331,-22.475199 6.1472,0 7.75081,21.940659 7.75081,21.940659 0,0 6.42512,2.707903 6.42512,-19.742738 0,-22.45064 -4.784,-23.252449 -8.6851,-19.966931 -2.67272,3.474503 -41.13495,40.244209 -41.13495,40.244209 z m -22.4485,-111.256392 c -26.10159,-0.0366 -53.38648,1.49004 -66.37941,4.08864 -18.8988,3.77975 -62.74405,46.869042 -63.5,52.916663 -0.75596,6.047618 4.53556,23.434227 -1.51206,34.017561 -6.04761,10.583333 -31.75022,38.553865 -28.72641,50.6491044 3.02381,12.0952364 26.47163,10.4212309 18.14308,25.7023076 -21.73363,39.876496 15.87485,34.017801 9.07128,41.577317 -6.80358,7.559517 -12.85103,18.142691 -3.77961,14.362933 9.07143,-3.779758 18.89859,1.59e-4 18.89859,6.803734 0,6.803575 19.65491,13.607362 33.26205,2.268061 13.60714,-11.339274 -3.02359,14.362959 -3.02359,14.362959 0,0 -12.0956,-2.267929 -14.36346,4.53565 -2.26786,6.80357 -6.04755,46.11301 -25.70231,68.03562 -19.65476,21.92263 23.43438,-10.58334 56.69628,-10.58334 33.26191,0 52.16116,16.63105 52.16116,16.63105 0,0 -99.02999,-14.36312 -129.26808,37.04166 -30.238095,51.40476 181.20257,42.85236 204.10691,31.75 11.64727,-5.64575 -8.81839,-14.1652 -16.12638,-42.21659 -2.34647,-9.00683 -8.65275,-58.56912 -8.77549,-64.68542 7.0926,13.37691 16.58659,53.98535 16.58659,53.98535 0,0 21.92282,48.38078 28.72642,46.11293 6.80355,-2.26785 15.875,-7.55922 15.875,-7.55922 0,0 -20.67738,-31.59192 -27.21435,-49.13704 -5.1246,-13.75435 -3.02418,-31.75008 -9.07179,-43.08938 -12.09993,-13.61219 -26.98369,-20.79535 -37.79716,-22.67821 -5.29167,0 0,30.23796 0,30.23796 0,0 -63.09102,-11.18179 -86.3502,-31.79207 -8.65086,-7.66564 76.35091,17.38704 76.35091,17.38704 0,0 -0.89739,-36.194124 11.95379,-36.950065 12.85119,-0.755968 45.6705,2.974075 45.6705,2.974075 0,0 11.33898,-4.535699 7.55923,-15.875 -3.77979,-11.339274 -5.885,-24.299015 -3.77963,-24.190272 6.10298,0.364517 7.24654,-5.824537 5.73466,-7.714403 -3.77976,-2.267863 -6.13278,-5.572442 -2.4475,-7.651311 3.40849,-2.282102 3.42161,-4.761949 1.43724,-7.1243 -3.53976,-4.213989 -2.92883,-6.141966 -1.70042,-12.189587 0,0 1.60607,-4.724627 6.04731,-4.630131 0.75594,-2.26786 15.87498,-3.496575 14.36309,-9.544196 -4.44121,-11.5282711 -10.38942,-24.855045 -21.82828,-39.781918 -3.34193,0 -2.0107,0.328752 -4.85256,0.328752 0,13.604343 -3.34167,28.7754139 -9.41581,28.7754139 -6.66832,0 -8.5044,-25.8913709 -8.5044,-29.6711309 -3.77973,0 -32.50602,0.756025 -32.50602,0.756025 0,0 -28.72641,19.654983 -28.72641,49.893079 0,30.238091 15.1195,34.017559 15.1195,34.017559 0,0 -27.21465,6.803495 -30.23847,-43.089356 -3.0238,-49.892855 -7.55924,18.143151 -12.8509,18.899105 -5.29167,0.755949 -5.29181,-21.1668147 -12.09538,-17.387054 -6.80358,3.779761 -19.65498,21.166741 -23.43475,16.631026 -3.77976,-4.535713 -9.07105,-24.1903278 -1.51153,-24.9462794 7.55952,-0.7559516 4.53579,9.0712794 11.33936,3.7796126 6.80357,-5.2916666 15.11882,-25.7025272 18.89858,-22.6787182 3.77976,3.023809 3.77976,16.6309518 10.58334,10.5833336 6.80357,-6.0476209 4.53579,-18.1429316 11.33936,-16.6310256 6.80357,1.511906 4.53586,17.3871254 6.80372,12.8514104 2.26785,-4.5357124 59.7198,-75.5954554 64.25549,-76.3514094 4.5357,-0.755952 3.02387,12.851191 6.04772,10.583333 3.02382,-2.267855 11.33935,-23.43437 11.33935,-35.529618 0,0 2.26806,-35.52984 -29.48194,-37.79769 -9.92187,-0.70871 -21.54187,-1.04792 -33.40621,-1.06453 z m 27.39316,18.9146 c 6.01356,0 6.81509,7.21662 6.81509,7.21662 7.48355,-6.94901 5.47893,-7.21662 10.2898,-7.21662 4.81084,0 6.1472,26.99422 0,26.99422 -6.1472,0 -4.1424,-10.82414 -10.82413,-10.82414 -6.68174,0 -7.24289,16.149571 -15.50191,13.363522 -4.47432,-1.509342 -10.39059,13.368681 -14.56603,10.957988 -4.17544,-2.410695 -5.59644,-13.07264 -11.49233,-11.492838 -5.89591,1.5798 -20.4812,18.011568 -27.95702,12.297661 -7.25642,-5.54622 -17.85006,-4.608539 -15.46978,-9.561396 3.04443,-6.334817 12.28688,-9.754157 17.38292,-4.658117 5.09604,5.096037 2.65762,6.198077 4.92941,6.198074 2.27179,0 14.69959,-20.846784 20.84679,-20.846784 6.14719,0 10.9584,13.22968 13.2302,13.22968 2.27179,0 16.30343,-25.65787 22.31699,-25.65787 z"
       style="opacity:1;fill:#000000;fill-opacity:1;stroke:none;stroke-width:0.26458332px;stroke-linecap:butt;stroke-linejoin:miter;stroke-opacity:1"
       id="path1443" />
  </g>
</svg>
