<?xml version="1.0" encoding="UTF-8" standalone="no"?>
<svg
   xmlns:dc="http://purl.org/dc/elements/1.1/"
   xmlns:cc="http://creativecommons.org/ns#"
   xmlns:rdf="http://www.w3.org/1999/02/22-rdf-syntax-ns#"
   xmlns:svg="http://www.w3.org/2000/svg"
   xmlns="http://www.w3.org/2000/svg"
   width="512mm"
   height="512mm"
   viewBox="0 0 512 512"
   version="1.1"
   id="svg885">
  <defs
     id="defs879" />
  <metadata
     id="metadata882">
    <rdf:RDF>
      <cc:Work
         rdf:about="">
        <dc:format>image/svg+xml</dc:format>
        <dc:type
           rdf:resource="http://purl.org/dc/dcmitype/StillImage" />
        <dc:title></dc:title>
      </cc:Work>
    </rdf:RDF>
  </metadata>
  <g
     style="opacity:1"
     id="layer1">
    <g
       style=""
       id="g869">
      <path
         style="fill:#000000;fill-opacity:1;stroke:#000000;stroke-width:1px;stroke-linecap:butt;stroke-linejoin:miter;stroke-opacity:1"
         d="m 855.79688,435.11719 c -14.2302,-0.36063 -63.39399,17.57646 -77.85547,60.96093 -21.52411,64.57233 -1.02344,-28.69726 -1.02344,-28.69726 0,0 -31.77518,32.79731 -17.42578,61.49609 14.34939,28.69879 13.32422,43.04883 13.32422,43.04883 0,0 -76.87004,-40.99827 -60.47071,-92.24609 16.3993,-51.24783 -49.19834,54.32183 45.09766,108.64453 0,0 -77.89736,58.42337 -89.17188,94.29687 -11.27452,35.87347 -1.02388,58.42316 -11.27343,79.94727 -10.24959,21.52407 -54.32334,53.29643 -52.27344,79.94531 2.0499,26.64888 30.74805,32.79839 30.74805,50.22266 0,17.42426 -84.04516,114.79637 -79.94532,127.09567 4.09985,12.2996 12.2984,30.7481 20.49805,30.7481 8.19965,0 53.29883,-10e-5 53.29883,9.2246 0,9.2246 -10.25108,38.9487 -8.20117,47.1484 2.0499,8.1996 14.35068,13.3245 12.30078,18.4492 -2.04994,5.1249 -6.14951,21.5242 -4.09961,27.6739 2.0499,6.1497 34.8472,18.45 33.82226,38.9492 -1.02497,20.4991 -33.82292,39.972 -30.74804,61.4961 3.07487,21.524 24.59854,52.2724 100.44531,45.0976 75.84681,-7.1746 90.19727,48.1739 90.19727,48.1739 0,0 -16.39995,31.7745 3.07421,48.1738 19.47417,16.3993 64.57227,58.4219 64.57227,58.4219 0,0 195.7656,-116.8462 288.0117,-247.0157 -19.4741,-38.9482 -42.7676,-91.457 -42.7676,-91.457 0,0 42.2555,21.7602 88.3786,-7.451 -9.9933,-18.9617 -10.2616,-72.8893 -49.9045,-150.79666 57.728,52.26226 83.7684,132.30516 85.3941,111.72096 4.9183,-62.276 -65.7249,-111.59145 -72.8996,-131.5781 -14.3494,-39.97331 86.0963,91.2201 114.7951,118.8939 -49.677,-84.9479 -73.798,-113.76953 -127.0957,-187.56643 -68.6721,-125.04469 126.0699,72.77106 153.7442,117.86914 27.6737,45.09809 -113.7705,-192.69226 -134.2696,-222.41601 -20.4992,-29.72372 118.3826,79.94661 147.5938,138.36914 -14.8619,-43.56062 -105.057,-235.73873 -248.0384,-281.86176 98.9497,45.8539 131.3114,57.17479 176.8001,103.33637 -15.6615,-21.8119 -41.0553,-60.28877 -5.6328,-27.49024 55.3476,51.24783 70.7207,61.49805 70.7207,61.49805 0,0 -81.9959,-85.07205 -49.1973,-70.72266 32.7986,14.3494 59.4473,15.375 59.4473,15.375 0,0 -224.4655,-140.42033 -147.5938,-113.77148 76.8717,26.64888 21.5241,-21.52258 -55.3476,-37.92188 -76.8717,-16.39933 22.5491,-12.29943 -9.2246,-18.44922 -31.7736,-6.14974 -38.9473,-11.27539 -38.9473,-11.27539 0,0 29.7227,-36.89755 48.1719,-34.84765 18.4492,2.0499 -198.84071,-31.77437 -283.91214,21.52344 -84.07818,52.67548 31.00005,-54.76325 37.65821,-59.25977 -4.71005,2.73858 -55.51165,30.82783 -72.50782,45.93555 -18.44923,16.39933 -34.84809,-21.52407 19.47461,-46.12305 17.82464,-8.07153 19.20743,-12.61294 12.25782,-12.78906 z m 40.77539,12.97656 c 0.40266,-0.23413 0.58852,-0.34895 0.26562,-0.1875 -0.0479,0.0239 -0.18697,0.13438 -0.26562,0.1875 z m 88.52148,49.85742 c 17.97995,-0.18518 22.24565,4.549 3.73242,8.63281 -34.84853,7.68715 -83.53287,33.31258 -48.17187,25.36914 35.36103,-7.94343 95.5769,20.49822 76.6152,15.11719 -18.96171,-5.38102 -91.4767,1.79443 -122.99411,8.71289 -31.51744,6.91843 -2.04989,-9.993 -9.22461,-10.76172 -7.17471,-0.76871 -30.23772,52.272 -35.875,63.80274 -60.21619,-8.4559 -55.60375,-108.13332 -51.5039,-82.76563 4.0998,25.36766 42.27929,49.71094 42.27929,49.71094 0,0 5.63833,-37.15457 71.74805,-62.00976 30.98891,-11.65088 57.52988,-15.64521 73.39453,-15.8086 z M 1092.1973,559 c 6.2608,0.009 8.3501,0.94617 1.4316,2.67578 -18.4492,4.61231 -26.6481,31.26191 -37.4101,36.38672 -10.7621,5.12477 -52.7854,-2.05047 -101.47075,14.86133 0,0 0.51215,-17.42373 29.21093,-24.08594 28.69872,-6.66221 46.63562,-12.29882 64.57222,-21.52344 11.2107,-5.76538 33.2313,-8.32947 43.6661,-8.31445 z m -21.7364,199.48047 c 0,0 38.4124,8.33367 51.8203,44.20898 13.4082,35.87532 6.8855,42.39837 32.9766,72.11328 26.0912,29.71492 -43.8474,-20.29272 -60.1543,-46.02148 -16.307,-25.72876 -2.1752,-43.48488 -24.6426,-70.30078 z m -25.7011,90.73828 c 30.121,57.67036 88.4492,133.05078 88.4492,133.05078 0,10e-6 -0.082,-128.53263 5.3789,-82.82422 10.8395,90.71971 44.2103,122.48289 47.834,139.15239 3.6237,16.6693 -26.0915,60.88 -27.541,26.0918 -1.4495,-34.7883 -38.3372,-79.72394 -61.5293,-102.91606 -23.1921,-23.19213 -57.3301,-112.33594 -57.3301,-112.33594 1.608,-0.18119 3.188,-0.25235 4.7383,-0.21875 z m 5.7294,119.87608 c 18.1188,8.69703 64.9227,52.56337 75.794,72.13177 10.8713,19.5683 21.9479,69.5896 21.9479,69.5896 z"
         id="path826"
         transform="scale(0.26458333)" />
      <path
         style="fill:#000000;fill-opacity:1;stroke:none;stroke-width:0.26458332px;stroke-linecap:butt;stroke-linejoin:miter;stroke-opacity:1"
         d="m 327.55865,243.37455 c 7.45763,5.15254 15.05085,13.83051 17.08476,17.49152 2.0339,3.66101 -0.81357,15.86442 -0.81357,15.86442 0,0 1.89831,-9.49153 -4.06778,-16.94916 -5.96612,-7.45763 -12.20341,-16.40678 -12.20341,-16.40678 z"
         id="path849" />
      <path
         style="fill:#000000;stroke:none;stroke-width:0.26458332px;stroke-linecap:butt;stroke-linejoin:miter;stroke-opacity:1;fill-opacity:1"
         d="m 219.38983,406.77965 c 2.44068,-5.42372 87.32202,-69.15254 91.11863,-70.23727 3.79661,-1.08477 3.25424,5.96609 6.50849,-0.81357 3.25424,-6.77966 -0.54237,-21.15254 3.79661,-20.0678 4.33898,1.08474 52.0678,33.62711 51.52541,39.59323 -0.54237,5.96609 -9.49151,17.89829 -12.47458,17.35592 -2.98304,-0.54237 -24.67795,-24.13558 -44.20338,-24.13558 -19.52543,0 -73.49152,59.661 -78.10169,63.45761 -4.61017,3.79662 -17.08475,1.08474 -18.16949,-5.15254 z"
         id="path852" />
      <path
         style="fill:#000000;stroke:none;stroke-width:0.26458332px;stroke-linecap:butt;stroke-linejoin:miter;stroke-opacity:1;fill-opacity:1"
         d="m 250.0339,414.64407 c 0,0 33.8983,-55.86442 61.8305,-55.86442 27.93222,0 39.32203,20.339 39.32203,20.339 0,0 -26.84746,31.18644 -101.15253,35.52542 z"
         id="path854" />
      <path
         style="fill:#000000;stroke:none;stroke-width:0.26458332px;stroke-linecap:butt;stroke-linejoin:miter;stroke-opacity:1;fill-opacity:1"
         d="m 331.54919,191.57276 c 0,0 18.21698,10.35492 22.05214,20.70984 3.83514,10.35492 2.30108,17.64172 2.30108,17.64172 0,0 -3.83516,-22.05215 -24.35322,-38.35156 z"
         id="path858" />
      <path
         style="fill:#000000;fill-opacity:1;stroke:none;stroke-width:0.26458332px;stroke-linecap:butt;stroke-linejoin:miter;stroke-opacity:1"
         d="m 331.0698,219.18588 c 7.09504,5.08158 16.39527,13.03953 17.6417,19.84693 1.24642,6.8074 0,12.08074 0,12.08074 0,0 -3.64339,-18.31286 -17.6417,-31.92767 z"
         id="path860" />
    </g>
  </g>
</svg>
