<?xml version="1.0" encoding="UTF-8" standalone="no"?>
<svg
   xmlns:dc="http://purl.org/dc/elements/1.1/"
   xmlns:cc="http://creativecommons.org/ns#"
   xmlns:rdf="http://www.w3.org/1999/02/22-rdf-syntax-ns#"
   xmlns:svg="http://www.w3.org/2000/svg"
   xmlns="http://www.w3.org/2000/svg"
   width="512mm"
   height="512mm"
   viewBox="0 0 512 512"
   version="1.1"
   id="svg885">
  <defs
     id="defs879" />
  <metadata
     id="metadata882">
    <rdf:RDF>
      <cc:Work
         rdf:about="">
        <dc:format>image/svg+xml</dc:format>
        <dc:type
           rdf:resource="http://purl.org/dc/dcmitype/StillImage" />
        <dc:title></dc:title>
      </cc:Work>
    </rdf:RDF>
  </metadata>
  <g
     style="opacity:1"
     id="layer1">
    <g
       style=""
       id="g865">
      <ellipse
         style="opacity:1;fill:#000000;fill-opacity:1;stroke:none;stroke-width:3.06916666;stroke-miterlimit:4;stroke-dasharray:none;stroke-opacity:1"
         id="path830"
         cx="321.14633"
         cy="204.2767"
         rx="10.30698"
         ry="13.375104" />
      <ellipse
         style="opacity:1;fill:#000000;fill-opacity:1;stroke:none;stroke-width:2.64595032;stroke-miterlimit:4;stroke-dasharray:none;stroke-opacity:1"
         id="path830-7"
         cx="352.45218"
         cy="218.47899"
         rx="8.2455845"
         ry="12.425951" />
      <path
         style="fill:#000000;fill-opacity:1;stroke:none;stroke-width:0.26458332px;stroke-linecap:butt;stroke-linejoin:miter;stroke-opacity:1"
         d="m 205.83051,126.91525 c -5.69492,0 -26.30509,13.01695 -28.20339,16.27119 -1.89831,3.25424 1.8983,4.61017 0.27118,7.86441 -1.62711,3.25423 -10.30508,7.8644 -11.66101,13.01694 -1.35594,5.15255 2.71186,48.54238 5.15254,49.35594 0,0 0.94916,-14.77967 2.44068,-26.0339 2.16949,0.54237 0.54237,17.08474 0.27118,20.33898 0.11234,11.49982 -8.13559,18.44068 -11.66101,18.44068 -3.52543,0 -11.73247,-4.80193 -14.17315,-4.80193 10.59886,6.90328 3.32569,17.81888 9.0206,17.81888 5.69492,0 1.42373,2.77966 2.71187,3.79661 1.28814,1.01695 4,0 4.74576,1.22034 0.74576,1.22033 1.9661,4.61016 4.13559,4.54237 2.16949,-0.0678 3.93221,-4.67797 5.76272,-4.40678 1.83051,0.27118 1.55932,4.33898 3.79661,4.0678 2.23728,-0.27119 9.71001,-10.67588 11.47612,-7.84673 3.02841,4.85128 7.97157,19.10103 13.56379,24.06863 0.77536,0.68875 -14.40743,-35.37552 -13.92804,-39.21067 -3.4528,-9.53008 39.3288,-24.74005 65.3627,-27.7231 26.03391,-2.98305 40.13559,-1.62712 40.13559,-1.62712 0,0 3.79661,-9.35593 24.81355,-9.35593 21.01697,0 18.03392,21.9661 18.03392,21.9661 0,0 7.18643,-2.84745 4.88135,-16.54237 -2.3051,-13.69491 -32.81357,-42.71186 -52.61017,-50.0339 -19.7966,-7.32203 -11.66101,1.35593 -16.54238,1.35593 -4.88136,0 -5.37258,-3.51577 -9.16017,-3.77733 -22.16128,-1.53039 -33.11493,3.98134 -35.53906,4.2539 -2.44068,0.27119 -3.02958,-17.01894 -23.09737,-17.01894 z"
         id="path826" />
      <path
         style="fill:#000000;fill-opacity:1;stroke:none;stroke-width:0.26458332px;stroke-linecap:butt;stroke-linejoin:miter;stroke-opacity:1"
         d="m 343.18643,231.32203 c -0.27117,-3.52542 -1.08474,-17.35593 -2.30507,-17.62712 -1.22034,-0.27119 -9.08476,-0.54237 -10.44067,0.54237 -1.35594,1.08475 -1.22037,11.25424 -9.35596,11.25424 -8.13559,0 -24.54235,-6.64407 -26.98303,-12.88135 -2.44067,-6.23729 -37.01696,-1.49153 -41.49153,-0.27119 -4.47458,1.22034 -53.55932,16.67797 -53.69492,17.62712 -0.13559,0.94915 12.20339,27.11864 12.20339,36.61018 0,9.4915 -18.98305,34.84745 -21.9661,34.84745 -2.98305,0 -14.37288,-8.54237 -16.27119,-6.77966 -1.8983,1.76271 103.59323,118.10169 109.55932,118.10169 5.96611,0 -11.11864,-26.30508 -10.10169,-26.98305 1.01695,-0.67797 25.55933,24.27118 27.45764,23.45761 1.89828,-0.81354 -6.91526,-13.15252 -3.66104,-12.74575 3.25424,0.40677 12.19623,5.22846 13.74243,3.68226 1.5462,-1.54619 -35.97971,-37.44497 -37.20004,-36.36023 -1.22034,1.08474 32.54237,33.22034 28.61016,31.32204 -3.93221,-1.89831 -7.18643,-1.76271 -8.54237,-0.81357 -1.35593,0.94917 0.67797,3.52544 0,4.06781 -0.67796,0.54237 -38.77966,-41.22034 -38.77966,-45.01695 0,-3.79661 8.40678,-9.62713 8,-10.84746 -0.40678,-1.22034 -21.28814,-18.84747 -19.52542,-20.2034 1.76271,-1.35591 27.79661,19.93222 38.23728,18.16949 10.44067,-1.76271 8.64506,-17.28331 10.67897,-18.50364 2.0339,-1.22034 4.87995,-5.12812 10.59155,-5.46911 1.92439,-1.53945 -0.47258,-4.15002 1.56133,-4.69239 5.10201,0.60817 3.60883,-5.50435 4.55798,-10.65688 5.11656,-1.55786 8.69313,2.07117 13.9661,-0.54237 1.22033,-1.62714 0.54238,-27.66103 1.62711,-28.88137 1.08477,-1.22034 4.12795,-3.60085 4.12795,-4.55002 0,-0.94914 1.2958,-5.89065 2.10934,-7.92455 0.81357,-2.03389 13.28814,-3.38983 13.28814,-27.9322 z"
         id="path851" />
      <path
         style="fill:#000000;fill-opacity:1;stroke:none;stroke-width:0.26458332px;stroke-linecap:butt;stroke-linejoin:miter;stroke-opacity:1"
         d="m 170.98305,305.62711 c 1.62712,0.94917 -5.42373,14.50848 -5.28814,16.40679 0.1356,1.8983 57.51113,80.66418 65.94848,79.1301 8.43734,-1.53406 16.49116,-9.97141 18.79226,-10.35492 2.30109,-0.38352 13.42304,24.16148 11.50546,24.16148 -1.91757,0 -10.55128,-15.64854 -12.72077,-15.51294 -2.16949,0.1356 -15.45763,10.1695 -17.89831,10.1695 -2.44068,0 -53.42373,-58.98306 -57.35593,-59.11866 -3.9322,-0.13557 -14.77966,5.01695 -14.77966,7.86442 0,2.84745 36.61017,37.28813 32.81356,39.18643 -3.79661,1.89831 -30.1017,-29.28813 -34.98305,-33.35591 -4.88136,-4.06781 -19.25424,-1.08477 -18.98305,-3.25424 0.27118,-2.16951 11.38983,-1.08477 19.25423,-6.50849 7.86441,-5.42372 13.01695,-7.45763 16,-9.7627 2.14587,-1.65816 -12.74576,-20.61017 -13.01694,-23.59324 -0.27119,-2.98305 9.22033,-15.45762 10.71186,-15.45762 z"
         id="path855" />
      <path
         style="fill:#000000;stroke:none;stroke-width:0.26458332px;stroke-linecap:butt;stroke-linejoin:miter;stroke-opacity:1;opacity:0.99;fill-opacity:1"
         d="m 130.98305,350.37289 c 1.62712,1.42372 18.64407,-12.94916 21.42373,-12.88137 2.77966,0.0678 -2.16949,-0.88136 -4.47458,-0.88136 -2.30508,0 -16.94915,13.76273 -16.94915,13.76273 z"
         id="path857" />
    </g>
  </g>
</svg>
