<?xml version="1.0" encoding="UTF-8" standalone="no"?>
<svg
   xmlns:dc="http://purl.org/dc/elements/1.1/"
   xmlns:cc="http://creativecommons.org/ns#"
   xmlns:rdf="http://www.w3.org/1999/02/22-rdf-syntax-ns#"
   xmlns:svg="http://www.w3.org/2000/svg"
   xmlns="http://www.w3.org/2000/svg"
   xmlns:sodipodi="http://sodipodi.sourceforge.net/DTD/sodipodi-0.dtd"
   xmlns:inkscape="http://www.inkscape.org/namespaces/inkscape"
   width="512mm"
   height="512mm"
   viewBox="0 0 512 512"
   version="1.1"
   id="svg885"
   sodipodi:docname="yellow_man.svg"
   inkscape:version="0.92.3 (2405546, 2018-03-11)">
  <sodipodi:namedview
     pagecolor="#ffffff"
     bordercolor="#666666"
     borderopacity="1"
     objecttolerance="10"
     gridtolerance="10"
     guidetolerance="10"
     inkscape:pageopacity="0"
     inkscape:pageshadow="2"
     inkscape:window-width="1920"
     inkscape:window-height="1017"
     id="namedview13"
     showgrid="false"
     inkscape:zoom="0.34494473"
     inkscape:cx="563.71988"
     inkscape:cy="758.20047"
     inkscape:window-x="-8"
     inkscape:window-y="-8"
     inkscape:window-maximized="1"
     inkscape:current-layer="layer1" />
  <defs
     id="defs879" />
  <metadata
     id="metadata882">
    <rdf:RDF>
      <cc:Work
         rdf:about="">
        <dc:format>image/svg+xml</dc:format>
        <dc:type
           rdf:resource="http://purl.org/dc/dcmitype/StillImage" />
        <dc:title />
      </cc:Work>
    </rdf:RDF>
  </metadata>
  <g
     inkscape:groupmode="layer"
     id="layer1"
     inkscape:label="Layer 1"
     style="opacity:1">
    <g
       id="g851"
       transform="translate(-0.76703106,-13.039528)"
       style="">
      <path
         id="path831"
         transform="scale(0.26458333)"
         d="m 895.125,463.80469 c -52.6595,0.15531 -92.30288,3.16949 -95.90625,4.79101 -10.24955,4.61231 -23.57432,52.27305 -16.91211,60.47266 6.43102,0 11.68789,-20.67563 19.66016,-21.40039 7.97231,-0.72476 21.01731,21.01754 22.46679,31.16406 1.44953,10.1466 -101.46584,67.4035 -115.96093,81.17383 -14.49506,13.77029 -18.84333,74.64948 -21.01758,89.14453 -2.17425,14.49509 -43.00541,62.83183 -40.69922,76.15625 2.30612,13.32446 53.55377,28.18771 22.54883,51.76172 -31.00494,23.57401 -98.65215,144.77479 -94.8086,158.35547 3.84359,13.58067 53.81113,13.06837 58.67969,13.06837 4.86856,0 28.69922,14.3488 -0.25586,25.3672 -28.955,11.0182 -7.68767,52.7847 6.91797,53.041 14.60565,0.2562 10.76194,-13.8367 25.11133,-14.6055 14.34939,-0.7687 56.3733,26.3927 62.7793,28.9551 6.40595,2.5624 15.11735,23.0625 9.73632,31.0059 -5.38102,7.9434 -77.38522,-31.0064 -78.41015,-26.6504 -1.02497,4.3561 15.11735,23.0623 17.67969,29.7246 2.5624,6.6622 -5.12382,88.1471 13.83789,110.1836 18.9617,22.0367 189.10439,-25.6256 191.15429,-17.4258 2.0499,8.1996 -49.19726,26.6493 -49.19726,37.9238 0,11.2747 23.57509,49.1979 34.84961,55.3477 11.27452,6.1497 300.82479,-150.6677 316.19919,-152.2051 32.7986,23.574 -298.26364,303.3855 -307.48826,302.873 -9.22458,-0.5125 -32.79882,-120.9433 -42.02343,-120.9433 -9.22462,0 -43.04688,95.3196 -43.04688,107.6191 0,12.2995 10.76054,94.2965 19.47266,93.2715 8.71215,-1.0249 167.5814,-140.9307 179.88086,-145.543 12.29945,-4.6123 16.39695,73.2843 29.20895,71.2344 12.8121,-2.0499 222.4177,-249.5777 223.9551,-264.4394 1.5374,-14.8619 -32.7982,-51.2478 -45.0976,-62.0098 -12.2995,-10.762 -22.5489,-2.5619 -31.7735,-5.6367 -9.2247,-3.0749 -7.1753,-41.5107 -6.1504,-62.0098 1.025,-20.4992 64.5725,-91.22245 97.3711,-141.4453 32.7986,-50.22289 33.823,-199.8659 30.7481,-224.46484 -3.0749,-24.59898 -50.2223,-128.11977 -113.7696,-198.8418 -39.7171,-44.20124 -172.5209,-54.57042 -269.04098,-55.00586 -3.61951,-0.0163 -7.18859,-0.0182 -10.69922,-0.008 z m -3.29883,19.33984 c 40.23518,-0.1843 91.75609,2.82872 103.98633,4.64063 19.5683,2.89901 120.3084,40.58685 121.0332,45.66015 0.7247,5.07326 -48.5589,-2.89993 -56.5312,-5.07422 -7.9724,-2.17425 -29.7155,-17.39315 -36.2383,-14.49414 -6.5228,2.89901 -15.9434,10.86945 -26.08987,9.41993 -10.14656,-1.44949 -9.4215,-7.2464 -21.01758,-5.79688 -11.59604,1.44949 -7.24916,10.14679 -31.16602,8.69727 -23.91688,-1.44949 -22.46699,-10.8711 -31.16406,-10.8711 -8.69703,0 -17.39358,10.87125 -31.88867,10.14649 -14.49506,-0.72473 -41.33538,-12.13281 -40.23633,-37.59375 5.09275,-3.36314 25.1714,-4.6238 49.3125,-4.73438 z m 79.58594,84.10352 c 13.83693,-0.51251 26.39211,16.39912 34.59179,14.60547 8.1997,-1.79369 7.4309,-12.81292 14.6055,-13.8379 7.1747,-1.02497 21.2679,13.32539 30.2363,13.8379 8.9683,0.51246 54.7935,1.18903 62.041,3.36328 7.2476,2.17432 4.3483,8.69726 10.8711,8.69726 6.5228,0 8.3144,-9.24251 16.2578,-7.70508 7.9435,1.53744 34.5938,16.14355 34.5938,20.75586 0,4.61231 -49.1987,-1.79365 -56.1172,0 -6.9185,1.79369 -14.3487,4.61169 -20.2422,4.35547 -5.8935,-0.25625 -14.35,-7.43014 -25.8809,-8.45508 -11.5307,-1.02497 -22.292,5.63633 -29.4668,5.89258 -7.1746,0.25625 -16.3994,-7.42929 -22.2929,-7.68554 -5.8935,-0.25626 -19.4747,8.19847 -32.54299,8.71093 -13.06817,0.51251 -23.31657,-12.55543 -35.10352,-12.04297 -11.78706,0.51251 -12.04419,13.83669 -23.0625,13.32422 -11.01827,-0.51246 -42.79233,-25.62401 -27.41797,-39.46093 12.29945,-2.56237 25.11187,9.73788 37.92383,9.99414 12.81196,0.25625 17.16893,-13.83715 31.00586,-14.34961 z"
         style="fill:#000000;fill-opacity:1;stroke:none;stroke-width:1px;stroke-linecap:butt;stroke-linejoin:miter;stroke-opacity:1"
         inkscape:connector-curvature="0" />
      <path
         sodipodi:nodetypes="cscc"
         inkscape:connector-curvature="0"
         id="path835"
         d="m 234.32799,413.24474 c -0.95879,-1.34231 19.14088,-26.68521 21.44198,-26.68521 2.30109,0 5.77599,13.74437 4.62545,15.08668 -1.35394,1.74909 -9.76802,15.05018 -26.06743,11.59853 z"
         style="fill:#000000;fill-opacity:1;stroke:none;stroke-width:0.26458332px;stroke-linecap:butt;stroke-linejoin:miter;stroke-opacity:1" />
      <path
         sodipodi:nodetypes="ccccccccc"
         inkscape:connector-curvature="0"
         id="path837"
         d="m 332.69974,329.25483 c 3.83513,0.19177 19.36751,20.13457 19.75105,23.01094 0.38352,2.87636 -2.10934,15.34062 -1.34231,16.49116 0.76703,1.15057 4.02691,9.20438 1.34231,11.31372 -21.28512,17.06644 -86.48275,41.75526 -87.2498,32.9344 -0.4794,-2.73256 3.06812,-1.86965 3.83517,-5.89655 0.76703,-4.02691 -0.76705,-6.13625 -1.15057,-9.01261 -0.38351,-2.87637 9.01263,-1.9176 12.08076,-4.02691 3.06811,-2.10934 47.36417,-63.66358 52.73339,-64.81415 z"
         style="fill:#000000;fill-opacity:1;stroke:none;stroke-width:0.26458332px;stroke-linecap:butt;stroke-linejoin:miter;stroke-opacity:1" />
    </g>
  </g>
</svg>
